<svg width="143" height="150" viewBox="0 0 143 150" fill="none" xmlns="http://www.w3.org/2000/svg">
<g clip-path="url(#clip0_396_1368)">
<path d="M47.055 53.2294V53.1182C47.6213 54.7471 48.3568 56.6245 49.2746 58.7637L62.4622 90.857L64.441 85.761C64.441 85.761 64.402 85.676 64.3824 85.6302L48.5651 47.8064H44.907L47.055 53.2163V53.2294Z" fill="#1E262D"/>
<path d="M43.8068 54.4919L36.3668 100.211H40.0836L46.098 60.3728L43.8068 54.4854V54.4919Z" fill="#1E262D"/>
<path d="M83.975 53.1967L68.7956 85.7153C67.3831 88.6656 64.3889 95.5408 64.3889 95.5408L68.0926 95.482L84.7887 59.5879L83.9815 53.2033L83.9685 53.1902L83.975 53.1967Z" fill="#1E262D"/>
<path d="M90.1587 47.8196H86.7284L94.24 100.212H98.0413L90.1587 47.8196Z" fill="#1E262D"/>
<path d="M0.755024 53.6742C0.47513 53.5827 0.260327 53.3995 0.123634 53.1313C-0.0130582 52.8631 -0.0325858 52.5818 0.0650518 52.2809C0.162689 51.98 0.351455 51.7575 0.62484 51.6136C0.898226 51.4697 1.17812 51.4435 1.45801 51.5417C1.73791 51.6332 1.9462 51.823 2.06337 52.0977C2.18704 52.3725 2.20006 52.6603 2.09591 52.9612C1.99828 53.2621 1.81602 53.478 1.55565 53.6154C1.29529 53.7527 1.02841 53.7724 0.748515 53.6808L0.755024 53.6742Z" fill="#1E262D"/>
<path d="M11.326 37.8434C11.0135 38.3275 10.623 38.6676 10.1543 38.8639C9.68565 39.0601 9.17143 39.1059 8.61815 39.0143C8.06487 38.9228 7.49857 38.6938 6.92576 38.3209C6.3139 37.9219 5.87128 37.4901 5.58487 37.0126C5.29847 36.5351 5.16829 36.051 5.18131 35.5538C5.19432 35.0566 5.34404 34.5856 5.63695 34.1408C6.01448 33.5521 6.47012 33.1726 6.99086 33.0026C7.5181 32.8325 8.05185 32.8325 8.61164 33.0026L8.28618 33.8399C7.86959 33.7352 7.48555 33.7352 7.12104 33.8595C6.75653 33.9773 6.47012 34.2062 6.25532 34.5398C6.06655 34.8277 5.98193 35.1482 5.98844 35.5015C5.99495 35.8547 6.11212 36.208 6.34645 36.5743C6.57427 36.9341 6.93227 37.2743 7.41395 37.5883C7.85007 37.8695 8.27967 38.0658 8.69626 38.1705C9.11285 38.2751 9.49689 38.2686 9.84838 38.1574C10.1999 38.0462 10.4863 37.8107 10.7206 37.4443C11.0005 37.0061 11.1112 36.5874 11.0396 36.1753C10.9745 35.7697 10.7466 35.4426 10.3691 35.194L10.8508 34.4483C11.2413 34.7034 11.5212 35.0174 11.6905 35.3772C11.8532 35.7435 11.9053 36.136 11.8467 36.5612C11.7881 36.9864 11.6189 37.4116 11.3455 37.8434H11.326Z" fill="#1E262D"/>
<path d="M9.69863 28.6394L14.2551 32.3027L16.0776 30.0132L16.6309 30.458L14.3006 33.3821L9.19092 29.2739L9.69863 28.6394Z" fill="#1E262D"/>
<path d="M18.2713 28.6525L13.4871 24.1715L14.0403 23.5762L18.8246 28.0572L18.2713 28.6525Z" fill="#1E262D"/>
<path d="M16.7805 20.7437L17.503 20.0961L23.5696 21.9081L23.5175 21.9539L19.931 17.9177L20.5363 17.3748L24.8909 22.2745L24.214 22.8828L17.9457 21.0185L18.0368 20.9334L21.7405 25.1004L21.1352 25.6434L16.7805 20.7437Z" fill="#1E262D"/>
<path d="M27.5598 20.2136L23.6674 14.9279L24.3183 14.4438L28.2108 19.7295L27.5598 20.2136Z" fill="#1E262D"/>
<path d="M32.9493 16.7008C32.4611 17.0017 31.9599 17.1391 31.4522 17.1129C30.9445 17.0867 30.4628 16.9101 30.0007 16.583C29.5385 16.2625 29.1285 15.8046 28.7704 15.2224C28.3929 14.6009 28.1716 14.0122 28.126 13.4627C28.074 12.9066 28.1586 12.4095 28.3864 11.9712C28.6142 11.5329 28.9527 11.1731 29.4018 10.8918C29.9942 10.5255 30.567 10.3815 31.1137 10.4535C31.6605 10.5255 32.1422 10.761 32.5718 11.16L31.9209 11.7749C31.5954 11.5002 31.2374 11.3366 30.8599 11.2843C30.4824 11.232 30.1244 11.3105 29.7859 11.5198C29.493 11.703 29.2717 11.9515 29.1285 12.2721C28.9853 12.5926 28.9397 12.9655 28.9918 13.3907C29.0438 13.8159 29.2196 14.2738 29.519 14.7645C29.7924 15.2093 30.0918 15.5691 30.4238 15.8438C30.7557 16.1186 31.1007 16.2821 31.4652 16.3279C31.8298 16.3802 32.1943 16.2887 32.5588 16.0662C33.0014 15.7915 33.2748 15.4579 33.392 15.0588C33.5026 14.6598 33.444 14.2673 33.2097 13.8813L33.9648 13.4169C34.2121 13.8159 34.3293 14.2215 34.3228 14.6205C34.3163 15.0196 34.1926 15.399 33.9583 15.7588C33.7239 16.1186 33.3855 16.4326 32.9558 16.7008H32.9493Z" fill="#1E262D"/>
<path d="M36.8224 14.2805L36.0608 7.37247L36.9525 6.94727L41.7368 11.9451L40.9622 12.3114L39.745 11.0227L37.3887 12.1413L37.5904 13.9141L36.8159 14.2805H36.8224ZM37.3106 11.4741L39.2893 10.5321L36.9135 8.05935L37.3106 11.4741Z" fill="#1E262D"/>
<path d="M45.9807 3.35585L47.1068 3.05494L50.4395 6.86872L50.3614 6.88834L51.3833 1.91669L52.4834 1.62231L54.1562 7.97425L53.3621 8.18359L51.9041 2.64935L52.0473 2.6101L50.9798 7.96117L50.459 8.09855L46.918 4.00347L47.0092 3.97731L48.4607 9.47883L47.6731 9.68817L46.0002 3.33623L45.9807 3.35585Z" fill="#1E262D"/>
<path d="M57.4304 7.45755L56.428 0.961694L57.2286 0.837402L58.231 7.33326L57.4304 7.45755Z" fill="#1E262D"/>
<path d="M61.8956 0.2812L62.3513 6.12289L65.2609 5.89393L65.313 6.60043L61.5962 6.89481L61.0885 0.340075L61.8956 0.274658V0.2812Z" fill="#1E262D"/>
<path d="M67.7344 6.58744L67.6302 0.0130833L68.4439 0L68.548 6.57436L67.7344 6.58744Z" fill="#1E262D"/>
<path d="M71.373 0.726079L71.4251 0.026123L76.5023 0.405539L76.4502 1.1055L74.1264 0.928871L74.3217 0.752246L73.8726 6.79673L73.0654 6.73785L73.5146 0.693371L73.6838 0.896162L71.373 0.726079Z" fill="#1E262D"/>
<path d="M80.59 7.80423C80.0562 7.70611 79.6006 7.49678 79.2296 7.16969C78.852 6.84261 78.5917 6.41086 78.4355 5.87445C78.2792 5.33149 78.2727 4.69041 78.4094 3.94466C78.5461 3.19237 78.7804 2.584 79.1124 2.13262C79.4444 1.68125 79.8414 1.36725 80.3101 1.20371C80.7722 1.03363 81.2735 1.00092 81.8072 1.09904C82.341 1.19717 82.7966 1.4065 83.1676 1.73358C83.5452 2.06067 83.8055 2.49242 83.9617 3.03537C84.118 3.57833 84.1245 4.21941 83.9878 4.9717C83.8511 5.72399 83.6168 6.32582 83.2848 6.7772C82.9528 7.22857 82.5558 7.53603 82.0871 7.70611C81.625 7.87619 81.1237 7.9089 80.59 7.81078V7.80423ZM80.7267 7.06503C81.332 7.17624 81.8463 7.03886 82.2759 6.65945C82.7055 6.28003 82.9984 5.66512 83.1546 4.80162C83.3043 3.95774 83.2457 3.28395 82.9789 2.76062C82.712 2.24383 82.2759 1.92983 81.6705 1.81863C81.0717 1.70742 80.5574 1.85133 80.1213 2.24383C79.6852 2.63633 79.3923 3.25125 79.2361 4.10166C79.0799 4.95862 79.1384 5.63895 79.4183 6.14266C79.6982 6.64636 80.1278 6.95382 80.7267 7.06503Z" fill="#1E262D"/>
<path d="M97.3056 10.0022C97.4292 9.73397 97.631 9.54427 97.9174 9.43306C98.1973 9.32839 98.4837 9.34148 98.7701 9.47231C99.0565 9.60314 99.2583 9.81902 99.3625 10.1068C99.4731 10.3947 99.4666 10.676 99.3364 10.9507C99.2127 11.2189 99.0045 11.4021 98.7181 11.4937C98.4316 11.5853 98.1452 11.5591 97.8588 11.4283C97.5724 11.2974 97.3772 11.0881 97.273 10.8133C97.1689 10.5386 97.1819 10.2638 97.3056 10.0022Z" fill="#1E262D"/>
<path d="M108.729 20.0502C108.267 19.7035 107.948 19.2914 107.785 18.8073C107.623 18.3232 107.603 17.8064 107.727 17.2569C107.85 16.7074 108.117 16.1514 108.521 15.6019C108.95 15.0131 109.413 14.5945 109.901 14.3393C110.389 14.0842 110.884 13.9796 111.372 14.0253C111.86 14.0711 112.322 14.2478 112.745 14.5618C113.305 14.9804 113.657 15.4514 113.793 15.9878C113.93 16.5243 113.897 17.0672 113.689 17.6102L112.882 17.2308C113.012 16.8186 113.032 16.4327 112.934 16.0598C112.836 15.6869 112.628 15.386 112.309 15.1505C112.029 14.9477 111.717 14.8365 111.372 14.8234C111.02 14.8103 110.662 14.9085 110.285 15.1178C109.914 15.3271 109.556 15.6608 109.217 16.1252C108.911 16.5439 108.69 16.9625 108.56 17.3747C108.43 17.7868 108.41 18.1727 108.501 18.526C108.592 18.8858 108.807 19.1867 109.159 19.4484C109.575 19.7558 109.985 19.8867 110.395 19.8474C110.806 19.8082 111.144 19.5988 111.411 19.2325L112.127 19.7624C111.847 20.1418 111.522 20.4035 111.151 20.5474C110.78 20.6913 110.382 20.7175 109.966 20.6324C109.549 20.5474 109.133 20.3511 108.723 20.0502H108.729Z" fill="#1E262D"/>
<path d="M112.999 23.334L117.315 18.395L117.927 18.9314L113.605 23.8704L112.993 23.334H112.999Z" fill="#1E262D"/>
<path d="M116.084 26.1536L120.81 21.6072L122.385 23.2622C122.9 23.8052 123.166 24.335 123.173 24.8649C123.179 25.3883 122.978 25.8527 122.555 26.2583C122.138 26.6573 121.676 26.8405 121.149 26.8078C120.628 26.7751 120.107 26.4872 119.593 25.9508L118.577 24.8845L116.644 26.7424L116.084 26.1536ZM118.617 28.8161L119.463 25.3948L120.075 26.0359L119.339 29.5814L118.61 28.8161H118.617ZM118.994 24.4855L119.964 25.506C120.302 25.8593 120.647 26.049 120.999 26.0686C121.35 26.0882 121.663 25.9639 121.943 25.6957C122.229 25.421 122.372 25.1135 122.372 24.7733C122.372 24.4332 122.21 24.093 121.884 23.7528L120.869 22.6866L118.994 24.4855Z" fill="#1E262D"/>
<path d="M126.33 27.7038L126.818 28.3514L123.492 30.8896C123.004 31.2625 122.743 31.655 122.711 32.0671C122.678 32.4792 122.815 32.8848 123.121 33.2838C123.42 33.6829 123.772 33.9184 124.175 34.0034C124.579 34.0819 125.022 33.938 125.516 33.5651L128.842 31.027L129.331 31.6746L126.004 34.2127C125.568 34.5464 125.139 34.7426 124.722 34.808C124.306 34.8669 123.908 34.808 123.537 34.6249C123.166 34.4417 122.828 34.1473 122.522 33.7417C122.216 33.3362 122.027 32.9306 121.949 32.5185C121.871 32.1063 121.917 31.7073 122.086 31.3213C122.255 30.9354 122.561 30.5691 122.997 30.2354L126.323 27.6973L126.33 27.7038Z" fill="#1E262D"/>
<path d="M126.955 40.375C126.688 39.9236 126.564 39.446 126.584 38.9358C126.603 38.4256 126.76 37.9349 127.059 37.4639C127.358 36.9929 127.801 36.5808 128.387 36.2341C128.875 35.9463 129.344 35.7631 129.799 35.6846C130.255 35.6061 130.678 35.6192 131.075 35.7108C131.472 35.8089 131.824 35.979 132.143 36.2276C132.455 36.4696 132.722 36.7705 132.93 37.1303C133.191 37.5751 133.327 38.0134 133.34 38.4517C133.353 38.89 133.236 39.3479 132.982 39.8189L132.357 39.2891C132.488 38.9423 132.546 38.6153 132.527 38.3143C132.507 38.0134 132.423 37.7321 132.273 37.477C132.071 37.1368 131.798 36.8817 131.44 36.7051C131.082 36.5285 130.678 36.4631 130.229 36.4958C129.78 36.5285 129.311 36.692 128.823 36.9798C128.393 37.235 128.055 37.5293 127.801 37.8695C127.554 38.2097 127.404 38.5629 127.371 38.9358C127.332 39.3087 127.417 39.675 127.632 40.0283C127.794 40.303 127.996 40.5123 128.25 40.6563C128.504 40.8002 128.79 40.859 129.122 40.8394C129.448 40.8133 129.806 40.689 130.19 40.46L130.32 40.6759C129.838 40.9572 129.389 41.1469 128.973 41.245C128.55 41.3431 128.172 41.317 127.834 41.1861C127.495 41.0488 127.202 40.7805 126.961 40.375H126.955ZM128.009 41.9253L129.266 41.0095L130.209 40.4535L129.422 39.0012L129.897 38.7199L131.134 40.8329L128.341 42.4879L128.016 41.9319L128.009 41.9253Z" fill="#1E262D"/>
<path d="M129.728 45.3204L135.638 42.501L135.99 43.2402L130.079 46.0596L129.728 45.3204Z" fill="#1E262D"/>
<path d="M131.179 48.4148L138.092 48.2251L138.437 49.154L133.086 53.5304L132.787 52.7258L134.16 51.6137L133.249 49.1606L131.479 49.2129L131.179 48.4083V48.4148ZM133.92 49.1344L134.688 51.195L137.337 49.0232L133.92 49.1344Z" fill="#1E262D"/>
<path d="M134.753 59.6532L141.164 58.3579L141.581 60.4316C141.724 61.1381 141.653 61.7138 141.373 62.1651C141.093 62.61 140.644 62.8978 140.038 63.0156C139.433 63.1399 138.919 63.0483 138.496 62.7408C138.066 62.4399 137.786 61.9296 137.643 61.2232L137.389 59.9606L134.916 60.4578L134.753 59.6466V59.6532ZM138.079 59.8232L138.333 61.0858C138.424 61.5372 138.606 61.8512 138.88 62.0343C139.153 62.2175 139.485 62.2698 139.876 62.1913C140.273 62.1128 140.559 61.9297 140.748 61.6549C140.937 61.3736 140.989 61.0138 140.897 60.5624L140.644 59.2999L138.079 59.8167V59.8232Z" fill="#1E262D"/>
<path d="M142.551 66.7772L136.751 67.3725L137.044 70.2901L136.341 70.3621L135.964 66.6333L142.473 65.9661L142.557 66.7772H142.551Z" fill="#1E262D"/>
<path d="M136.406 71.9385L142.98 74.0907L142.993 75.085L136.491 77.4008L136.478 76.5438L138.144 75.9616L138.105 73.3449L136.419 72.7954L136.406 71.9385ZM138.743 73.5412L138.775 75.7392L141.998 74.5878L138.743 73.5412Z" fill="#1E262D"/>
<path d="M135.964 82.0715C136.009 81.6332 136.126 81.2407 136.322 80.894C136.517 80.5473 136.777 80.279 137.109 80.0828C137.441 79.8931 137.832 79.8146 138.287 79.8538L138.209 80.6454C137.903 80.6127 137.649 80.665 137.441 80.7893C137.233 80.9136 137.064 81.1033 136.946 81.3388C136.829 81.5743 136.751 81.8425 136.719 82.1303C136.686 82.4443 136.706 82.7256 136.784 82.9677C136.862 83.2097 136.972 83.406 137.122 83.5499C137.272 83.6938 137.448 83.7723 137.643 83.7985C137.916 83.8246 138.151 83.7657 138.339 83.6153C138.528 83.4648 138.691 83.2228 138.834 82.9022L139.355 81.7902C139.602 81.2668 139.869 80.8809 140.142 80.6323C140.416 80.3772 140.78 80.279 141.229 80.3248C141.731 80.3772 142.128 80.6127 142.401 81.0379C142.681 81.4631 142.779 82.0322 142.707 82.7518C142.642 83.419 142.434 83.9227 142.089 84.2695C141.744 84.6162 141.314 84.7862 140.793 84.7862L140.878 83.9816C141.184 83.962 141.431 83.8442 141.62 83.6284C141.809 83.4125 141.926 83.0985 141.971 82.6733C142.017 82.2415 141.952 81.8948 141.789 81.6397C141.626 81.378 141.399 81.2341 141.106 81.208C140.865 81.1818 140.67 81.2407 140.513 81.378C140.357 81.5154 140.207 81.7378 140.064 82.0518L139.459 83.3602C139.257 83.8115 138.997 84.1582 138.691 84.4068C138.385 84.6554 138.007 84.747 137.558 84.7012C137.213 84.6685 136.907 84.5377 136.647 84.3283C136.387 84.1125 136.191 83.8181 136.061 83.4387C135.931 83.0592 135.892 82.6079 135.95 82.0845L135.964 82.0715Z" fill="#1E262D"/>
<path d="M141.262 87.7104L141.945 87.8544L140.911 92.8653L140.227 92.7214L140.702 90.4318L140.852 90.6477L134.948 89.4113L135.111 88.6132L141.015 89.8496L140.793 89.9935L141.269 87.7104H141.262Z" fill="#1E262D"/>
<path d="M133.841 93.8269L140.123 95.6717L139.895 96.4566L133.614 94.6119L133.841 93.8269Z" fill="#1E262D"/>
<path d="M131.668 99.9041C131.876 99.3612 132.195 98.949 132.611 98.6677C133.034 98.3865 133.523 98.2295 134.089 98.2033C134.649 98.1771 135.248 98.2949 135.885 98.5435C136.562 98.8117 137.083 99.1453 137.461 99.5574C137.838 99.9695 138.066 100.414 138.151 100.905C138.235 101.396 138.183 101.886 137.988 102.377C137.734 103.031 137.37 103.495 136.888 103.764C136.406 104.032 135.879 104.143 135.3 104.091L135.449 103.208C135.879 103.227 136.256 103.142 136.588 102.953C136.92 102.763 137.161 102.482 137.304 102.109C137.428 101.788 137.454 101.454 137.376 101.114C137.298 100.774 137.109 100.447 136.81 100.14C136.51 99.8322 136.094 99.5705 135.56 99.3677C135.072 99.178 134.616 99.0733 134.187 99.0602C133.757 99.0406 133.379 99.1257 133.06 99.3088C132.742 99.492 132.501 99.7798 132.344 100.185C132.156 100.669 132.136 101.108 132.286 101.494C132.436 101.88 132.722 102.154 133.139 102.318L132.82 103.149C132.384 102.979 132.045 102.73 131.811 102.41C131.576 102.082 131.446 101.71 131.42 101.284C131.394 100.853 131.472 100.401 131.654 99.9237L131.668 99.9041Z" fill="#1E262D"/>
<path d="M130.021 104.195L134.779 109.239L134.323 110.122L127.508 109.036L127.905 108.277L129.65 108.565L130.854 106.243L129.63 104.954L130.027 104.195H130.021ZM131.316 106.727L130.307 108.676L133.685 109.206L131.323 106.727H131.316Z" fill="#1E262D"/>
<path d="M114.763 124.998C114.945 124.808 115.16 124.671 115.401 124.586C115.642 124.501 115.941 124.448 116.299 124.422L120.843 124.102C121.175 124.075 121.481 124.102 121.767 124.187C122.053 124.272 122.294 124.409 122.496 124.605C122.704 124.815 122.835 125.057 122.887 125.338C122.939 125.619 122.9 125.914 122.782 126.221C122.665 126.529 122.457 126.836 122.164 127.13C121.891 127.412 121.604 127.608 121.305 127.719C121.005 127.83 120.719 127.87 120.446 127.824C120.172 127.778 119.931 127.654 119.73 127.457C119.534 127.268 119.404 127.045 119.333 126.79C119.261 126.535 119.248 126.241 119.307 125.901C119.359 125.56 119.482 125.168 119.671 124.717L120.289 124.697C120.14 125.096 120.042 125.423 120.01 125.685C119.977 125.946 119.99 126.162 120.049 126.332C120.107 126.502 120.198 126.653 120.328 126.777C120.504 126.954 120.719 127.032 120.973 127.013C121.227 126.993 121.461 126.875 121.682 126.646C121.943 126.378 122.073 126.11 122.073 125.835C122.073 125.56 121.975 125.338 121.793 125.155C121.656 125.024 121.5 124.926 121.311 124.874C121.123 124.815 120.895 124.795 120.615 124.821L116.104 125.142C115.922 125.161 115.772 125.188 115.655 125.227C115.538 125.266 115.427 125.345 115.31 125.456C115.186 125.58 115.121 125.744 115.121 125.927C115.121 126.11 115.225 126.326 115.427 126.555L114.887 127.104C114.555 126.738 114.366 126.372 114.334 126.012C114.301 125.645 114.438 125.305 114.75 124.991L114.763 124.998ZM117.673 122.028C117.933 121.766 118.207 121.557 118.493 121.406C118.779 121.256 119.072 121.158 119.359 121.119C119.645 121.079 119.918 121.092 120.179 121.171C120.433 121.243 120.66 121.374 120.856 121.57C121.233 121.943 121.37 122.375 121.266 122.865C121.162 123.356 120.849 123.912 120.335 124.533L119.853 124.337C120.237 123.86 120.459 123.447 120.524 123.101C120.589 122.754 120.498 122.466 120.257 122.224C120.094 122.067 119.905 121.969 119.678 121.93C119.45 121.891 119.215 121.923 118.955 122.021C118.701 122.119 118.441 122.303 118.187 122.564C117.888 122.865 117.679 123.205 117.556 123.585C117.432 123.958 117.38 124.363 117.399 124.782C117.419 125.207 117.49 125.639 117.621 126.084C117.751 126.529 117.927 126.973 118.141 127.412L117.517 127.601C117.263 127.111 117.054 126.607 116.911 126.11C116.761 125.606 116.683 125.116 116.677 124.631C116.664 124.147 116.742 123.689 116.898 123.251C117.054 122.813 117.315 122.407 117.679 122.041L117.673 122.028Z" fill="#1E262D"/>
<path d="M105.455 140.187L104.42 140.724L100.352 137.721L100.423 137.682L100.488 142.758L99.4796 143.282L96.4854 137.44L97.2144 137.061L99.8181 142.15L99.6879 142.215L99.5902 136.76L100.072 136.511L104.407 139.743L104.322 139.788L101.732 134.725L102.454 134.352L105.448 140.194L105.455 140.187Z" fill="#1E262D"/>
<path d="M93.4327 138.676L95.6718 144.852L91.8835 146.238L91.6426 145.578L94.6694 144.472L93.9143 142.398L91.0633 143.439L90.8225 142.778L93.6735 141.738L92.9054 139.625L89.8787 140.73L89.6378 140.063L93.4262 138.676H93.4327Z" fill="#1E262D"/>
<path d="M88.2579 147.351L86.3963 147.802C85.7519 147.959 85.1661 147.959 84.6323 147.815C84.0986 147.671 83.6429 147.383 83.2654 146.971C82.8878 146.559 82.6275 146.023 82.4713 145.375C82.315 144.734 82.315 144.145 82.4582 143.602C82.6014 143.059 82.8813 142.601 83.2914 142.222C83.7015 141.843 84.2222 141.574 84.8666 141.417L86.7283 140.966L88.2644 147.357L88.2579 147.351ZM87.3011 146.84L86.1034 141.843L85.0294 142.104C84.5477 142.222 84.1637 142.431 83.8707 142.732C83.5778 143.033 83.3825 143.393 83.2849 143.818C83.1873 144.243 83.2003 144.695 83.3109 145.172C83.4281 145.656 83.6234 146.062 83.9033 146.389C84.1832 146.716 84.5151 146.952 84.9122 147.082C85.3093 147.213 85.7519 147.22 86.2271 147.102L87.3011 146.84Z" fill="#1E262D"/>
<path d="M78.787 142.641L79.7438 149.143L78.9432 149.261L77.9863 142.758L78.787 142.641Z" fill="#1E262D"/>
<path d="M72.3559 143.197C72.9287 143.164 73.4364 143.275 73.866 143.543C74.3022 143.812 74.6406 144.191 74.901 144.695C75.1549 145.198 75.3046 145.794 75.3436 146.474C75.3892 147.2 75.2981 147.822 75.0898 148.332C74.875 148.842 74.5625 149.241 74.159 149.522C73.7554 149.804 73.2867 149.961 72.7595 149.993C72.063 150.033 71.4902 149.895 71.0476 149.568C70.6049 149.241 70.286 148.803 70.0907 148.253L70.9564 148.024C71.1192 148.423 71.3535 148.737 71.6594 148.96C71.9654 149.182 72.3234 149.287 72.7204 149.261C73.0654 149.241 73.3713 149.123 73.6512 148.908C73.9311 148.692 74.1459 148.384 74.2956 147.985C74.4519 147.586 74.5105 147.095 74.4714 146.52C74.4389 145.996 74.3412 145.539 74.1785 145.14C74.0158 144.74 73.7814 144.433 73.4885 144.217C73.1891 144.001 72.8311 143.903 72.4015 143.929C71.8873 143.962 71.4837 144.126 71.1973 144.42C70.9109 144.714 70.7807 145.094 70.8067 145.545L69.9215 145.597C69.8954 145.126 69.9736 144.721 70.1688 144.368C70.3641 144.021 70.6505 143.74 71.0215 143.537C71.3991 143.334 71.8417 143.216 72.3494 143.184L72.3559 143.197Z" fill="#1E262D"/>
<path d="M66.9989 143.426L66.8296 149.993L66.016 149.974L66.1852 143.406L66.9989 143.426Z" fill="#1E262D"/>
<path d="M62.0714 149.791L61.1081 149.679L58.4393 143.916H58.5109L57.8795 149.3L57.0724 149.202L57.834 142.673L58.7322 142.778L61.4986 148.731L61.375 148.718L62.0259 143.164L62.833 143.262L62.0714 149.791Z" fill="#1E262D"/>
<path d="M55.3475 142.242L51.6568 148.123L50.6934 147.894L50.0555 140.992L50.8887 141.188L51.0449 142.955L53.577 143.557L54.5208 142.045L55.354 142.242H55.3475ZM53.2255 144.126L51.097 143.622L51.4225 147.043L53.232 144.126H53.2255Z" fill="#1E262D"/>
<path d="M44.054 138.977L41.548 145.048L37.8247 143.498L38.0916 142.85L41.0663 144.086L41.906 142.045L39.107 140.881L39.3739 140.233L42.1728 141.398L43.032 139.317L40.0574 138.081L40.3307 137.42L44.054 138.971V138.977Z" fill="#1E262D"/>
<path d="M35.7873 134.967C36.1714 135.176 36.4838 135.445 36.7311 135.759C36.9785 136.073 37.1217 136.419 37.1673 136.799C37.2128 137.178 37.1282 137.571 36.9199 137.976L36.2234 137.597C36.3666 137.329 36.4252 137.074 36.3862 136.825C36.3471 136.583 36.243 136.354 36.0737 136.151C35.9045 135.948 35.6897 135.778 35.4358 135.634C35.1559 135.484 34.8956 135.392 34.6417 135.373C34.3878 135.347 34.1665 135.379 33.9778 135.464C33.789 135.549 33.6458 135.68 33.5482 135.85C33.4115 136.092 33.3789 136.334 33.4505 136.57C33.5221 136.805 33.6718 137.047 33.9127 137.303L34.7328 138.218C35.1169 138.65 35.3642 139.043 35.4944 139.396C35.6181 139.749 35.5725 140.128 35.3577 140.521C35.1169 140.966 34.7458 141.241 34.2512 141.332C33.7565 141.424 33.1902 141.299 32.5588 140.953C31.9729 140.632 31.5889 140.246 31.4066 139.795C31.2244 139.343 31.2374 138.879 31.4327 138.395L32.1357 138.781C32.038 139.075 32.0511 139.35 32.1682 139.605C32.2919 139.867 32.5392 140.096 32.9103 140.299C33.2878 140.508 33.6263 140.586 33.9322 140.528C34.2316 140.475 34.4529 140.318 34.5961 140.063C34.7133 139.854 34.7328 139.651 34.6742 139.448C34.6157 139.245 34.4594 139.023 34.2316 138.774L33.2683 137.708C32.9298 137.342 32.7085 136.975 32.6108 136.596C32.5067 136.217 32.5588 135.831 32.7736 135.432C32.9428 135.124 33.1706 134.895 33.4701 134.732C33.7695 134.575 34.1145 134.509 34.5115 134.535C34.9086 134.562 35.3382 134.705 35.7938 134.954L35.7873 134.967Z" fill="#1E262D"/>
<path d="M28.5622 137.689L28.1652 138.264L23.9733 135.36L24.3703 134.784L26.2905 136.112L26.0367 136.164L29.454 131.173L30.1244 131.638L26.7071 136.629L26.6616 136.367L28.5687 137.689H28.5622Z" fill="#1E262D"/>
<path d="M25.8413 128.491L21.6168 133.509L18.538 130.892L18.9871 130.355L21.4411 132.442L22.8601 130.755L20.5493 128.785L20.9984 128.249L23.3092 130.218L24.7542 128.498L22.3003 126.411L22.7559 125.868L25.8347 128.485L25.8413 128.491Z" fill="#1E262D"/>
<path d="M17.0345 128.55L16.5333 129.041L12.9858 125.364L13.487 124.874L15.1078 126.555H14.8475L19.1761 122.335L19.7424 122.924L15.4138 127.144V126.882L17.0345 128.557V128.55Z" fill="#1E262D"/>
<path d="M16.1622 118.947L11.1241 123.14L10.6034 122.512L15.6415 118.319L16.1622 118.947Z" fill="#1E262D"/>
<path d="M12.3545 113.713C12.6799 114.191 12.8426 114.682 12.8426 115.192C12.8426 115.702 12.6929 116.199 12.4 116.677C12.1071 117.161 11.6775 117.593 11.1177 117.985C10.5189 118.397 9.94607 118.646 9.3993 118.731C8.85253 118.809 8.35132 118.75 7.90219 118.548C7.45305 118.345 7.07552 118.024 6.7761 117.593C6.37904 117.017 6.20329 116.454 6.24886 115.905C6.29442 115.355 6.50271 114.852 6.86723 114.4L7.51164 115.022C7.25778 115.368 7.10807 115.728 7.08203 116.114C7.05599 116.5 7.14712 116.853 7.37494 117.18C7.57022 117.462 7.83059 117.671 8.15604 117.795C8.4815 117.926 8.85253 117.946 9.27562 117.874C9.69872 117.795 10.1413 117.599 10.61 117.266C11.0396 116.965 11.3781 116.644 11.6319 116.297C11.8858 115.951 12.029 115.591 12.0615 115.225C12.0941 114.858 11.9834 114.498 11.7361 114.139C11.4432 113.713 11.0917 113.452 10.6946 113.36C10.2911 113.269 9.90701 113.354 9.53599 113.609L9.03478 112.876C9.41882 112.608 9.80937 112.47 10.2129 112.451C10.61 112.438 10.994 112.536 11.3651 112.758C11.7361 112.981 12.0615 113.295 12.3545 113.713Z" fill="#1E262D"/>
<path d="M9.7506 109.959L2.92899 111.103L2.46033 110.227L7.16646 105.157L7.57003 105.909L6.35932 107.198L7.60257 109.501L9.34703 109.206L9.7506 109.959ZM6.93864 109.618L5.89717 107.689L3.5734 110.207L6.93864 109.625V109.618Z" fill="#1E262D"/>
</g>
<defs>
<clipPath id="clip0_396_1368">
<rect width="143" height="150" fill="white"/>
</clipPath>
</defs>
</svg>
