<svg width="24" height="24" viewBox="0 0 24 24" fill="none" xmlns="http://www.w3.org/2000/svg">
<path fill-rule="evenodd" clip-rule="evenodd" d="M18.2041 5.76205C16.5581 4.11505 14.3691 3.20705 12.0371 3.20605C7.23014 3.20605 3.31914 7.11505 3.31814 11.9201C3.31614 13.4491 3.71714 14.9521 4.48114 16.2771L3.24414 20.7931L7.86614 19.5811C9.14514 20.2771 10.5771 20.6421 12.0331 20.6421H12.0371C16.8421 20.6421 20.7531 16.7321 20.7551 11.9271C20.7561 9.59905 19.8501 7.41005 18.2041 5.76205Z" stroke="#EDC6BA" stroke-width="1.5" stroke-linecap="round" stroke-linejoin="round"/>
<path d="M13.0952 13.56L13.5012 13.157C13.8742 12.787 14.4642 12.74 14.8942 13.042C15.3102 13.334 15.6862 13.596 16.0362 13.84C16.5922 14.226 16.6592 15.018 16.1802 15.496L15.8212 15.855" stroke="#EDC6BA" stroke-width="1.5" stroke-linecap="round" stroke-linejoin="round"/>
<path d="M8.14502 8.17902L8.50402 7.82002C8.98202 7.34202 9.77402 7.40902 10.16 7.96402C10.403 8.31402 10.665 8.69002 10.958 9.10602C11.26 9.53602 11.214 10.126 10.843 10.499L10.44 10.905" stroke="#EDC6BA" stroke-width="1.5" stroke-linecap="round" stroke-linejoin="round"/>
<path d="M15.8212 15.855C14.3402 17.329 11.8512 16.077 9.88623 14.111" stroke="#EDC6BA" stroke-width="1.5" stroke-linecap="round" stroke-linejoin="round"/>
<path d="M9.88807 14.1141C7.92307 12.1481 6.67107 9.66008 8.14507 8.17908" stroke="#EDC6BA" stroke-width="1.5" stroke-linecap="round" stroke-linejoin="round"/>
<path d="M10.4399 10.905C10.7589 11.408 11.1679 11.906 11.6299 12.368L11.6319 12.37C12.0939 12.832 12.5919 13.241 13.0949 13.56" stroke="#EDC6BA" stroke-width="1.5" stroke-linecap="round" stroke-linejoin="round"/>
</svg>
