<svg width="833" height="128" viewBox="0 0 833 128" fill="none" xmlns="http://www.w3.org/2000/svg">
<g opacity="0.45">
<path d="M2.72983 7.85013V7.76013C3.19983 9.10013 3.80983 10.6501 4.56983 12.4101L15.4898 38.8601L17.1298 34.6601C17.1298 34.6601 17.0998 34.5901 17.0798 34.5501L3.97983 3.38013H0.949829L2.72983 7.84015V7.85013Z" stroke="#1E262D" stroke-width="0.5" stroke-miterlimit="10"/>
<path d="M0.0298729 8.89014L-6.13013 46.5701H-3.05013L1.92987 13.7401L0.0298729 8.89014Z" stroke="#1E262D" stroke-width="0.5" stroke-miterlimit="10"/>
<path d="M33.2998 7.82007L20.7298 34.6201C19.5498 37.0501 17.0798 42.7201 17.0798 42.7201L20.1398 42.6701L33.9698 13.0901L33.2998 7.83008V7.82007Z" stroke="#1E262D" stroke-width="0.5" stroke-miterlimit="10"/>
<path d="M38.4198 3.39014H35.5798L41.7998 46.5701H44.9498L38.4198 3.39014Z" stroke="#1E262D" stroke-width="0.5" stroke-miterlimit="10"/>
</g>
<g opacity="0.45">
<path d="M104.33 61.0501V60.9601C104.8 62.3001 105.41 63.8501 106.17 65.6101L117.09 92.0601L118.73 87.8601C118.73 87.8601 118.7 87.7901 118.69 87.7501L105.59 56.5801H102.56L104.34 61.0401L104.33 61.0501Z" stroke="#1E262D" stroke-width="0.5" stroke-miterlimit="10"/>
<path d="M101.64 62.0901L95.47 99.7701H98.56L103.53 66.9401L101.64 62.0901Z" stroke="#1E262D" stroke-width="0.5" stroke-miterlimit="10"/>
<path d="M134.9 61.02L122.33 87.82C121.15 90.25 118.68 95.92 118.68 95.92L121.74 95.87L135.57 66.29L134.9 61.03V61.02Z" stroke="#1E262D" stroke-width="0.5" stroke-miterlimit="10"/>
<path d="M140.02 56.5901H137.19L143.41 99.7701H146.55L140.02 56.5901Z" stroke="#1E262D" stroke-width="0.5" stroke-miterlimit="10"/>
</g>
<g opacity="0.45">
<path d="M76.8698 99.28L60.7898 1H63.7798L79.6298 99.28H76.8698Z" stroke="#1E262D" stroke-width="0.5" stroke-miterlimit="10"/>
</g>
<g opacity="0.45">
<path d="M163.15 99.28L179.24 1H176.25L160.39 99.28H163.15Z" stroke="#1E262D" stroke-width="0.5" stroke-miterlimit="10"/>
</g>
<g opacity="0.45">
<path d="M199.42 7.85013V7.76013C199.89 9.10013 200.5 10.6501 201.26 12.4101L212.18 38.8601L213.82 34.6601C213.82 34.6601 213.79 34.5901 213.78 34.5501L200.68 3.38013H197.65L199.43 7.84015L199.42 7.85013Z" stroke="#1E262D" stroke-width="0.5" stroke-miterlimit="10"/>
<path d="M196.73 8.89014L190.56 46.5701H193.64L198.62 13.7401L196.73 8.89014Z" stroke="#1E262D" stroke-width="0.5" stroke-miterlimit="10"/>
<path d="M229.99 7.82007L217.42 34.6201C216.24 37.0501 213.77 42.7201 213.77 42.7201L216.84 42.6701L230.67 13.0901L230 7.83008L229.99 7.82007Z" stroke="#1E262D" stroke-width="0.5" stroke-miterlimit="10"/>
<path d="M235.11 3.39014H232.27L238.49 46.5701H241.64L235.11 3.39014Z" stroke="#1E262D" stroke-width="0.5" stroke-miterlimit="10"/>
</g>
<g opacity="0.45">
<path d="M270.03 99.28L253.94 1H256.93L272.79 99.28H270.03Z" stroke="#1E262D" stroke-width="0.5" stroke-miterlimit="10"/>
</g>
<g opacity="0.45">
<path d="M300.32 61.0501V60.9601C300.79 62.3001 301.4 63.8501 302.16 65.6101L313.08 92.0601L314.72 87.8601C314.72 87.8601 314.69 87.7901 314.67 87.7501L301.57 56.5801H298.54L300.32 61.0401V61.0501Z" stroke="#1E262D" stroke-width="0.5" stroke-miterlimit="10"/>
<path d="M297.63 62.0901L291.46 99.7701H294.55L299.52 66.9401L297.63 62.0901Z" stroke="#1E262D" stroke-width="0.5" stroke-miterlimit="10"/>
<path d="M330.89 61.02L318.32 87.82C317.14 90.25 314.67 95.92 314.67 95.92L317.74 95.87L331.56 66.29L330.89 61.03V61.02Z" stroke="#1E262D" stroke-width="0.5" stroke-miterlimit="10"/>
<path d="M336.01 56.5901H333.18L339.4 99.7701H342.54L336.01 56.5901Z" stroke="#1E262D" stroke-width="0.5" stroke-miterlimit="10"/>
</g>
<g opacity="0.45">
<path d="M359.14 99.28L375.23 1H372.24L356.38 99.28H359.14Z" stroke="#1E262D" stroke-width="0.5" stroke-miterlimit="10"/>
</g>
<g opacity="0.45">
<path d="M395.41 7.85013V7.76013C395.88 9.10013 396.49 10.6501 397.25 12.4101L408.17 38.8601L409.81 34.6601C409.81 34.6601 409.78 34.5901 409.76 34.5501L396.66 3.38013H393.63L395.41 7.84015V7.85013Z" stroke="#1E262D" stroke-width="0.5" stroke-miterlimit="10"/>
<path d="M392.72 8.89014L386.55 46.5701H389.63L394.61 13.7401L392.72 8.89014Z" stroke="#1E262D" stroke-width="0.5" stroke-miterlimit="10"/>
<path d="M425.98 7.82007L413.41 34.6201C412.23 37.0501 409.76 42.7201 409.76 42.7201L412.83 42.6701L426.65 13.0901L425.98 7.83008V7.82007Z" stroke="#1E262D" stroke-width="0.5" stroke-miterlimit="10"/>
<path d="M431.1 3.39014H428.26L434.48 46.5701H437.63L431.1 3.39014Z" stroke="#1E262D" stroke-width="0.5" stroke-miterlimit="10"/>
</g>
<g opacity="0.45">
<path d="M466.02 99.28L449.93 1H452.92L468.78 99.28H466.02Z" stroke="#1E262D" stroke-width="0.5" stroke-miterlimit="10"/>
</g>
<g opacity="0.45">
<path d="M2.72983 110.2V110.11C3.19983 111.45 3.80983 113 4.56983 114.76L15.4898 141.21L17.1298 137.01C17.1298 137.01 17.0998 136.94 17.0798 136.9L3.97983 105.73H0.949829L2.72983 110.19V110.2Z" stroke="#1E262D" stroke-width="0.5" stroke-miterlimit="10"/>
<path d="M0.0298729 111.25L-6.13013 148.92H-3.05013L1.92987 116.09L0.0298729 111.25Z" stroke="#1E262D" stroke-width="0.5" stroke-miterlimit="10"/>
<path d="M33.2998 110.17L20.7298 136.97C19.5498 139.4 17.0798 145.07 17.0798 145.07L20.1398 145.02L33.9698 115.43L33.2998 110.17Z" stroke="#1E262D" stroke-width="0.5" stroke-miterlimit="10"/>
<path d="M38.4198 105.74H35.5798L41.7998 148.92H44.9498L38.4198 105.74Z" stroke="#1E262D" stroke-width="0.5" stroke-miterlimit="10"/>
</g>
<g opacity="0.45">
<path d="M76.8698 201.63L60.7898 103.35H63.7798L79.6298 201.63H76.8698Z" stroke="#1E262D" stroke-width="0.5" stroke-miterlimit="10"/>
</g>
<g opacity="0.45">
<path d="M163.15 201.63L179.24 103.35H176.25L160.39 201.63H163.15Z" stroke="#1E262D" stroke-width="0.5" stroke-miterlimit="10"/>
</g>
<g opacity="0.45">
<path d="M199.42 110.2V110.11C199.89 111.45 200.5 113 201.26 114.76L212.18 141.21L213.82 137.01C213.82 137.01 213.79 136.94 213.78 136.9L200.68 105.73H197.65L199.43 110.19L199.42 110.2Z" stroke="#1E262D" stroke-width="0.5" stroke-miterlimit="10"/>
<path d="M196.73 111.25L190.56 148.92H193.64L198.62 116.09L196.73 111.25Z" stroke="#1E262D" stroke-width="0.5" stroke-miterlimit="10"/>
<path d="M229.99 110.17L217.42 136.97C216.24 139.4 213.77 145.07 213.77 145.07L216.84 145.02L230.67 115.43L230 110.17H229.99Z" stroke="#1E262D" stroke-width="0.5" stroke-miterlimit="10"/>
<path d="M235.11 105.74H232.27L238.49 148.92H241.64L235.11 105.74Z" stroke="#1E262D" stroke-width="0.5" stroke-miterlimit="10"/>
</g>
<g opacity="0.45">
<path d="M270.03 201.63L253.94 103.35H256.93L272.79 201.63H270.03Z" stroke="#1E262D" stroke-width="0.5" stroke-miterlimit="10"/>
</g>
<g opacity="0.45">
<path d="M359.14 201.63L375.23 103.35H372.24L356.38 201.63H359.14Z" stroke="#1E262D" stroke-width="0.5" stroke-miterlimit="10"/>
</g>
<g opacity="0.45">
<path d="M395.41 110.2V110.11C395.88 111.45 396.49 113 397.25 114.76L408.17 141.21L409.81 137.01C409.81 137.01 409.78 136.94 409.76 136.9L396.66 105.73H393.63L395.41 110.19V110.2Z" stroke="#1E262D" stroke-width="0.5" stroke-miterlimit="10"/>
<path d="M392.72 111.25L386.55 148.92H389.63L394.61 116.09L392.72 111.25Z" stroke="#1E262D" stroke-width="0.5" stroke-miterlimit="10"/>
<path d="M425.98 110.17L413.41 136.97C412.23 139.4 409.76 145.07 409.76 145.07L412.83 145.02L426.65 115.43L425.98 110.17Z" stroke="#1E262D" stroke-width="0.5" stroke-miterlimit="10"/>
<path d="M431.1 105.74H428.26L434.48 148.92H437.63L431.1 105.74Z" stroke="#1E262D" stroke-width="0.5" stroke-miterlimit="10"/>
</g>
<g opacity="0.45">
<path d="M466.02 201.63L449.93 103.35H452.92L468.78 201.63H466.02Z" stroke="#1E262D" stroke-width="0.5" stroke-miterlimit="10"/>
</g>
<g opacity="0.45">
<path d="M492.95 61.0501V60.9601C493.42 62.3001 494.03 63.8501 494.79 65.6101L505.71 92.0601L507.35 87.8601C507.35 87.8601 507.32 87.7901 507.31 87.7501L494.21 56.5801H491.18L492.96 61.0401L492.95 61.0501Z" stroke="#1E262D" stroke-width="0.5" stroke-miterlimit="10"/>
<path d="M490.26 62.0901L484.09 99.7701H487.17L492.15 66.9401L490.26 62.0901Z" stroke="#1E262D" stroke-width="0.5" stroke-miterlimit="10"/>
<path d="M523.52 61.02L510.95 87.82C509.78 90.25 507.3 95.92 507.3 95.92L510.37 95.87L524.2 66.29L523.53 61.03L523.52 61.02Z" stroke="#1E262D" stroke-width="0.5" stroke-miterlimit="10"/>
<path d="M528.64 56.5901H525.8L532.03 99.7701H535.17L528.64 56.5901Z" stroke="#1E262D" stroke-width="0.5" stroke-miterlimit="10"/>
</g>
<g opacity="0.45">
<path d="M551.77 99.28L567.85 1H564.87L549.01 99.28H551.77Z" stroke="#1E262D" stroke-width="0.5" stroke-miterlimit="10"/>
</g>
<g opacity="0.45">
<path d="M588.03 7.85013V7.76013C588.5 9.10013 589.11 10.6501 589.87 12.4101L600.79 38.8601L602.43 34.6601C602.43 34.6601 602.4 34.5901 602.38 34.5501L589.28 3.38013H586.25L588.03 7.84015V7.85013Z" stroke="#1E262D" stroke-width="0.5" stroke-miterlimit="10"/>
<path d="M585.34 8.89014L579.18 46.5701H582.26L587.24 13.7401L585.34 8.89014Z" stroke="#1E262D" stroke-width="0.5" stroke-miterlimit="10"/>
<path d="M618.61 7.82007L606.04 34.6201C604.87 37.0501 602.39 42.7201 602.39 42.7201L605.46 42.6701L619.29 13.0901L618.62 7.83008L618.61 7.82007Z" stroke="#1E262D" stroke-width="0.5" stroke-miterlimit="10"/>
<path d="M623.73 3.39014H620.89L627.11 46.5701H630.26L623.73 3.39014Z" stroke="#1E262D" stroke-width="0.5" stroke-miterlimit="10"/>
</g>
<g opacity="0.45">
<path d="M658.65 99.28L642.56 1H645.55L661.4 99.28H658.65Z" stroke="#1E262D" stroke-width="0.5" stroke-miterlimit="10"/>
</g>
<g opacity="0.45">
<path d="M688.94 61.0501V60.9601C689.41 62.3001 690.02 63.8501 690.78 65.6101L701.7 92.0601L703.34 87.8601C703.34 87.8601 703.31 87.7901 703.29 87.7501L690.19 56.5801H687.16L688.94 61.0401V61.0501Z" stroke="#1E262D" stroke-width="0.5" stroke-miterlimit="10"/>
<path d="M686.25 62.0901L680.08 99.7701H683.16L688.14 66.9401L686.25 62.0901Z" stroke="#1E262D" stroke-width="0.5" stroke-miterlimit="10"/>
<path d="M719.51 61.02L706.94 87.82C705.77 90.25 703.29 95.92 703.29 95.92L706.36 95.87L720.19 66.29L719.52 61.03L719.51 61.02Z" stroke="#1E262D" stroke-width="0.5" stroke-miterlimit="10"/>
<path d="M724.63 56.5901H721.79L728.02 99.7701H731.16L724.63 56.5901Z" stroke="#1E262D" stroke-width="0.5" stroke-miterlimit="10"/>
</g>
<g opacity="0.45">
<path d="M747.76 99.28L763.84 1H760.86L745 99.28H747.76Z" stroke="#1E262D" stroke-width="0.5" stroke-miterlimit="10"/>
</g>
<g opacity="0.45">
<path d="M784.02 7.85013V7.76013C784.49 9.10013 785.1 10.6501 785.86 12.4101L796.78 38.8601L798.42 34.6601C798.42 34.6601 798.39 34.5901 798.37 34.5501L785.27 3.38013H782.24L784.02 7.84015V7.85013Z" stroke="#1E262D" stroke-width="0.5" stroke-miterlimit="10"/>
<path d="M781.33 8.89014L775.17 46.5701H778.25L783.23 13.7401L781.33 8.89014Z" stroke="#1E262D" stroke-width="0.5" stroke-miterlimit="10"/>
<path d="M814.59 7.82007L802.02 34.6201C800.85 37.0501 798.37 42.7201 798.37 42.7201L801.44 42.6701L815.27 13.0901L814.6 7.83008L814.59 7.82007Z" stroke="#1E262D" stroke-width="0.5" stroke-miterlimit="10"/>
<path d="M819.72 3.39014H816.88L823.1 46.5701H826.25L819.72 3.39014Z" stroke="#1E262D" stroke-width="0.5" stroke-miterlimit="10"/>
</g>
<g opacity="0.45">
<path d="M551.77 201.63L567.85 103.35H564.87L549.01 201.63H551.77Z" stroke="#1E262D" stroke-width="0.5" stroke-miterlimit="10"/>
</g>
<g opacity="0.45">
<path d="M588.03 110.2V110.11C588.5 111.45 589.11 113 589.87 114.76L600.79 141.21L602.43 137.01C602.43 137.01 602.4 136.94 602.38 136.9L589.28 105.73H586.25L588.03 110.19V110.2Z" stroke="#1E262D" stroke-width="0.5" stroke-miterlimit="10"/>
<path d="M585.34 111.25L579.18 148.92H582.26L587.24 116.09L585.34 111.25Z" stroke="#1E262D" stroke-width="0.5" stroke-miterlimit="10"/>
<path d="M618.61 110.17L606.04 136.97C604.87 139.4 602.39 145.07 602.39 145.07L605.46 145.02L619.29 115.43L618.62 110.17H618.61Z" stroke="#1E262D" stroke-width="0.5" stroke-miterlimit="10"/>
<path d="M623.73 105.74H620.89L627.11 148.92H630.26L623.73 105.74Z" stroke="#1E262D" stroke-width="0.5" stroke-miterlimit="10"/>
</g>
<g opacity="0.45">
<path d="M658.65 201.63L642.56 103.35H645.55L661.4 201.63H658.65Z" stroke="#1E262D" stroke-width="0.5" stroke-miterlimit="10"/>
</g>
<g opacity="0.45">
<path d="M747.76 201.63L763.84 103.35H760.86L745 201.63H747.76Z" stroke="#1E262D" stroke-width="0.5" stroke-miterlimit="10"/>
</g>
<g opacity="0.45">
<path d="M784.02 110.2V110.11C784.49 111.45 785.1 113 785.86 114.76L796.78 141.21L798.42 137.01C798.42 137.01 798.39 136.94 798.37 136.9L785.27 105.73H782.24L784.02 110.19V110.2Z" stroke="#1E262D" stroke-width="0.5" stroke-miterlimit="10"/>
<path d="M781.33 111.25L775.17 148.92H778.25L783.23 116.09L781.33 111.25Z" stroke="#1E262D" stroke-width="0.5" stroke-miterlimit="10"/>
<path d="M814.59 110.17L802.02 136.97C800.85 139.4 798.37 145.07 798.37 145.07L801.44 145.02L815.27 115.43L814.6 110.17H814.59Z" stroke="#1E262D" stroke-width="0.5" stroke-miterlimit="10"/>
<path d="M819.72 105.74H816.88L823.1 148.92H826.25L819.72 105.74Z" stroke="#1E262D" stroke-width="0.5" stroke-miterlimit="10"/>
</g>
</svg>
