<svg width="19" height="19" viewBox="0 0 19 19" fill="none" xmlns="http://www.w3.org/2000/svg">
<path fill-rule="evenodd" clip-rule="evenodd" d="M5.88436 2.35498H12.9564C14.9048 2.35498 16.485 3.9344 16.485 5.88434V12.9564C16.485 14.9048 14.9056 16.485 12.9556 16.485H5.88436C3.9352 16.485 2.355 14.9056 2.355 12.9556V5.88434C2.355 3.93519 3.93442 2.35498 5.88436 2.35498V2.35498Z" stroke="#2F3A44" stroke-width="1.5" stroke-linecap="round" stroke-linejoin="round"/>
<path d="M13.305 5.26965C13.159 5.27044 13.0404 5.38897 13.0404 5.53498C13.0404 5.68099 13.1597 5.79953 13.3057 5.79953C13.4518 5.79953 13.5703 5.68099 13.5703 5.53498C13.5711 5.38819 13.4518 5.26965 13.305 5.26965" stroke="#2F3A44" stroke-width="1.5" stroke-linecap="round" stroke-linejoin="round"/>
<path d="M11.4183 7.42196C12.5219 8.52558 12.5219 10.3149 11.4183 11.4185C10.3147 12.5221 8.52535 12.5221 7.42173 11.4185C6.3181 10.3149 6.3181 8.52558 7.42173 7.42196C8.52535 6.31833 10.3147 6.31833 11.4183 7.42196" stroke="#2F3A44" stroke-width="1.5" stroke-linecap="round" stroke-linejoin="round"/>
</svg>
