<svg width="20" height="20" viewBox="0 0 20 20" fill="none" xmlns="http://www.w3.org/2000/svg">
<path fill-rule="evenodd" clip-rule="evenodd" d="M8.04799 11.869C6.87799 10.699 5.99599 9.38897 5.40999 8.05997C5.28599 7.77897 5.35899 7.44997 5.57599 7.23297L6.39499 6.41397C7.06599 5.74297 7.06599 4.79397 6.47999 4.20797L5.30599 3.03497C4.52499 2.25397 3.25899 2.25397 2.47799 3.03497L1.82599 3.68597C1.08499 4.42697 0.775995 5.49597 0.975995 6.55597C1.46999 9.16897 2.98799 12.03 5.43699 14.479C7.88599 16.928 10.747 18.446 13.36 18.94C14.42 19.14 15.489 18.831 16.23 18.09L16.881 17.439C17.662 16.658 17.662 15.392 16.881 14.611L15.708 13.438C15.122 12.852 14.172 12.852 13.587 13.438L12.684 14.342C12.467 14.559 12.138 14.632 11.857 14.508C10.528 13.921 9.21799 13.038 8.04799 11.869Z" stroke="#C98D8B" stroke-width="1.5" stroke-linecap="round" stroke-linejoin="round"/>
<path d="M10.92 3.17008V0.830078" stroke="#C98D8B" stroke-width="1.5" stroke-linecap="round" stroke-linejoin="round"/>
<path d="M15.09 4.82018L16.74 3.18018" stroke="#C98D8B" stroke-width="1.5" stroke-linecap="round" stroke-linejoin="round"/>
<path d="M16.75 9H19.08" stroke="#C98D8B" stroke-width="1.5" stroke-linecap="round" stroke-linejoin="round"/>
</svg>
