<svg width="14" height="14" viewBox="0 0 14 14" fill="none" xmlns="http://www.w3.org/2000/svg">
<path fill-rule="evenodd" clip-rule="evenodd" d="M12.4754 3.78459C12.3446 3.21087 11.9572 2.7583 11.4646 2.60287C10.5737 2.32458 6.99944 2.32458 6.99944 2.32458C6.99944 2.32458 3.42687 2.32458 2.5343 2.60287C2.04344 2.75601 1.65601 3.20859 1.52344 3.78459C1.28516 4.82573 1.28516 7.00001 1.28516 7.00001C1.28516 7.00001 1.28516 9.1743 1.52344 10.2154C1.6543 10.7892 2.04173 11.2417 2.5343 11.3972C3.42687 11.6754 6.99944 11.6754 6.99944 11.6754C6.99944 11.6754 10.5737 11.6754 11.4646 11.3972C11.9554 11.244 12.3429 10.7914 12.4754 10.2154C12.7137 9.1743 12.7137 7.00001 12.7137 7.00001C12.7137 7.00001 12.7137 4.82573 12.4754 3.78459Z" stroke="#EBEDEE" stroke-width="1.5" stroke-linecap="round" stroke-linejoin="round"/>
<path fill-rule="evenodd" clip-rule="evenodd" d="M5.85742 8.71428L8.82656 6.99999L5.85742 5.28571V8.71428Z" stroke="#EBEDEE" stroke-width="1.5" stroke-linecap="round" stroke-linejoin="round"/>
</svg>
