<svg width="20" height="19" viewBox="0 0 20 19" fill="none" xmlns="http://www.w3.org/2000/svg">
<path fill-rule="evenodd" clip-rule="evenodd" d="M17.6227 5.00275C17.4429 4.21461 16.9107 3.59289 16.234 3.37937C15.0102 2.99707 10.1 2.99707 10.1 2.99707C10.1 2.99707 5.19218 2.99707 3.96601 3.37937C3.2917 3.58975 2.75947 4.21147 2.57735 5.00275C2.25 6.43302 2.25 9.41994 2.25 9.41994C2.25 9.41994 2.25 12.4069 2.57735 13.8371C2.75711 14.6253 3.28934 15.247 3.96601 15.4605C5.19218 15.8428 10.1 15.8428 10.1 15.8428C10.1 15.8428 15.0102 15.8428 16.234 15.4605C16.9083 15.2501 17.4405 14.6284 17.6227 13.8371C17.95 12.4069 17.95 9.41994 17.95 9.41994C17.95 9.41994 17.95 6.43302 17.6227 5.00275Z" stroke="#2F3A44" stroke-width="1.5" stroke-linecap="round" stroke-linejoin="round"/>
<path fill-rule="evenodd" clip-rule="evenodd" d="M8.53156 11.7749L12.6104 9.41994L8.53156 7.06494V11.7749Z" stroke="#2F3A44" stroke-width="1.5" stroke-linecap="round" stroke-linejoin="round"/>
</svg>
