<svg width="44" height="38" viewBox="0 0 44 38" fill="none" xmlns="http://www.w3.org/2000/svg">
<path fill-rule="evenodd" clip-rule="evenodd" d="M17.9693 0L19.9568 2.90938L19.541 3.15234C16.7719 4.77046 14.6469 6.64728 13.1486 8.77597L13.1461 8.77954L13.1435 8.78307C10.3549 12.5854 9.01185 15.8693 9.01185 18.6516C9.01185 19.484 9.23734 20.0292 9.61452 20.3743C9.99976 20.7267 10.6211 20.9425 11.5603 20.9425C13.7756 20.9425 15.7014 21.8195 17.319 23.5389C19.0359 25.1752 19.8989 27.2079 19.8989 29.6082C19.8989 32.0128 19.0328 34.0485 17.3097 35.6863L17.3091 35.6868C15.6626 37.2464 13.4094 38 10.6077 38C7.74172 38 5.30752 36.79 3.32613 34.4161L3.3227 34.412L3.31937 34.4078C1.42435 32.0239 0.5 28.8563 0.5 24.9517C0.5 19.5263 1.93 14.7331 4.79867 10.5888C7.66451 6.44872 11.9492 2.98038 17.6237 0.171071L17.9693 0ZM17.0038 23.856C15.4615 22.2125 13.647 21.3908 11.5603 21.3908C9.56437 21.3908 8.56639 20.4777 8.56639 18.6516C8.56639 15.7299 9.97263 12.3516 12.7851 8.51683C14.2564 6.4264 16.3057 4.58523 18.933 2.99334C19.0598 2.91653 19.1879 2.8403 19.3173 2.76465L17.8204 0.573343C6.57043 6.14292 0.945465 14.269 0.945465 24.9517C0.945465 28.7864 1.85272 31.8452 3.66722 34.1278C5.57245 36.4104 7.88595 37.5517 10.6077 37.5517C13.3295 37.5517 15.4615 36.8213 17.0038 35.3604C18.6369 33.8082 19.4534 31.8908 19.4534 29.6082C19.4534 27.3256 18.6369 25.4082 17.0038 23.856ZM41.5125 0L43.5 2.90938L43.0842 3.15234C40.3151 4.77046 38.1901 6.64728 36.6918 8.77597L36.6893 8.77954L36.6867 8.78307C33.8981 12.5854 32.5551 15.8693 32.5551 18.6516C32.5551 19.484 32.7805 20.0292 33.1577 20.3743C33.543 20.7267 34.1643 20.9425 35.1035 20.9425C37.3189 20.9425 39.2447 21.8195 40.8622 23.5389C42.5792 25.1752 43.4421 27.2079 43.4421 29.6082C43.4421 32.0128 42.576 34.0485 40.8529 35.6863L40.8524 35.6868C39.2058 37.2464 36.9526 38 34.1509 38C31.2849 38 28.8507 36.79 26.8693 34.4161L26.8659 34.412L26.8626 34.4078C24.9676 32.0239 24.0432 28.8563 24.0432 24.9517C24.0432 19.5263 25.4732 14.7331 28.3419 10.5888C31.2077 6.44872 35.4924 2.98038 41.1669 0.171071L41.5125 0ZM40.547 23.856C39.0047 22.2125 37.1902 21.3908 35.1035 21.3908C33.1076 21.3908 32.1096 20.4777 32.1096 18.6516C32.1096 15.7299 33.5158 12.3516 36.3283 8.51683C37.7996 6.4264 39.8489 4.58523 42.4762 2.99334C42.603 2.91653 42.7311 2.8403 42.8605 2.76465L41.3636 0.573343C30.1136 6.14292 24.4887 14.269 24.4887 24.9517C24.4887 28.7864 25.3959 31.8452 27.2104 34.1278C29.1157 36.4104 31.4292 37.5517 34.1509 37.5517C36.8727 37.5517 39.0047 36.8213 40.547 35.3604C42.1801 33.8082 42.9966 31.8908 42.9966 29.6082C42.9966 27.3256 42.1801 25.4082 40.547 23.856Z" fill="#C98D8B"/>
</svg>
