<svg width="14" height="14" viewBox="0 0 14 14" fill="none" xmlns="http://www.w3.org/2000/svg">
<path d="M3.21427 11.189C2.8949 10.8366 2.6469 10.4223 2.48242 9.97156C2.31796 9.52085 2.23965 9.04102 2.2511 8.55972L2.25118 8.55624H2.25119C2.26548 8.05329 2.37913 7.55772 2.58623 7.10183C2.79338 6.64585 3.09018 6.23816 3.45995 5.90756C3.82989 5.57682 4.26445 5.33088 4.73614 5.1893C4.90272 5.1393 5.11199 5.11221 5.29069 5.09495C5.48505 5.07618 5.70368 5.06387 5.9172 5.05727C6.00475 5.05456 6.09538 5.05269 6.18635 5.05186V2.42859C6.18635 2.01438 6.52213 1.67859 6.93635 1.67859H8.38667C8.75792 1.67859 9.07331 1.95021 9.12837 2.31736C9.23668 3.03953 9.44074 3.3606 9.62222 3.52741C9.81207 3.70192 10.0857 3.81009 10.5552 3.89049C10.9153 3.95217 11.1786 4.26437 11.1786 4.62973V6.20497C11.1786 6.41529 11.0903 6.61595 10.9352 6.75801C10.7801 6.90008 10.5725 6.97049 10.363 6.95209C9.95748 6.91648 9.55974 6.83003 9.17758 6.69606V8.5924C9.17758 9.4213 8.9507 10.3385 8.39118 11.0672C7.81124 11.8226 6.91216 12.3214 5.71441 12.3214H5.7109V12.3214C5.24069 12.3192 4.77709 12.2165 4.34775 12.0208C3.91857 11.8252 3.53375 11.5415 3.21427 11.189ZM3.21427 11.189L3.76999 10.6853L3.21427 11.189ZM5.2196 9.90706L5.49642 9.21002C5.447 9.19039 5.39797 9.15805 5.35438 9.11169C5.31064 9.0652 5.27378 9.00599 5.24922 8.9366L4.54221 9.18689L5.24922 8.9366C5.22463 8.86715 5.21375 8.79128 5.21835 8.71474L5.21916 8.69811C5.22296 8.598 5.24769 8.50202 5.2895 8.41758C5.33125 8.33326 5.38792 8.26456 5.45197 8.21389C5.5135 8.16521 5.58067 8.134 5.64814 8.11897C5.64437 8.1199 5.64834 8.11964 5.66183 8.11874C5.68321 8.11732 5.7285 8.11431 5.80471 8.11198C5.91354 8.10866 6.04806 8.1075 6.18635 8.10874V8.65183C6.18635 8.67118 6.1871 8.69053 6.18859 8.70983C6.19456 8.78668 6.18473 8.86329 6.16077 8.93364L6.8363 9.16368L6.16077 8.93365C6.13683 9.00394 6.1002 9.06401 6.05644 9.11117C6.01283 9.15817 5.96362 9.19087 5.91405 9.21061C5.8647 9.23026 5.81394 9.23756 5.76442 9.23349C5.7249 9.23024 5.68518 9.23013 5.64565 9.23317C5.59623 9.23696 5.54563 9.22957 5.49642 9.21002L5.2196 9.90706Z" stroke="#EBEDEE" stroke-width="1.5" stroke-linecap="round" stroke-linejoin="round"/>
</svg>
