<svg width="14" height="14" viewBox="0 0 14 14" fill="none" xmlns="http://www.w3.org/2000/svg">
<path fill-rule="evenodd" clip-rule="evenodd" d="M4.28399 1.71423H9.43199C10.8503 1.71423 12.0006 2.86395 12.0006 4.28338V9.43138C12.0006 10.8497 10.8508 11.9999 9.43141 11.9999H4.28399C2.86513 11.9999 1.71484 10.8502 1.71484 9.4308V4.28338C1.71484 2.86452 2.86456 1.71423 4.28399 1.71423V1.71423Z" stroke="#EBEDEE" stroke-width="1.5" stroke-linecap="round" stroke-linejoin="round"/>
<path d="M9.68582 3.83602C9.57953 3.83659 9.49325 3.92288 9.49325 4.02916C9.49325 4.13545 9.5801 4.22174 9.68639 4.22174C9.79267 4.22174 9.87896 4.13545 9.87896 4.02916C9.87953 3.92231 9.79267 3.83602 9.68582 3.83602" stroke="#EBEDEE" stroke-width="1.5" stroke-linecap="round" stroke-linejoin="round"/>
<path d="M8.31255 5.40257C9.11591 6.20594 9.11591 7.50845 8.31255 8.31181C7.50918 9.11518 6.20667 9.11518 5.40331 8.31181C4.59994 7.50845 4.59994 6.20594 5.40331 5.40257C6.20667 4.59921 7.50918 4.59921 8.31255 5.40257" stroke="#EBEDEE" stroke-width="1.5" stroke-linecap="round" stroke-linejoin="round"/>
</svg>
