<svg width="20" height="19" viewBox="0 0 20 19" fill="none" xmlns="http://www.w3.org/2000/svg">
<path d="M9.42254 7.02411C9.21208 7.02214 8.99185 7.02495 8.78115 7.03146C8.49213 7.04039 8.19812 7.05702 7.93876 7.08207C7.69506 7.10561 7.43117 7.14094 7.23059 7.20114C6.62293 7.38353 6.06201 7.70069 5.58367 8.12834L6.08355 8.68747L5.58367 8.12834C5.10549 8.55586 4.72071 9.08398 4.45178 9.67594C4.1829 10.2678 4.03509 10.9119 4.0165 11.566L4.01649 11.566L4.01641 11.5694C4.00151 12.1959 4.10347 12.8202 4.31729 13.4062L5.01807 13.1505L4.31729 13.4062C4.53113 13.9922 4.85321 14.5299 5.26704 14.9865C5.68097 15.4432 6.17873 15.8099 6.73269 16.0624C7.28683 16.3149 7.88457 16.4473 8.49039 16.4501V16.4501H8.4939C10.0531 16.4501 11.2057 15.8046 11.9488 14.8368C12.6715 13.8955 12.9711 12.7 12.9711 11.6077V8.59424C13.5866 8.85349 14.2378 9.01652 14.9044 9.07506C15.1139 9.09346 15.3215 9.02305 15.4766 8.88098C15.6317 8.73892 15.72 8.53826 15.72 8.32794V6.16396C15.72 5.79859 15.4567 5.48639 15.0966 5.42472C14.435 5.31142 13.9937 5.15118 13.6726 4.85602C13.3598 4.56856 13.061 4.05826 12.9066 3.0289C12.8516 2.66175 12.5362 2.39014 12.1649 2.39014H10.1725C9.75833 2.39014 9.42254 2.72592 9.42254 3.14014V7.02411ZM9.14933 13.4141L8.87186 12.7174C8.76423 12.7602 8.65118 12.7769 8.53966 12.7677C8.50014 12.7645 8.46042 12.7644 8.42088 12.7674C8.31009 12.7759 8.19789 12.7591 8.09098 12.7166C7.98386 12.6741 7.88239 12.6059 7.79512 12.5131C7.70772 12.4202 7.63698 12.3051 7.5906 12.1741C7.5442 12.043 7.52408 11.9012 7.53263 11.7589L7.53345 11.7423C7.54013 11.5658 7.58373 11.3951 7.65897 11.2431C7.73417 11.0913 7.838 10.9639 7.95947 10.8679C8.08067 10.772 8.21669 10.7092 8.35674 10.6805C8.35421 10.681 8.35751 10.6808 8.36733 10.68C8.39429 10.6778 8.47038 10.6718 8.6094 10.6675C8.77335 10.6625 8.9766 10.661 9.18248 10.6633C9.26397 10.6642 9.34472 10.6657 9.42254 10.6678V11.6893C9.42254 11.7087 9.42329 11.728 9.42479 11.7473C9.4359 11.8905 9.4177 12.0339 9.37244 12.1668C9.3272 12.2997 9.25683 12.4166 9.16925 12.511C9.0818 12.6052 8.97971 12.6744 8.87186 12.7174L9.14933 13.4141Z" stroke="#2F3A44" stroke-width="1.5" stroke-linecap="round" stroke-linejoin="round"/>
</svg>
