<svg width="284" height="82" viewBox="0 0 284 82" fill="none" xmlns="http://www.w3.org/2000/svg">
<g clip-path="url(#clip0_28_91)">
<path d="M283.46 62.36H0V0H283.46V62.36ZM0.57 61.8H282.9V0.56H0.57V61.8Z" fill="#C98D8B"/>
<path d="M34.22 41.07C31.44 41.07 29.04 40.12 27.04 38.22C25.04 36.32 24.04 33.97 24.04 31.18C24.04 28.39 24.91 26.04 26.66 24.14C28.41 22.24 30.65 21.29 33.38 21.29C35.52 21.29 37.69 21.65 39.89 22.36L39.54 23.43C37.4 22.79 35.35 22.47 33.38 22.47C31.04 22.47 29.13 23.31 27.65 24.99C26.17 26.67 25.43 28.72 25.43 31.15C25.43 33.58 26.29 35.64 28.01 37.35C29.73 39.05 31.8 39.91 34.21 39.91C36.32 39.91 38.14 39.59 39.67 38.95L40.07 39.86C39.39 40.25 38.5 40.56 37.41 40.77C36.31 40.98 35.25 41.09 34.21 41.09L34.22 41.07Z" fill="#1E262D"/>
<path d="M46.99 40.75V21.61H48.27V39.58H57.08V40.76H46.99V40.75Z" fill="#1E262D"/>
<path d="M63.0801 40.75V21.61H64.3601V40.75H63.0801Z" fill="#1E262D"/>
<path d="M98.6101 40.75V21.61H99.8901V40.75H98.6101Z" fill="#1E262D"/>
<path d="M117.89 41.07C115.11 41.07 112.71 40.12 110.71 38.22C108.71 36.32 107.71 33.97 107.71 31.18C107.71 28.39 108.58 26.04 110.33 24.14C112.08 22.24 114.32 21.29 117.05 21.29C119.19 21.29 121.36 21.65 123.56 22.36L123.21 23.43C121.07 22.79 119.02 22.47 117.05 22.47C114.71 22.47 112.8 23.31 111.32 24.99C109.84 26.67 109.1 28.72 109.1 31.15C109.1 33.58 109.96 35.64 111.68 37.35C113.4 39.05 115.47 39.91 117.88 39.91C119.99 39.91 121.81 39.59 123.34 38.95L123.74 39.86C123.06 40.25 122.17 40.56 121.08 40.77C119.98 40.98 118.92 41.09 117.88 41.09L117.89 41.07Z" fill="#1E262D"/>
<path d="M88.3801 21.61V32.52H88.3901V40.12L89.0801 40.91H89.6701V21.61H88.3801Z" fill="#1E262D"/>
<path d="M136.36 21.48H135.62L135.33 22.16L138.06 28.85L139.31 31.86L139.4 32.06L139.79 33.01L140.25 34.11L143 40.75H144.45L136.36 21.48Z" fill="#1E262D"/>
<path d="M131.69 34.11L132.15 33.01L135.09 25.89C135.2 25.63 135.32 25.33 135.44 25.01L134.8 23.46L127.57 40.75H128.94L131.7 34.11H131.69Z" fill="#1E262D"/>
<path d="M73.3101 24.0601V40.7501H74.6001V26.9401L74.5601 25.5901L73.3101 24.0601Z" fill="#1E262D"/>
<path d="M86.5101 35.9901L73.9001 21.4501H73.3101V22.4501L77.5401 27.6101L87.3701 38.9301V37.0001C87.1201 36.7001 86.8401 36.3601 86.5101 35.9701V35.9901Z" fill="#1E262D"/>
<path d="M188.84 40.75V21.61H190.13V40.75H188.84Z" fill="#1E262D"/>
<path d="M199.07 40.75V21.61H200.36V39.58H209.17V40.76H199.08L199.07 40.75Z" fill="#1E262D"/>
<path d="M215.16 40.75V21.61H216.45V40.75H215.16Z" fill="#1E262D"/>
<path d="M228.92 22.73H222.44V21.61H236.68V22.73H230.2V40.75H228.92V22.73Z" fill="#1E262D"/>
<path d="M243.26 38.21C241.48 36.3 240.6 33.95 240.6 31.17C240.6 28.39 241.49 26.04 243.26 24.14C245.04 22.24 247.28 21.29 249.99 21.29C252.7 21.29 254.95 22.24 256.74 24.14C258.52 26.04 259.42 28.38 259.42 31.17C259.42 33.96 258.53 36.3 256.74 38.21C254.95 40.12 252.71 41.07 249.99 41.07C247.27 41.07 245.03 40.12 243.26 38.21ZM244.21 24.97C242.73 26.64 241.99 28.71 241.99 31.17C241.99 33.63 242.73 35.7 244.23 37.38C245.72 39.06 247.65 39.9 250.01 39.9C252.37 39.9 254.3 39.06 255.79 37.38C257.28 35.7 258.03 33.63 258.03 31.17C258.03 28.71 257.28 26.64 255.79 24.97C254.3 23.3 252.37 22.47 249.99 22.47C247.61 22.47 245.69 23.3 244.21 24.97Z" fill="#1E262D"/>
<path d="M163.66 24.1901V24.1501C163.86 24.7201 164.12 25.3901 164.45 26.1401L169.12 37.4501L169.82 35.6601C169.82 35.6601 169.81 35.6301 169.8 35.6101L163.8 21.3501H163.05L162.9 22.2401L163.66 24.1801V24.1901Z" fill="#1E262D"/>
<path d="M162.51 24.6401L159.88 40.7501H161.19L163.32 26.7101L162.51 24.6401Z" fill="#1E262D"/>
<path d="M176.74 24.18L171.37 35.64C170.87 36.68 169.81 39.1 169.81 39.1L170.08 39.75H170.81L177.04 26.42L176.75 24.17L176.74 24.18Z" fill="#1E262D"/>
<path d="M178.79 21.3601H178.06L177.71 22.1001L180.37 40.7501H181.72L178.79 21.3601Z" fill="#1E262D"/>
<path d="M25.6001 75.44C25.9201 74.85 26.3701 74.4 26.9301 74.07C27.4901 73.74 28.1201 73.58 28.8101 73.58C29.6501 73.58 30.3701 73.78 30.9701 74.18C31.5701 74.58 32.0101 75.14 32.2801 75.87H31.4001C31.1801 75.36 30.8601 74.96 30.4101 74.67C29.9701 74.38 29.4301 74.24 28.8101 74.24C28.2601 74.24 27.7601 74.37 27.3201 74.63C26.8801 74.89 26.5301 75.26 26.2801 75.75C26.0301 76.24 25.9001 76.8 25.9001 77.44C25.9001 78.08 26.0301 78.64 26.2801 79.12C26.5301 79.6 26.8801 79.97 27.3201 80.23C27.7601 80.49 28.2601 80.62 28.8101 80.62C29.4301 80.62 29.9701 80.48 30.4101 80.19C30.8501 79.91 31.1801 79.51 31.4001 79.01H32.2801C32.0101 79.73 31.5701 80.29 30.9701 80.68C30.3701 81.07 29.6501 81.27 28.8101 81.27C28.1201 81.27 27.5001 81.11 26.9301 80.78C26.3701 80.45 25.9301 80 25.6001 79.42C25.2801 78.84 25.1201 78.18 25.1201 77.44C25.1201 76.7 25.2801 76.04 25.6001 75.45V75.44Z" fill="#1E262D"/>
<path d="M35.4402 73.6699V81.1999H34.6902V73.6699H35.4402Z" fill="#1E262D"/>
<path d="M42.0801 81.1999L40.2201 78.0499H38.8301V81.1999H38.0801V73.6699H40.3401C41.1801 73.6699 41.8201 73.8699 42.2501 74.2699C42.6801 74.6699 42.9001 75.1999 42.9001 75.8499C42.9001 76.3999 42.7401 76.8599 42.4301 77.2499C42.1201 77.6399 41.6601 77.8799 41.0501 77.9999L42.9901 81.1999H42.0801ZM38.8301 77.4399H40.3501C40.9401 77.4399 41.3801 77.2999 41.6801 77.0099C41.9801 76.7199 42.1301 76.3399 42.1301 75.8599C42.1301 75.3799 41.9901 74.9799 41.7001 74.7099C41.4101 74.4399 40.9601 74.3099 40.3401 74.3099H38.8301V77.4499V77.4399Z" fill="#1E262D"/>
<path d="M46.03 73.6699V78.4099C46.03 79.1599 46.21 79.7099 46.56 80.0699C46.92 80.4299 47.4 80.6099 48.02 80.6099C48.64 80.6099 49.12 80.4299 49.47 80.0799C49.82 79.7199 49.99 79.1699 49.99 78.4099V73.6699H50.74V78.3999C50.74 79.3599 50.49 80.0699 49.98 80.5599C49.47 81.0399 48.81 81.2799 48 81.2799C47.19 81.2799 46.53 81.0399 46.02 80.5599C45.51 80.0799 45.26 79.3599 45.26 78.3999V73.6699H46.01H46.03Z" fill="#1E262D"/>
<path d="M59.28 75.87C59.06 75.37 58.74 74.98 58.29 74.7C57.85 74.42 57.33 74.27 56.73 74.27C56.17 74.27 55.67 74.4 55.22 74.66C54.77 74.92 54.42 75.29 54.16 75.76C53.9 76.24 53.77 76.79 53.77 77.43C53.77 78.07 53.9 78.62 54.16 79.1C54.42 79.58 54.77 79.95 55.22 80.21C55.67 80.47 56.17 80.6 56.73 80.6C57.25 80.6 57.73 80.49 58.15 80.26C58.57 80.03 58.91 79.71 59.16 79.29C59.41 78.87 59.56 78.38 59.6 77.82H56.43V77.21H60.4V77.76C60.36 78.42 60.18 79.02 59.86 79.55C59.54 80.09 59.1 80.51 58.56 80.82C58.02 81.13 57.41 81.28 56.73 81.28C56.05 81.28 55.4 81.12 54.83 80.79C54.26 80.46 53.82 80.01 53.49 79.42C53.16 78.83 53 78.17 53 77.43C53 76.69 53.16 76.03 53.49 75.44C53.82 74.85 54.26 74.4 54.83 74.07C55.4 73.74 56.03 73.58 56.73 73.58C57.53 73.58 58.24 73.78 58.84 74.18C59.44 74.58 59.88 75.14 60.15 75.86H59.27L59.28 75.87Z" fill="#1E262D"/>
<path d="M64.0601 72.03L61.8501 73.31V72.73L64.0601 71.35V72.03ZM63.4501 73.67V81.2H62.7001V73.67H63.4501Z" fill="#1E262D"/>
<path d="M70.44 79.41H67.01L66.35 81.2H65.55L68.3 73.76H69.15L71.89 81.2H71.09L70.43 79.41H70.44ZM70.21 78.79L68.72 74.72L67.23 78.79H70.2H70.21Z" fill="#1E262D"/>
<path d="M82.0701 77.3999C81.6501 77.7999 81.0101 77.9899 80.1601 77.9899H78.6401V81.1999H77.8901V73.6699H80.1601C81.0001 73.6699 81.6301 73.8699 82.0601 74.2599C82.4901 74.6599 82.7001 75.1799 82.7001 75.8299C82.7001 76.4799 82.4901 76.9999 82.0601 77.3899L82.0701 77.3999ZM81.9301 75.8399C81.9301 75.3399 81.7901 74.9599 81.5101 74.6999C81.2301 74.4399 80.7801 74.3099 80.1601 74.3099H78.6401V77.3499H80.1601C81.3401 77.3499 81.9301 76.8499 81.9301 75.8399Z" fill="#1E262D"/>
<path d="M85.6301 80.5899H88.3401V81.1999H84.8801V73.6699H85.6301V80.5899Z" fill="#1E262D"/>
<path d="M94.7001 79.41H91.2701L90.6101 81.2H89.8101L92.5601 73.76H93.4101L96.1501 81.2H95.3501L94.6901 79.41H94.7001ZM94.4701 78.79L92.9801 74.72L91.4901 78.79H94.4601H94.4701ZM93.9901 72.03L91.7801 73.31V72.73L93.9901 71.35V72.03Z" fill="#1E262D"/>
<path d="M99.25 81.02C98.87 80.85 98.58 80.61 98.36 80.3C98.14 79.99 98.03 79.65 98.02 79.27H98.82C98.86 79.64 99.02 79.96 99.3 80.23C99.59 80.51 100.01 80.64 100.56 80.64C101.07 80.64 101.47 80.51 101.77 80.25C102.07 79.99 102.22 79.66 102.22 79.25C102.22 78.93 102.14 78.67 101.97 78.47C101.8 78.27 101.6 78.13 101.36 78.03C101.12 77.93 100.78 77.83 100.35 77.71C99.85 77.57 99.45 77.44 99.15 77.31C98.85 77.18 98.6 76.98 98.4 76.71C98.2 76.44 98.09 76.07 98.09 75.6C98.09 75.21 98.19 74.87 98.39 74.56C98.59 74.25 98.87 74.02 99.24 73.84C99.61 73.67 100.03 73.58 100.5 73.58C101.2 73.58 101.76 73.75 102.19 74.09C102.62 74.43 102.86 74.87 102.93 75.41H102.11C102.06 75.1 101.89 74.83 101.6 74.59C101.31 74.35 100.92 74.23 100.44 74.23C99.99 74.23 99.61 74.35 99.31 74.59C99.01 74.83 98.86 75.16 98.86 75.58C98.86 75.9 98.94 76.15 99.11 76.35C99.28 76.54 99.48 76.69 99.73 76.79C99.98 76.89 100.31 77 100.74 77.11C101.23 77.25 101.62 77.38 101.93 77.51C102.23 77.64 102.49 77.85 102.7 78.12C102.91 78.39 103.01 78.76 103.01 79.22C103.01 79.57 102.92 79.91 102.73 80.22C102.54 80.54 102.27 80.79 101.9 80.99C101.53 81.18 101.1 81.28 100.59 81.28C100.08 81.28 99.66 81.19 99.28 81.02H99.25Z" fill="#1E262D"/>
<path d="M109.76 73.6699V74.2899H107.67V81.1999H106.92V74.2899H104.82V73.6699H109.77H109.76Z" fill="#1E262D"/>
<path d="M112.63 73.6699V81.1999H111.88V73.6699H112.63Z" fill="#1E262D"/>
<path d="M115.4 75.44C115.72 74.85 116.17 74.4 116.73 74.07C117.29 73.74 117.92 73.58 118.61 73.58C119.45 73.58 120.17 73.78 120.77 74.18C121.37 74.58 121.81 75.14 122.08 75.87H121.2C120.98 75.36 120.66 74.96 120.21 74.67C119.77 74.38 119.23 74.24 118.61 74.24C118.06 74.24 117.56 74.37 117.12 74.63C116.68 74.89 116.33 75.26 116.08 75.75C115.83 76.24 115.7 76.8 115.7 77.44C115.7 78.08 115.83 78.64 116.08 79.12C116.33 79.6 116.68 79.97 117.12 80.23C117.56 80.49 118.06 80.62 118.61 80.62C119.23 80.62 119.77 80.48 120.21 80.19C120.65 79.91 120.98 79.51 121.2 79.01H122.08C121.81 79.73 121.37 80.29 120.77 80.68C120.17 81.07 119.45 81.27 118.61 81.27C117.92 81.27 117.3 81.11 116.73 80.78C116.17 80.45 115.73 80 115.4 79.42C115.08 78.84 114.92 78.18 114.92 77.44C114.92 76.7 115.08 76.04 115.4 75.45V75.44Z" fill="#1E262D"/>
<path d="M128.84 79.41H125.41L124.75 81.2H123.95L126.7 73.76H127.55L130.29 81.2H129.49L128.83 79.41H128.84ZM128.61 78.79L127.12 74.72L125.63 78.79H128.6H128.61Z" fill="#1E262D"/>
<path d="M142.02 81.2L141 80.15C140.63 80.55 140.24 80.85 139.83 81.04C139.42 81.23 138.94 81.33 138.42 81.33C137.9 81.33 137.47 81.23 137.08 81.04C136.69 80.85 136.39 80.58 136.17 80.24C135.95 79.9 135.85 79.5 135.85 79.04C135.85 78.51 136 78.05 136.3 77.65C136.6 77.25 137.04 76.95 137.63 76.72C137.38 76.44 137.2 76.18 137.08 75.94C136.96 75.7 136.91 75.44 136.91 75.16C136.91 74.68 137.08 74.29 137.43 73.99C137.77 73.69 138.23 73.54 138.81 73.54C139.35 73.54 139.79 73.69 140.12 74C140.46 74.31 140.62 74.71 140.59 75.21H139.84C139.84 74.89 139.75 74.63 139.54 74.44C139.34 74.25 139.08 74.16 138.77 74.16C138.44 74.16 138.17 74.25 137.97 74.43C137.77 74.61 137.66 74.85 137.66 75.14C137.66 75.37 137.72 75.59 137.85 75.81C137.98 76.03 138.17 76.28 138.45 76.58L140.93 79.09C141.03 78.95 141.17 78.74 141.34 78.44L142.03 77.29H142.84L142.02 78.7C141.83 79.04 141.63 79.34 141.44 79.61L143.01 81.19H142.03L142.02 81.2ZM139.55 80.42C139.88 80.25 140.2 80 140.5 79.64L138.1 77.2C137.1 77.57 136.6 78.17 136.6 79.01C136.6 79.33 136.68 79.61 136.83 79.86C136.98 80.11 137.2 80.3 137.47 80.45C137.74 80.59 138.06 80.67 138.41 80.67C138.83 80.67 139.21 80.59 139.55 80.42Z" fill="#1E262D"/>
<path d="M156.18 73.77V81.21H155.43V75.27L152.78 81.21H152.23L149.58 75.29V81.21H148.83V73.77H149.63L152.51 80.21L155.39 73.77H156.2H156.18Z" fill="#1E262D"/>
<path d="M159.57 74.28V77.09H162.43V77.71H159.57V80.57H162.75V81.19H158.82V73.65H162.75V74.27H159.57V74.28Z" fill="#1E262D"/>
<path d="M169.52 74.1199C170.12 74.4199 170.57 74.8599 170.89 75.4199C171.21 75.9799 171.36 76.6599 171.36 77.4499C171.36 78.2399 171.2 78.8999 170.89 79.4599C170.58 80.0199 170.12 80.4599 169.52 80.7499C168.92 81.0399 168.21 81.1999 167.38 81.1999H165.15V73.6699H167.38C168.21 73.6699 168.93 73.8199 169.52 74.1199ZM169.77 79.7499C170.32 79.1999 170.59 78.4299 170.59 77.4499C170.59 76.4699 170.32 75.6799 169.77 75.1299C169.22 74.5799 168.42 74.2999 167.37 74.2999H165.89V80.5799H167.37C168.42 80.5799 169.22 80.3099 169.77 79.7599V79.7499Z" fill="#1E262D"/>
<path d="M174.43 73.6699V81.1999H173.68V73.6699H174.43Z" fill="#1E262D"/>
<path d="M177.19 75.44C177.51 74.85 177.96 74.4 178.52 74.07C179.08 73.74 179.71 73.58 180.4 73.58C181.24 73.58 181.96 73.78 182.56 74.18C183.16 74.58 183.6 75.14 183.87 75.87H182.99C182.77 75.36 182.45 74.96 182 74.67C181.56 74.38 181.02 74.24 180.4 74.24C179.85 74.24 179.35 74.37 178.91 74.63C178.47 74.89 178.12 75.26 177.87 75.75C177.62 76.23 177.49 76.8 177.49 77.44C177.49 78.08 177.62 78.64 177.87 79.12C178.12 79.6 178.47 79.97 178.91 80.23C179.35 80.49 179.85 80.62 180.4 80.62C181.02 80.62 181.56 80.48 182 80.19C182.44 79.91 182.77 79.51 182.99 79.01H183.87C183.6 79.73 183.16 80.29 182.55 80.68C181.94 81.07 181.23 81.27 180.39 81.27C179.7 81.27 179.08 81.11 178.51 80.78C177.95 80.45 177.51 80 177.18 79.42C176.86 78.84 176.7 78.18 176.7 77.44C176.7 76.7 176.86 76.04 177.18 75.45L177.19 75.44Z" fill="#1E262D"/>
<path d="M187.03 73.6699V81.1999H186.28V73.6699H187.03Z" fill="#1E262D"/>
<path d="M195.34 81.1999H194.59L190.42 74.8599V81.1999H189.67V73.6699H190.42L194.59 79.9999V73.6699H195.34V81.1999Z" fill="#1E262D"/>
<path d="M202.34 79.41H198.91L198.25 81.2H197.45L200.2 73.76H201.05L203.79 81.2H202.99L202.33 79.41H202.34ZM202.11 78.79L200.62 74.72L199.13 78.79H202.1H202.11Z" fill="#1E262D"/>
<path d="M210.54 74.28V77.09H213.4V77.71H210.54V80.57H213.72V81.19H209.79V73.65H213.72V74.27H210.54V74.28Z" fill="#1E262D"/>
<path d="M217.09 81.02C216.71 80.85 216.42 80.61 216.2 80.3C215.98 79.99 215.87 79.65 215.86 79.27H216.66C216.7 79.64 216.86 79.96 217.15 80.23C217.44 80.5 217.86 80.64 218.41 80.64C218.92 80.64 219.32 80.51 219.62 80.25C219.92 79.99 220.07 79.66 220.07 79.25C220.07 78.93 219.99 78.67 219.82 78.47C219.65 78.27 219.45 78.13 219.21 78.03C218.96 77.93 218.63 77.83 218.2 77.71C217.7 77.57 217.3 77.44 217 77.31C216.71 77.18 216.45 76.98 216.25 76.71C216.05 76.44 215.94 76.07 215.94 75.6C215.94 75.21 216.04 74.87 216.24 74.56C216.44 74.25 216.73 74.02 217.09 73.84C217.45 73.66 217.88 73.58 218.35 73.58C219.05 73.58 219.61 73.75 220.04 74.09C220.47 74.43 220.71 74.87 220.78 75.41H219.96C219.91 75.1 219.74 74.83 219.45 74.59C219.16 74.35 218.78 74.23 218.29 74.23C217.84 74.23 217.46 74.35 217.16 74.59C216.86 74.83 216.71 75.16 216.71 75.58C216.71 75.9 216.79 76.15 216.96 76.35C217.13 76.54 217.33 76.69 217.58 76.79C217.83 76.89 218.16 77 218.59 77.11C219.08 77.25 219.47 77.38 219.77 77.51C220.07 77.64 220.33 77.85 220.54 78.12C220.75 78.39 220.85 78.76 220.85 79.22C220.85 79.57 220.76 79.91 220.57 80.22C220.38 80.54 220.11 80.79 219.74 80.99C219.37 81.18 218.94 81.28 218.43 81.28C217.92 81.28 217.5 81.19 217.12 81.02H217.09Z" fill="#1E262D"/>
<path d="M227.6 73.6699V74.2899H225.51V81.1999H224.76V74.2899H222.66V73.6699H227.61H227.6Z" fill="#1E262D"/>
<path d="M230.47 74.28V77.09H233.33V77.71H230.47V80.57H233.65V81.19H229.72V73.65H233.65V74.27H230.47V74.28ZM232.53 72.03L230.32 73.31V72.73L232.53 71.35V72.03Z" fill="#1E262D"/>
<path d="M240.46 73.6699V74.2899H238.37V81.1999H237.62V74.2899H235.52V73.6699H240.47H240.46Z" fill="#1E262D"/>
<path d="M243.33 73.6699V81.1999H242.58V73.6699H243.33Z" fill="#1E262D"/>
<path d="M246.1 75.44C246.42 74.85 246.87 74.4 247.43 74.07C247.99 73.74 248.62 73.58 249.31 73.58C250.15 73.58 250.87 73.78 251.47 74.18C252.07 74.58 252.51 75.14 252.78 75.87H251.9C251.68 75.36 251.36 74.96 250.91 74.67C250.47 74.38 249.93 74.24 249.31 74.24C248.76 74.24 248.26 74.37 247.82 74.63C247.38 74.89 247.03 75.26 246.78 75.75C246.53 76.23 246.4 76.8 246.4 77.44C246.4 78.08 246.53 78.64 246.78 79.12C247.03 79.6 247.38 79.97 247.82 80.23C248.26 80.49 248.76 80.62 249.31 80.62C249.93 80.62 250.47 80.48 250.91 80.19C251.35 79.91 251.68 79.51 251.9 79.01H252.78C252.51 79.73 252.07 80.29 251.46 80.68C250.85 81.07 250.14 81.27 249.3 81.27C248.61 81.27 247.99 81.11 247.42 80.78C246.86 80.45 246.42 80 246.09 79.42C245.77 78.84 245.61 78.18 245.61 77.44C245.61 76.7 245.77 76.04 246.09 75.45L246.1 75.44Z" fill="#1E262D"/>
<path d="M259.54 79.41H256.11L255.45 81.2H254.65L257.4 73.76H258.25L260.99 81.2H260.19L259.53 79.41H259.54ZM259.31 78.79L257.82 74.72L256.33 78.79H259.3H259.31Z" fill="#1E262D"/>
</g>
<defs>
<clipPath id="clip0_28_91">
<rect width="283.46" height="81.33" fill="white"/>
</clipPath>
</defs>
</svg>
