<svg width="219" height="48" viewBox="0 0 219 48" fill="none" xmlns="http://www.w3.org/2000/svg">
<g clip-path="url(#clip0_59_707)">
<path d="M218.186 48H0V0H218.186V48ZM0.438743 47.569H217.755V0.431046H0.438743V47.569Z" fill="white"/>
<path d="M26.3399 31.6126C24.2001 31.6126 22.3528 30.8814 20.8133 29.4189C19.2739 27.9564 18.5042 26.1476 18.5042 24C18.5042 21.8525 19.1738 20.0436 20.5208 18.5812C21.8678 17.1187 23.592 16.3875 25.6934 16.3875C27.3406 16.3875 29.0109 16.6646 30.7043 17.2111L30.4349 18.0347C28.7877 17.542 27.2097 17.2957 25.6934 17.2957C23.8922 17.2957 22.422 17.9423 21.2829 19.2354C20.1437 20.5286 19.5741 22.1065 19.5741 23.9769C19.5741 25.8474 20.236 27.433 21.56 28.7492C22.8839 30.0577 24.4772 30.7197 26.3322 30.7197C27.9564 30.7197 29.3573 30.4734 30.5349 29.9808L30.8428 30.6812C30.3194 30.9814 29.6344 31.22 28.7954 31.3817C27.9487 31.5433 27.1328 31.628 26.3322 31.628L26.3399 31.6126Z" fill="white"/>
<path d="M36.1694 31.3663V16.6338H37.1547V30.4657H43.936V31.374H36.1694V31.3663Z" fill="white"/>
<path d="M48.5542 31.3663V16.6338H49.5394V31.3663H48.5542Z" fill="white"/>
<path d="M75.9026 31.3663V16.6338H76.8878V31.3663H75.9026Z" fill="white"/>
<path d="M90.7428 31.6126C88.6029 31.6126 86.7556 30.8814 85.2162 29.4189C83.6767 27.9564 82.907 26.1476 82.907 24C82.907 21.8525 83.5766 20.0436 84.9237 18.5812C86.2707 17.1187 87.9949 16.3875 90.0962 16.3875C91.7434 16.3875 93.4137 16.6646 95.1071 17.2111L94.8377 18.0347C93.1905 17.542 91.6126 17.2957 90.0962 17.2957C88.2951 17.2957 86.8249 17.9423 85.6857 19.2354C84.5465 20.5286 83.9769 22.1065 83.9769 23.9769C83.9769 25.8474 84.6389 27.433 85.9628 28.7492C87.2867 30.0577 88.88 30.7197 90.7351 30.7197C92.3592 30.7197 93.7601 30.4734 94.9378 29.9808L95.2457 30.6812C94.7222 30.9814 94.0372 31.22 93.1982 31.3817C92.3515 31.5433 91.5356 31.628 90.7351 31.628L90.7428 31.6126Z" fill="white"/>
<path d="M68.0283 16.6338V25.0315H68.036V30.8814L68.5671 31.4895H69.0213V16.6338H68.0283Z" fill="white"/>
<path d="M104.96 16.5337H104.39L104.167 17.0571L106.268 22.2066L107.23 24.5234L107.3 24.6774L107.6 25.4086L107.954 26.2553L110.071 31.3663H111.187L104.96 16.5337Z" fill="white"/>
<path d="M101.365 26.2553L101.719 25.4086L103.982 19.9282C104.067 19.728 104.159 19.4971 104.251 19.2508L103.759 18.0577L98.1936 31.3663H99.2481L101.373 26.2553H101.365Z" fill="white"/>
<path d="M56.4285 18.5197V31.3664H57.4214V20.7365L57.3906 19.6973L56.4285 18.5197Z" fill="white"/>
<path d="M66.5888 27.7024L56.8826 16.5106H56.4285V17.2803L59.6844 21.2521L67.2508 29.9654V28.4798C67.0584 28.2489 66.8428 27.9872 66.5888 27.687V27.7024Z" fill="white"/>
<path d="M145.355 31.3663V16.6338H146.348V31.3663H145.355Z" fill="white"/>
<path d="M153.229 31.3663V16.6338H154.222V30.4657H161.003V31.374H153.237L153.229 31.3663Z" fill="white"/>
<path d="M165.614 31.3663V16.6338H166.607V31.3663H165.614Z" fill="white"/>
<path d="M176.205 17.4959H171.218V16.6338H182.178V17.4959H177.191V31.3663H176.205V17.4959Z" fill="white"/>
<path d="M187.243 29.4112C185.873 27.941 185.196 26.1322 185.196 23.9923C185.196 21.8525 185.881 20.0436 187.243 18.5812C188.613 17.1187 190.337 16.3875 192.423 16.3875C194.509 16.3875 196.241 17.1187 197.619 18.5812C198.989 20.0436 199.682 21.8448 199.682 23.9923C199.682 26.1399 198.997 27.941 197.619 29.4112C196.241 30.8814 194.517 31.6126 192.423 31.6126C190.33 31.6126 188.605 30.8814 187.243 29.4112ZM187.974 19.22C186.835 20.5055 186.265 22.0988 186.265 23.9923C186.265 25.8858 186.835 27.4792 187.99 28.7723C189.137 30.0654 190.622 30.712 192.439 30.712C194.255 30.712 195.741 30.0654 196.888 28.7723C198.035 27.4792 198.612 25.8858 198.612 23.9923C198.612 22.0988 198.035 20.5055 196.888 19.22C195.741 17.9346 194.255 17.2957 192.423 17.2957C190.591 17.2957 189.113 17.9346 187.974 19.22Z" fill="white"/>
<path d="M125.973 18.6196V18.5888C126.127 19.0276 126.327 19.5433 126.581 20.1206L130.176 28.8262L130.714 27.4483C130.714 27.4483 130.707 27.4253 130.699 27.4099L126.081 16.4336H125.503L125.388 17.1186L125.973 18.6119V18.6196Z" fill="white"/>
<path d="M125.088 18.9659L123.063 31.3662H124.072L125.711 20.5593L125.088 18.9659Z" fill="white"/>
<path d="M136.041 18.6119L131.908 27.433C131.523 28.2335 130.707 30.0962 130.707 30.0962L130.915 30.5966H131.477L136.272 20.3361L136.049 18.6042L136.041 18.6119Z" fill="white"/>
<path d="M137.619 16.4413H137.057L136.788 17.0109L138.835 31.3662H139.874L137.619 16.4413Z" fill="white"/>
</g>
<defs>
<clipPath id="clip0_59_707">
<rect width="218.186" height="48" fill="white"/>
</clipPath>
</defs>
</svg>
