<svg width="284" height="63" viewBox="0 0 284 63" fill="none" xmlns="http://www.w3.org/2000/svg">
<g clip-path="url(#clip0_28_190)">
<path d="M283.46 0H0V62.36H283.46V0Z" fill="#1E262D"/>
<path d="M283.46 62.36H0V0H283.46V62.36ZM0.57 61.8H282.9V0.56H0.57V61.8Z" fill="#C98D8B"/>
<path d="M34.22 41.07C31.44 41.07 29.04 40.12 27.04 38.22C25.04 36.32 24.04 33.97 24.04 31.18C24.04 28.39 24.91 26.04 26.66 24.14C28.41 22.24 30.65 21.29 33.38 21.29C35.52 21.29 37.69 21.65 39.89 22.36L39.54 23.43C37.4 22.79 35.35 22.47 33.38 22.47C31.04 22.47 29.13 23.31 27.65 24.99C26.17 26.67 25.43 28.72 25.43 31.15C25.43 33.58 26.29 35.64 28.01 37.35C29.73 39.05 31.8 39.91 34.21 39.91C36.32 39.91 38.14 39.59 39.67 38.95L40.07 39.86C39.39 40.25 38.5 40.56 37.41 40.77C36.31 40.98 35.25 41.09 34.21 41.09L34.22 41.07Z" fill="white"/>
<path d="M46.99 40.75V21.61H48.27V39.58H57.08V40.76H46.99V40.75Z" fill="white"/>
<path d="M63.0801 40.75V21.61H64.3601V40.75H63.0801Z" fill="white"/>
<path d="M98.6101 40.75V21.61H99.8901V40.75H98.6101Z" fill="white"/>
<path d="M117.89 41.07C115.11 41.07 112.71 40.12 110.71 38.22C108.71 36.32 107.71 33.97 107.71 31.18C107.71 28.39 108.58 26.04 110.33 24.14C112.08 22.24 114.32 21.29 117.05 21.29C119.19 21.29 121.36 21.65 123.56 22.36L123.21 23.43C121.07 22.79 119.02 22.47 117.05 22.47C114.71 22.47 112.8 23.31 111.32 24.99C109.84 26.67 109.1 28.72 109.1 31.15C109.1 33.58 109.96 35.64 111.68 37.35C113.4 39.05 115.47 39.91 117.88 39.91C119.99 39.91 121.81 39.59 123.34 38.95L123.74 39.86C123.06 40.25 122.17 40.56 121.08 40.77C119.98 40.98 118.92 41.09 117.88 41.09L117.89 41.07Z" fill="white"/>
<path d="M88.3801 21.61V32.52H88.3901V40.12L89.0801 40.91H89.6701V21.61H88.3801Z" fill="white"/>
<path d="M136.36 21.48H135.62L135.33 22.16L138.06 28.85L139.31 31.86L139.4 32.06L139.79 33.01L140.25 34.11L143 40.75H144.45L136.36 21.48Z" fill="white"/>
<path d="M131.69 34.11L132.15 33.01L135.09 25.89C135.2 25.63 135.32 25.33 135.44 25.01L134.8 23.46L127.57 40.75H128.94L131.7 34.11H131.69Z" fill="white"/>
<path d="M73.3101 24.0601V40.7501H74.6001V26.9401L74.5601 25.5901L73.3101 24.0601Z" fill="white"/>
<path d="M86.5101 35.9901L73.9001 21.4501H73.3101V22.4501L77.5401 27.6101L87.3701 38.9301V37.0001C87.1201 36.7001 86.8401 36.3601 86.5101 35.9701V35.9901Z" fill="white"/>
<path d="M188.84 40.75V21.61H190.13V40.75H188.84Z" fill="white"/>
<path d="M199.07 40.75V21.61H200.36V39.58H209.17V40.76H199.08L199.07 40.75Z" fill="white"/>
<path d="M215.16 40.75V21.61H216.45V40.75H215.16Z" fill="white"/>
<path d="M228.92 22.73H222.44V21.61H236.68V22.73H230.2V40.75H228.92V22.73Z" fill="white"/>
<path d="M243.26 38.21C241.48 36.3 240.6 33.95 240.6 31.17C240.6 28.39 241.49 26.04 243.26 24.14C245.04 22.24 247.28 21.29 249.99 21.29C252.7 21.29 254.95 22.24 256.74 24.14C258.52 26.04 259.42 28.38 259.42 31.17C259.42 33.96 258.53 36.3 256.74 38.21C254.95 40.12 252.71 41.07 249.99 41.07C247.27 41.07 245.03 40.12 243.26 38.21ZM244.21 24.97C242.73 26.64 241.99 28.71 241.99 31.17C241.99 33.63 242.73 35.7 244.23 37.38C245.72 39.06 247.65 39.9 250.01 39.9C252.37 39.9 254.3 39.06 255.79 37.38C257.28 35.7 258.03 33.63 258.03 31.17C258.03 28.71 257.28 26.64 255.79 24.97C254.3 23.3 252.37 22.47 249.99 22.47C247.61 22.47 245.69 23.3 244.21 24.97Z" fill="white"/>
<path d="M163.66 24.1901V24.1501C163.86 24.7201 164.12 25.3901 164.45 26.1401L169.12 37.4501L169.82 35.6601C169.82 35.6601 169.81 35.6301 169.8 35.6101L163.8 21.3501H163.05L162.9 22.2401L163.66 24.1801V24.1901Z" fill="white"/>
<path d="M162.51 24.6401L159.88 40.7501H161.19L163.32 26.7101L162.51 24.6401Z" fill="white"/>
<path d="M176.74 24.18L171.37 35.64C170.87 36.68 169.81 39.1 169.81 39.1L170.08 39.75H170.81L177.04 26.42L176.75 24.17L176.74 24.18Z" fill="white"/>
<path d="M178.79 21.3601H178.06L177.71 22.1001L180.37 40.7501H181.72L178.79 21.3601Z" fill="white"/>
</g>
<defs>
<clipPath id="clip0_28_190">
<rect width="283.46" height="62.36" fill="white"/>
</clipPath>
</defs>
</svg>
