<svg width="284" height="95" viewBox="0 0 284 95" fill="none" xmlns="http://www.w3.org/2000/svg">
<g clip-path="url(#clip0_28_191)">
<path d="M283.46 0H0V94.29H283.46V0Z" fill="#1E262D"/>
<path d="M283.46 62.36H0V0H283.46V62.36ZM0.57 61.8H282.9V0.56H0.57V61.8Z" fill="#C98D8B"/>
<path d="M34.22 41.07C31.44 41.07 29.04 40.12 27.04 38.22C25.04 36.32 24.04 33.97 24.04 31.18C24.04 28.39 24.91 26.04 26.66 24.14C28.41 22.24 30.65 21.29 33.38 21.29C35.52 21.29 37.69 21.65 39.89 22.36L39.54 23.43C37.4 22.79 35.35 22.47 33.38 22.47C31.04 22.47 29.13 23.31 27.65 24.99C26.17 26.67 25.43 28.72 25.43 31.15C25.43 33.58 26.29 35.64 28.01 37.35C29.73 39.05 31.8 39.91 34.21 39.91C36.32 39.91 38.14 39.59 39.67 38.95L40.07 39.86C39.39 40.25 38.5 40.56 37.41 40.77C36.31 40.98 35.25 41.09 34.21 41.09L34.22 41.07Z" fill="white"/>
<path d="M46.99 40.75V21.61H48.27V39.58H57.08V40.76H46.99V40.75Z" fill="white"/>
<path d="M63.0801 40.75V21.61H64.3601V40.75H63.0801Z" fill="white"/>
<path d="M98.6101 40.75V21.61H99.8901V40.75H98.6101Z" fill="white"/>
<path d="M117.89 41.07C115.11 41.07 112.71 40.12 110.71 38.22C108.71 36.32 107.71 33.97 107.71 31.18C107.71 28.39 108.58 26.04 110.33 24.14C112.08 22.24 114.32 21.29 117.05 21.29C119.19 21.29 121.36 21.65 123.56 22.36L123.21 23.43C121.07 22.79 119.02 22.47 117.05 22.47C114.71 22.47 112.8 23.31 111.32 24.99C109.84 26.67 109.1 28.72 109.1 31.15C109.1 33.58 109.96 35.64 111.68 37.35C113.4 39.05 115.47 39.91 117.88 39.91C119.99 39.91 121.81 39.59 123.34 38.95L123.74 39.86C123.06 40.25 122.17 40.56 121.08 40.77C119.98 40.98 118.92 41.09 117.88 41.09L117.89 41.07Z" fill="white"/>
<path d="M88.3801 21.61V32.52H88.3901V40.12L89.0801 40.91H89.6701V21.61H88.3801Z" fill="white"/>
<path d="M136.36 21.48H135.62L135.33 22.16L138.06 28.85L139.31 31.86L139.4 32.06L139.79 33.01L140.25 34.11L143 40.75H144.45L136.36 21.48Z" fill="white"/>
<path d="M131.69 34.11L132.15 33.01L135.09 25.89C135.2 25.63 135.32 25.33 135.44 25.01L134.8 23.46L127.57 40.75H128.94L131.7 34.11H131.69Z" fill="white"/>
<path d="M73.3101 24.0601V40.7501H74.6001V26.9401L74.5601 25.5901L73.3101 24.0601Z" fill="white"/>
<path d="M86.5101 35.9901L73.9001 21.4501H73.3101V22.4501L77.5401 27.6101L87.3701 38.9301V37.0001C87.1201 36.7001 86.8401 36.3601 86.5101 35.9701V35.9901Z" fill="white"/>
<path d="M188.84 40.75V21.61H190.13V40.75H188.84Z" fill="white"/>
<path d="M199.07 40.75V21.61H200.36V39.58H209.17V40.76H199.08L199.07 40.75Z" fill="white"/>
<path d="M215.16 40.75V21.61H216.45V40.75H215.16Z" fill="white"/>
<path d="M228.92 22.73H222.44V21.61H236.68V22.73H230.2V40.75H228.92V22.73Z" fill="white"/>
<path d="M243.26 38.21C241.48 36.3 240.6 33.95 240.6 31.17C240.6 28.39 241.49 26.04 243.26 24.14C245.04 22.24 247.28 21.29 249.99 21.29C252.7 21.29 254.95 22.24 256.74 24.14C258.52 26.04 259.42 28.38 259.42 31.17C259.42 33.96 258.53 36.3 256.74 38.21C254.95 40.12 252.71 41.07 249.99 41.07C247.27 41.07 245.03 40.12 243.26 38.21ZM244.21 24.97C242.73 26.64 241.99 28.71 241.99 31.17C241.99 33.63 242.73 35.7 244.23 37.38C245.72 39.06 247.65 39.9 250.01 39.9C252.37 39.9 254.3 39.06 255.79 37.38C257.28 35.7 258.03 33.63 258.03 31.17C258.03 28.71 257.28 26.64 255.79 24.97C254.3 23.3 252.37 22.47 249.99 22.47C247.61 22.47 245.69 23.3 244.21 24.97Z" fill="white"/>
<path d="M163.66 24.1901V24.1501C163.86 24.7201 164.12 25.3901 164.45 26.1401L169.12 37.4501L169.82 35.6601C169.82 35.6601 169.81 35.6301 169.8 35.6101L163.8 21.3501H163.05L162.9 22.2401L163.66 24.1801V24.1901Z" fill="white"/>
<path d="M162.51 24.6401L159.88 40.7501H161.19L163.32 26.7101L162.51 24.6401Z" fill="white"/>
<path d="M176.74 24.18L171.37 35.64C170.87 36.68 169.81 39.1 169.81 39.1L170.08 39.75H170.81L177.04 26.42L176.75 24.17L176.74 24.18Z" fill="white"/>
<path d="M178.79 21.3601H178.06L177.71 22.1001L180.37 40.7501H181.72L178.79 21.3601Z" fill="white"/>
<path d="M25.6001 75.82C25.9201 75.23 26.3701 74.78 26.9301 74.45C27.4901 74.12 28.1201 73.96 28.8101 73.96C29.6501 73.96 30.3701 74.16 30.9701 74.56C31.5701 74.96 32.0101 75.52 32.2801 76.25H31.4001C31.1801 75.74 30.8601 75.34 30.4101 75.05C29.9701 74.76 29.4301 74.62 28.8101 74.62C28.2601 74.62 27.7601 74.75 27.3201 75.01C26.8801 75.27 26.5301 75.64 26.2801 76.13C26.0301 76.62 25.9001 77.18 25.9001 77.82C25.9001 78.46 26.0301 79.02 26.2801 79.5C26.5301 79.98 26.8801 80.35 27.3201 80.61C27.7601 80.87 28.2601 81 28.8101 81C29.4301 81 29.9701 80.86 30.4101 80.57C30.8501 80.29 31.1801 79.89 31.4001 79.39H32.2801C32.0101 80.11 31.5701 80.67 30.9701 81.06C30.3701 81.45 29.6501 81.65 28.8101 81.65C28.1201 81.65 27.5001 81.49 26.9301 81.16C26.3701 80.83 25.9301 80.38 25.6001 79.8C25.2801 79.22 25.1201 78.56 25.1201 77.82C25.1201 77.08 25.2801 76.42 25.6001 75.83V75.82Z" fill="white"/>
<path d="M35.4402 74.0499V81.5799H34.6902V74.0499H35.4402Z" fill="white"/>
<path d="M42.0801 81.5799L40.2201 78.4299H38.8301V81.5799H38.0801V74.0499H40.3401C41.1801 74.0499 41.8201 74.2499 42.2501 74.6499C42.6801 75.0499 42.9001 75.5799 42.9001 76.2299C42.9001 76.7799 42.7401 77.2399 42.4301 77.6299C42.1201 78.0199 41.6601 78.2599 41.0501 78.3799L42.9901 81.5799H42.0801ZM38.8301 77.8199H40.3501C40.9401 77.8199 41.3801 77.6799 41.6801 77.3899C41.9801 77.0999 42.1301 76.7199 42.1301 76.2399C42.1301 75.7599 41.9901 75.3599 41.7001 75.0899C41.4101 74.8199 40.9601 74.6899 40.3401 74.6899H38.8301V77.8299V77.8199Z" fill="white"/>
<path d="M46.03 74.0499V78.7899C46.03 79.5399 46.21 80.0899 46.56 80.4499C46.92 80.8099 47.4 80.9899 48.02 80.9899C48.64 80.9899 49.12 80.8099 49.47 80.4599C49.82 80.0999 49.99 79.5499 49.99 78.7899V74.0499H50.74V78.7799C50.74 79.7399 50.49 80.4499 49.98 80.9399C49.47 81.4199 48.81 81.6599 48 81.6599C47.19 81.6599 46.53 81.4199 46.02 80.9399C45.51 80.4599 45.26 79.7399 45.26 78.7799V74.0499H46.01H46.03Z" fill="white"/>
<path d="M59.28 76.24C59.06 75.74 58.74 75.35 58.29 75.07C57.85 74.79 57.33 74.64 56.73 74.64C56.17 74.64 55.67 74.77 55.22 75.03C54.77 75.29 54.42 75.66 54.16 76.13C53.9 76.61 53.77 77.16 53.77 77.8C53.77 78.44 53.9 78.99 54.16 79.47C54.42 79.95 54.77 80.32 55.22 80.58C55.67 80.84 56.17 80.97 56.73 80.97C57.25 80.97 57.73 80.86 58.15 80.63C58.57 80.4 58.91 80.08 59.16 79.66C59.41 79.24 59.56 78.75 59.6 78.19H56.43V77.58H60.4V78.13C60.36 78.79 60.18 79.39 59.86 79.92C59.54 80.46 59.1 80.88 58.56 81.19C58.02 81.5 57.41 81.65 56.73 81.65C56.05 81.65 55.4 81.49 54.83 81.16C54.26 80.83 53.82 80.38 53.49 79.79C53.16 79.2 53 78.54 53 77.8C53 77.06 53.16 76.4 53.49 75.81C53.82 75.22 54.26 74.77 54.83 74.44C55.4 74.11 56.03 73.95 56.73 73.95C57.53 73.95 58.24 74.15 58.84 74.55C59.44 74.95 59.88 75.51 60.15 76.23H59.27L59.28 76.24Z" fill="white"/>
<path d="M64.0601 72.41L61.8501 73.69V73.11L64.0601 71.73V72.41ZM63.4501 74.05V81.58H62.7001V74.05H63.4501Z" fill="white"/>
<path d="M70.44 79.79H67.01L66.35 81.58H65.55L68.3 74.14H69.15L71.89 81.58H71.09L70.43 79.79H70.44ZM70.21 79.17L68.72 75.1L67.23 79.17H70.2H70.21Z" fill="white"/>
<path d="M82.0701 77.77C81.6501 78.17 81.0101 78.36 80.1601 78.36H78.6401V81.57H77.8901V74.04H80.1601C81.0001 74.04 81.6301 74.24 82.0601 74.63C82.4901 75.03 82.7001 75.55 82.7001 76.2C82.7001 76.85 82.4901 77.37 82.0601 77.76L82.0701 77.77ZM81.9301 76.21C81.9301 75.71 81.7901 75.33 81.5101 75.07C81.2301 74.81 80.7801 74.68 80.1601 74.68H78.6401V77.72H80.1601C81.3401 77.72 81.9301 77.22 81.9301 76.21Z" fill="white"/>
<path d="M85.6301 80.96H88.3401V81.57H84.8801V74.04H85.6301V80.96Z" fill="white"/>
<path d="M94.7001 79.79H91.2701L90.6101 81.58H89.8101L92.5601 74.14H93.4101L96.1501 81.58H95.3501L94.6901 79.79H94.7001ZM94.4701 79.17L92.9801 75.1L91.4901 79.17H94.4601H94.4701ZM93.9901 72.41L91.7801 73.69V73.11L93.9901 71.73V72.41Z" fill="white"/>
<path d="M99.25 81.4C98.87 81.23 98.58 80.99 98.36 80.68C98.14 80.37 98.03 80.03 98.02 79.65H98.82C98.86 80.02 99.02 80.34 99.3 80.61C99.59 80.89 100.01 81.02 100.56 81.02C101.07 81.02 101.47 80.89 101.77 80.63C102.07 80.37 102.22 80.04 102.22 79.63C102.22 79.31 102.14 79.05 101.97 78.85C101.8 78.65 101.6 78.51 101.36 78.41C101.12 78.31 100.78 78.21 100.35 78.09C99.85 77.95 99.45 77.82 99.15 77.69C98.85 77.56 98.6 77.36 98.4 77.09C98.2 76.82 98.09 76.45 98.09 75.98C98.09 75.59 98.19 75.25 98.39 74.94C98.59 74.63 98.87 74.4 99.24 74.22C99.61 74.05 100.03 73.96 100.5 73.96C101.2 73.96 101.76 74.13 102.19 74.47C102.62 74.81 102.86 75.25 102.93 75.79H102.11C102.06 75.48 101.89 75.21 101.6 74.97C101.31 74.73 100.92 74.61 100.44 74.61C99.99 74.61 99.61 74.73 99.31 74.97C99.01 75.21 98.86 75.54 98.86 75.96C98.86 76.28 98.94 76.53 99.11 76.73C99.28 76.92 99.48 77.07 99.73 77.17C99.98 77.27 100.31 77.38 100.74 77.49C101.23 77.63 101.62 77.76 101.93 77.89C102.23 78.02 102.49 78.23 102.7 78.5C102.91 78.77 103.01 79.14 103.01 79.6C103.01 79.95 102.92 80.29 102.73 80.6C102.54 80.92 102.27 81.17 101.9 81.37C101.53 81.56 101.1 81.66 100.59 81.66C100.08 81.66 99.66 81.57 99.28 81.4H99.25Z" fill="white"/>
<path d="M109.76 74.0499V74.6699H107.67V81.5799H106.92V74.6699H104.82V74.0499H109.77H109.76Z" fill="white"/>
<path d="M112.63 74.0499V81.5799H111.88V74.0499H112.63Z" fill="white"/>
<path d="M115.4 75.82C115.72 75.23 116.17 74.78 116.73 74.45C117.29 74.12 117.92 73.96 118.61 73.96C119.45 73.96 120.17 74.16 120.77 74.56C121.37 74.96 121.81 75.52 122.08 76.25H121.2C120.98 75.74 120.66 75.34 120.21 75.05C119.77 74.76 119.23 74.62 118.61 74.62C118.06 74.62 117.56 74.75 117.12 75.01C116.68 75.27 116.33 75.64 116.08 76.13C115.83 76.62 115.7 77.18 115.7 77.82C115.7 78.46 115.83 79.02 116.08 79.5C116.33 79.98 116.68 80.35 117.12 80.61C117.56 80.87 118.06 81 118.61 81C119.23 81 119.77 80.86 120.21 80.57C120.65 80.29 120.98 79.89 121.2 79.39H122.08C121.81 80.11 121.37 80.67 120.77 81.06C120.17 81.45 119.45 81.65 118.61 81.65C117.92 81.65 117.3 81.49 116.73 81.16C116.17 80.83 115.73 80.38 115.4 79.8C115.08 79.22 114.92 78.56 114.92 77.82C114.92 77.08 115.08 76.42 115.4 75.83V75.82Z" fill="white"/>
<path d="M128.84 79.79H125.41L124.75 81.58H123.95L126.7 74.14H127.55L130.29 81.58H129.49L128.83 79.79H128.84ZM128.61 79.17L127.12 75.1L125.63 79.17H128.6H128.61Z" fill="white"/>
<path d="M142.02 81.5799L141 80.5299C140.63 80.9299 140.24 81.2299 139.83 81.4199C139.42 81.6099 138.94 81.7099 138.42 81.7099C137.9 81.7099 137.47 81.6099 137.08 81.4199C136.69 81.2299 136.39 80.9599 136.17 80.6199C135.95 80.2799 135.85 79.8799 135.85 79.4199C135.85 78.8899 136 78.4299 136.3 78.0299C136.6 77.6299 137.04 77.3299 137.63 77.0999C137.38 76.8199 137.2 76.5599 137.08 76.3199C136.96 76.0799 136.91 75.8199 136.91 75.5399C136.91 75.0599 137.08 74.6699 137.43 74.3699C137.77 74.0699 138.23 73.9199 138.81 73.9199C139.35 73.9199 139.79 74.0699 140.12 74.3799C140.46 74.6899 140.62 75.0899 140.59 75.5899H139.84C139.84 75.2699 139.75 75.0099 139.54 74.8199C139.34 74.6299 139.08 74.5399 138.77 74.5399C138.44 74.5399 138.17 74.6299 137.97 74.8099C137.77 74.9899 137.66 75.2299 137.66 75.5199C137.66 75.7499 137.72 75.9699 137.85 76.1899C137.98 76.4099 138.17 76.6599 138.45 76.9599L140.93 79.4699C141.03 79.3299 141.17 79.1199 141.34 78.8199L142.03 77.6699H142.84L142.02 79.0799C141.83 79.4199 141.63 79.7199 141.44 79.9899L143.01 81.5699H142.03L142.02 81.5799ZM139.55 80.7999C139.88 80.6299 140.2 80.3799 140.5 80.0199L138.1 77.5799C137.1 77.9499 136.6 78.5499 136.6 79.3899C136.6 79.7099 136.68 79.9899 136.83 80.2399C136.98 80.4899 137.2 80.6799 137.47 80.8299C137.74 80.9699 138.06 81.0499 138.41 81.0499C138.83 81.0499 139.21 80.9699 139.55 80.7999Z" fill="white"/>
<path d="M156.18 74.14V81.58H155.43V75.64L152.78 81.58H152.23L149.58 75.66V81.58H148.83V74.14H149.63L152.51 80.58L155.39 74.14H156.2H156.18Z" fill="white"/>
<path d="M159.57 74.66V77.47H162.43V78.09H159.57V80.95H162.75V81.57H158.82V74.03H162.75V74.65H159.57V74.66Z" fill="white"/>
<path d="M169.52 74.4999C170.12 74.7999 170.57 75.2399 170.89 75.7999C171.21 76.3599 171.36 77.0399 171.36 77.8299C171.36 78.6199 171.2 79.2799 170.89 79.8399C170.58 80.3999 170.12 80.8399 169.52 81.1299C168.92 81.4199 168.21 81.5799 167.38 81.5799H165.15V74.0499H167.38C168.21 74.0499 168.93 74.1999 169.52 74.4999ZM169.77 80.1299C170.32 79.5799 170.59 78.8099 170.59 77.8299C170.59 76.8499 170.32 76.0599 169.77 75.5099C169.22 74.9599 168.42 74.6799 167.37 74.6799H165.89V80.9599H167.37C168.42 80.9599 169.22 80.6899 169.77 80.1399V80.1299Z" fill="white"/>
<path d="M174.42 74.0499V81.5799H173.67V74.0499H174.42Z" fill="white"/>
<path d="M177.19 75.82C177.51 75.23 177.96 74.78 178.52 74.45C179.08 74.12 179.71 73.96 180.4 73.96C181.24 73.96 181.96 74.16 182.56 74.56C183.16 74.96 183.6 75.52 183.87 76.25H182.99C182.77 75.74 182.45 75.34 182 75.05C181.56 74.76 181.02 74.62 180.4 74.62C179.85 74.62 179.35 74.75 178.91 75.01C178.47 75.27 178.12 75.64 177.87 76.13C177.62 76.61 177.49 77.18 177.49 77.82C177.49 78.46 177.62 79.02 177.87 79.5C178.12 79.98 178.47 80.35 178.91 80.61C179.35 80.87 179.85 81 180.4 81C181.02 81 181.56 80.86 182 80.57C182.44 80.29 182.77 79.89 182.99 79.39H183.87C183.6 80.11 183.16 80.67 182.55 81.06C181.94 81.45 181.23 81.65 180.39 81.65C179.7 81.65 179.08 81.49 178.51 81.16C177.95 80.83 177.51 80.38 177.18 79.8C176.86 79.22 176.7 78.56 176.7 77.82C176.7 77.08 176.86 76.42 177.18 75.83L177.19 75.82Z" fill="white"/>
<path d="M187.03 74.0499V81.5799H186.28V74.0499H187.03Z" fill="white"/>
<path d="M195.34 81.5799H194.59L190.42 75.2399V81.5799H189.67V74.0499H190.42L194.59 80.3799V74.0499H195.34V81.5799Z" fill="white"/>
<path d="M202.34 79.79H198.91L198.25 81.58H197.45L200.2 74.14H201.05L203.79 81.58H202.99L202.33 79.79H202.34ZM202.11 79.17L200.62 75.1L199.13 79.17H202.1H202.11Z" fill="white"/>
<path d="M210.54 74.66V77.47H213.4V78.09H210.54V80.95H213.72V81.57H209.79V74.03H213.72V74.65H210.54V74.66Z" fill="white"/>
<path d="M217.09 81.4C216.71 81.23 216.42 80.99 216.2 80.68C215.98 80.37 215.87 80.03 215.86 79.65H216.66C216.7 80.02 216.86 80.34 217.15 80.61C217.44 80.88 217.86 81.02 218.41 81.02C218.92 81.02 219.32 80.89 219.62 80.63C219.92 80.37 220.07 80.04 220.07 79.63C220.07 79.31 219.99 79.05 219.82 78.85C219.65 78.65 219.45 78.51 219.21 78.41C218.96 78.31 218.63 78.21 218.2 78.09C217.7 77.95 217.3 77.82 217 77.69C216.71 77.56 216.45 77.36 216.25 77.09C216.05 76.82 215.94 76.45 215.94 75.98C215.94 75.59 216.04 75.25 216.24 74.94C216.44 74.63 216.73 74.4 217.09 74.22C217.45 74.04 217.88 73.96 218.35 73.96C219.05 73.96 219.61 74.13 220.04 74.47C220.47 74.81 220.71 75.25 220.78 75.79H219.96C219.91 75.48 219.74 75.21 219.45 74.97C219.16 74.73 218.78 74.61 218.29 74.61C217.84 74.61 217.46 74.73 217.16 74.97C216.86 75.21 216.71 75.54 216.71 75.96C216.71 76.28 216.79 76.53 216.96 76.73C217.13 76.92 217.33 77.07 217.58 77.17C217.83 77.27 218.16 77.38 218.59 77.49C219.08 77.63 219.47 77.76 219.77 77.89C220.07 78.02 220.33 78.23 220.54 78.5C220.75 78.77 220.85 79.14 220.85 79.6C220.85 79.95 220.76 80.29 220.57 80.6C220.38 80.92 220.11 81.17 219.74 81.37C219.37 81.56 218.94 81.66 218.43 81.66C217.92 81.66 217.5 81.57 217.12 81.4H217.09Z" fill="white"/>
<path d="M227.6 74.0499V74.6699H225.51V81.5799H224.76V74.6699H222.66V74.0499H227.61H227.6Z" fill="white"/>
<path d="M230.47 74.66V77.47H233.33V78.09H230.47V80.95H233.65V81.57H229.72V74.03H233.65V74.65H230.47V74.66ZM232.53 72.41L230.32 73.69V73.11L232.53 71.73V72.41Z" fill="white"/>
<path d="M240.46 74.0499V74.6699H238.37V81.5799H237.62V74.6699H235.52V74.0499H240.47H240.46Z" fill="white"/>
<path d="M243.33 74.0499V81.5799H242.58V74.0499H243.33Z" fill="white"/>
<path d="M246.09 75.82C246.41 75.23 246.86 74.78 247.42 74.45C247.98 74.12 248.61 73.96 249.3 73.96C250.14 73.96 250.86 74.16 251.46 74.56C252.06 74.96 252.5 75.52 252.77 76.25H251.89C251.67 75.74 251.35 75.34 250.9 75.05C250.46 74.76 249.92 74.62 249.3 74.62C248.75 74.62 248.25 74.75 247.81 75.01C247.37 75.27 247.02 75.64 246.77 76.13C246.52 76.61 246.39 77.18 246.39 77.82C246.39 78.46 246.52 79.02 246.77 79.5C247.02 79.98 247.37 80.35 247.81 80.61C248.25 80.87 248.75 81 249.3 81C249.92 81 250.46 80.86 250.9 80.57C251.34 80.29 251.67 79.89 251.89 79.39H252.77C252.5 80.11 252.06 80.67 251.45 81.06C250.84 81.45 250.13 81.65 249.29 81.65C248.6 81.65 247.98 81.49 247.41 81.16C246.85 80.83 246.41 80.38 246.08 79.8C245.76 79.22 245.6 78.56 245.6 77.82C245.6 77.08 245.76 76.42 246.08 75.83L246.09 75.82Z" fill="white"/>
<path d="M259.54 79.79H256.11L255.45 81.58H254.65L257.4 74.14H258.25L260.99 81.58H260.19L259.53 79.79H259.54ZM259.31 79.17L257.82 75.1L256.33 79.17H259.3H259.31Z" fill="white"/>
</g>
<defs>
<clipPath id="clip0_28_191">
<rect width="283.46" height="94.29" fill="white"/>
</clipPath>
</defs>
</svg>
