<svg width="142" height="148" viewBox="0 0 142 148" fill="none" xmlns="http://www.w3.org/2000/svg">
<g clip-path="url(#clip0_56_1278)">
<path d="M46.6593 52.5197V52.4099C47.2208 54.0171 47.9501 55.8695 48.8602 57.9801L61.9369 89.6455L63.899 84.6175C63.899 84.6175 63.8603 84.5336 63.8409 84.4884L48.1567 47.1689H44.5293L46.6593 52.5068V52.5197Z" fill="#C98D8B"/>
<path d="M43.4384 53.7654L36.061 98.8754H39.7465L45.7103 59.5679L43.4384 53.7589V53.7654Z" fill="#C98D8B"/>
<path d="M83.2687 52.4874L68.217 84.5724C66.8164 87.4833 63.8474 94.2669 63.8474 94.2669L67.5199 94.2088L84.0755 58.7934L83.2752 52.4939L83.2623 52.481L83.2687 52.4874Z" fill="#C98D8B"/>
<path d="M89.4004 47.1819H85.999L93.4474 98.8754H97.2167L89.4004 47.1819Z" fill="#C98D8B"/>
<path d="M0.748708 52.9586C0.471167 52.8683 0.258171 52.6875 0.122628 52.4229C-0.0129145 52.1583 -0.0322778 51.8807 0.0645386 51.5838C0.161355 51.2869 0.348533 51.0675 0.619619 50.9255C0.890705 50.7835 1.16825 50.7577 1.44579 50.8545C1.72333 50.9448 1.92987 51.132 2.04605 51.4031C2.16868 51.6742 2.18159 51.9582 2.07832 52.2551C1.9815 52.552 1.80078 52.765 1.5426 52.9005C1.28443 53.0361 1.01979 53.0554 0.742253 52.9651L0.748708 52.9586Z" fill="#C98D8B"/>
<path d="M11.2307 37.3389C10.9209 37.8165 10.5336 38.1522 10.0689 38.3458C9.60418 38.5394 9.09428 38.5846 8.54566 38.4942C7.99703 38.4039 7.4355 38.178 6.86751 37.8101C6.26079 37.4164 5.82189 36.9904 5.53789 36.5192C5.2539 36.048 5.12481 35.5704 5.13772 35.0799C5.15063 34.5893 5.29908 34.1246 5.58953 33.6857C5.96389 33.1048 6.4157 32.7304 6.93205 32.5626C7.45486 32.3948 7.98412 32.3948 8.5392 32.5626L8.21648 33.3888C7.8034 33.2855 7.42259 33.2855 7.06114 33.4082C6.69969 33.5243 6.4157 33.7502 6.2027 34.0794C6.01552 34.3634 5.93161 34.6797 5.93807 35.0282C5.94452 35.3768 6.0607 35.7253 6.29306 36.0867C6.51897 36.4417 6.87396 36.7774 7.35159 37.0872C7.78403 37.3647 8.21003 37.5584 8.62311 37.6616C9.03619 37.7649 9.417 37.7584 9.76554 37.6487C10.1141 37.539 10.3981 37.3066 10.6304 36.9452C10.908 36.5127 11.0177 36.0997 10.9467 35.693C10.8822 35.2929 10.6563 34.9701 10.2819 34.7249L10.7595 33.9891C11.1468 34.2408 11.4243 34.5506 11.5921 34.9056C11.7535 35.267 11.8051 35.6543 11.7471 36.0738C11.689 36.4934 11.5211 36.9129 11.2501 37.3389H11.2307Z" fill="#C98D8B"/>
<path d="M9.61709 28.2574L14.1352 31.8719L15.9424 29.6129L16.4911 30.0518L14.1804 32.9369L9.11365 28.8835L9.61709 28.2574V28.2574Z" fill="#C98D8B"/>
<path d="M18.1177 28.2704L13.3737 23.8491L13.9223 23.2617L18.6663 27.683L18.1177 28.2704Z" fill="#C98D8B"/>
<path d="M16.6395 20.467L17.3559 19.828L23.3714 21.6159L23.3198 21.661L19.7634 17.6787L20.3637 17.1429L24.6817 21.9773L24.0104 22.5776L17.7948 20.7381L17.8852 20.6542L21.5577 24.7656L20.9575 25.3013L16.6395 20.467V20.467Z" fill="#C98D8B"/>
<path d="M27.3281 19.9441L23.4683 14.729L24.1138 14.2513L27.9735 19.4665L27.3281 19.9441V19.9441Z" fill="#C98D8B"/>
<path d="M32.6723 16.4781C32.1882 16.775 31.6912 16.9105 31.1877 16.8847C30.6843 16.8589 30.2067 16.6846 29.7484 16.3619C29.2901 16.0456 28.8835 15.5938 28.5285 15.0194C28.1542 14.4062 27.9347 13.8253 27.8895 13.2831C27.8379 12.7345 27.9218 12.244 28.1477 11.8115C28.3736 11.3791 28.7092 11.0241 29.1546 10.7466C29.7419 10.3851 30.3099 10.2431 30.8521 10.3141C31.3943 10.3851 31.8719 10.6175 32.2979 11.0112L31.6525 11.6179C31.3297 11.3468 30.9747 11.1855 30.6004 11.1338C30.226 11.0822 29.871 11.1596 29.5354 11.3662C29.245 11.5469 29.0255 11.7922 28.8835 12.1084C28.7415 12.4247 28.6963 12.7926 28.748 13.2121C28.7996 13.6317 28.9739 14.0835 29.2708 14.5676C29.5419 15.0065 29.8388 15.3615 30.1679 15.6326C30.4971 15.9036 30.8392 16.065 31.2006 16.1102C31.5621 16.1618 31.9235 16.0715 32.285 15.852C32.7239 15.5809 32.995 15.2517 33.1112 14.858C33.2209 14.4643 33.1628 14.077 32.9304 13.6962L33.6791 13.238C33.9244 13.6317 34.0406 14.0319 34.0341 14.4256C34.0277 14.8193 33.905 15.1937 33.6727 15.5486C33.4403 15.9036 33.1047 16.2135 32.6787 16.4781H32.6723Z" fill="#C98D8B"/>
<path d="M36.5127 14.09L35.7576 7.27415L36.6418 6.85461L41.3858 11.7858L40.6178 12.1472L39.4108 10.8757L37.0743 11.9794L37.2744 13.7286L36.5063 14.09H36.5127ZM36.9968 11.3211L38.959 10.3916L36.6031 7.95187L36.9968 11.3211Z" fill="#C98D8B"/>
<path d="M45.5941 3.31113L46.7107 3.01423L50.0154 6.77716L49.9379 6.79652L50.9513 1.89116L52.0421 1.60071L53.7009 7.86796L52.9134 8.0745L51.4676 2.61405L51.6096 2.57533L50.5511 7.85505L50.0348 7.99059L46.5236 3.95012L46.6139 3.9243L48.0533 9.35247L47.2723 9.55902L45.6135 3.29177L45.5941 3.31113Z" fill="#C98D8B"/>
<path d="M56.9475 7.35805L55.9535 0.948806L56.7474 0.826172L57.7414 7.23542L56.9475 7.35805Z" fill="#C98D8B"/>
<path d="M61.3751 0.277573L61.8269 6.04138L64.7121 5.81547L64.7637 6.51255L61.0782 6.803L60.5748 0.335662L61.3751 0.271118V0.277573Z" fill="#C98D8B"/>
<path d="M67.1648 6.49961L67.0615 0.0129089L67.8683 0L67.9716 6.4867L67.1648 6.49961Z" fill="#C98D8B"/>
<path d="M70.7728 0.716503L70.8245 0.0258789L75.8589 0.400236L75.8073 1.09086L73.503 0.91659L73.6967 0.74232L73.2513 6.70621L72.451 6.64812L72.8963 0.68423L73.0641 0.884318L70.7728 0.716503V0.716503Z" fill="#C98D8B"/>
<path d="M79.9123 7.70018C79.383 7.60337 78.9312 7.39683 78.5633 7.0741C78.1889 6.75138 77.9308 6.32539 77.7759 5.79613C77.6209 5.26041 77.6145 4.62788 77.75 3.89207C77.8856 3.14981 78.1179 2.54955 78.4471 2.1042C78.7763 1.65884 79.17 1.34903 79.6347 1.18767C80.093 1.01985 80.59 0.987581 81.1192 1.0844C81.6485 1.18121 82.1003 1.38776 82.4682 1.71048C82.8426 2.0332 83.1008 2.45919 83.2557 2.99491C83.4106 3.53062 83.417 4.16316 83.2815 4.90542C83.1459 5.64768 82.9136 6.24148 82.5844 6.68684C82.2552 7.13219 81.8615 7.43555 81.3968 7.60337C80.9385 7.77118 80.4415 7.80345 79.9123 7.70664V7.70018ZM80.0478 6.97083C80.6481 7.08056 81.158 6.94502 81.584 6.57066C82.01 6.1963 82.3004 5.58959 82.4553 4.7376C82.6038 3.90498 82.5457 3.24018 82.281 2.72382C82.0164 2.21392 81.584 1.90411 80.9837 1.79438C80.3899 1.68466 79.88 1.82666 79.4475 2.21392C79.0151 2.60119 78.7247 3.2079 78.5697 4.04698C78.4148 4.89251 78.4729 5.56377 78.7505 6.06076C79.028 6.55775 79.454 6.86111 80.0478 6.97083Z" fill="#C98D8B"/>
<path d="M96.4872 9.86879C96.6098 9.60415 96.8099 9.41698 97.0939 9.30725C97.3714 9.20398 97.6554 9.21689 97.9394 9.34598C98.2234 9.47507 98.4235 9.68806 98.5268 9.97206C98.6365 10.2561 98.6301 10.5336 98.501 10.8047C98.3783 11.0693 98.1718 11.25 97.8878 11.3404C97.6038 11.4308 97.3198 11.4049 97.0358 11.2759C96.7518 11.1468 96.5582 10.9402 96.4549 10.6691C96.3517 10.398 96.3646 10.127 96.4872 9.86879V9.86879Z" fill="#C98D8B"/>
<path d="M107.815 19.7828C107.356 19.4408 107.04 19.0341 106.879 18.5565C106.717 18.0789 106.698 17.569 106.821 17.0268C106.943 16.4846 107.208 15.936 107.608 15.3938C108.034 14.8129 108.492 14.3999 108.976 14.1481C109.461 13.8964 109.951 13.7931 110.435 13.8383C110.919 13.8835 111.378 14.0578 111.797 14.3676C112.352 14.7807 112.701 15.2454 112.836 15.7746C112.972 16.3039 112.94 16.8396 112.733 17.3753L111.933 17.001C112.062 16.5944 112.081 16.2135 111.984 15.8456C111.887 15.4777 111.681 15.1808 111.365 14.9485C111.087 14.7484 110.777 14.6387 110.435 14.6258C110.087 14.6128 109.732 14.7097 109.357 14.9162C108.989 15.1227 108.634 15.4519 108.299 15.9102C107.995 16.3233 107.776 16.7364 107.647 17.143C107.518 17.5496 107.498 17.9304 107.589 18.279C107.679 18.634 107.892 18.9309 108.241 19.189C108.654 19.4924 109.06 19.6215 109.467 19.5828C109.874 19.544 110.209 19.3375 110.474 18.976L111.184 19.4988C110.906 19.8732 110.584 20.1314 110.216 20.2734C109.848 20.4154 109.454 20.4412 109.041 20.3573C108.628 20.2734 108.215 20.0797 107.808 19.7828H107.815Z" fill="#C98D8B"/>
<path d="M112.049 23.023L116.328 18.1499L116.935 18.6792L112.649 23.5523L112.042 23.023H112.049Z" fill="#C98D8B"/>
<path d="M115.108 25.8048L119.794 21.319L121.356 22.9519C121.866 23.4877 122.131 24.0105 122.137 24.5333C122.144 25.0496 121.944 25.5079 121.524 25.9081C121.111 26.3018 120.653 26.4825 120.13 26.4502C119.613 26.418 119.097 26.134 118.587 25.6047L117.58 24.5526L115.663 26.3857L115.108 25.8048ZM117.619 28.4317L118.458 25.0561L119.065 25.6886L118.335 29.1869L117.613 28.4317H117.619ZM117.993 24.1589L118.955 25.1658C119.291 25.5143 119.633 25.7015 119.981 25.7209C120.33 25.7403 120.64 25.6176 120.917 25.353C121.201 25.0819 121.343 24.7785 121.343 24.4429C121.343 24.1073 121.182 23.7717 120.859 23.436L119.852 22.384L117.993 24.1589Z" fill="#C98D8B"/>
<path d="M125.267 27.3345L125.752 27.9734L122.453 30.4778C121.969 30.8457 121.711 31.2329 121.679 31.6396C121.647 32.0462 121.782 32.4464 122.085 32.8401C122.382 33.2338 122.731 33.4662 123.131 33.5501C123.531 33.6275 123.97 33.4855 124.461 33.1176L127.759 30.6133L128.243 31.2523L124.945 33.7566C124.512 34.0858 124.086 34.2794 123.673 34.344C123.26 34.4021 122.866 34.344 122.499 34.1632C122.131 33.9825 121.795 33.6921 121.492 33.2919C121.188 32.8917 121.001 32.4915 120.924 32.0849C120.846 31.6783 120.891 31.2846 121.059 30.9038C121.227 30.5229 121.53 30.1615 121.963 29.8323L125.261 27.328L125.267 27.3345Z" fill="#C98D8B"/>
<path d="M125.887 39.8368C125.622 39.3914 125.5 38.9202 125.519 38.4168C125.539 37.9133 125.693 37.4293 125.99 36.9645C126.287 36.4998 126.726 36.0932 127.307 35.7511C127.791 35.4671 128.256 35.2864 128.708 35.2089C129.159 35.1315 129.579 35.1444 129.973 35.2348C130.366 35.3316 130.715 35.4994 131.031 35.7447C131.341 35.9835 131.606 36.2804 131.812 36.6354C132.07 37.0743 132.206 37.5067 132.219 37.9392C132.232 38.3716 132.116 38.8234 131.864 39.2881L131.244 38.7653C131.373 38.4232 131.431 38.1005 131.412 37.8036C131.393 37.5067 131.309 37.2292 131.16 36.9775C130.96 36.6418 130.689 36.3901 130.334 36.2158C129.979 36.0416 129.579 35.977 129.134 36.0093C128.688 36.0416 128.224 36.2029 127.74 36.4869C127.314 36.7386 126.978 37.0291 126.726 37.3647C126.481 37.7003 126.332 38.0489 126.3 38.4168C126.261 38.7847 126.345 39.1461 126.558 39.4947C126.72 39.7658 126.92 39.9723 127.172 40.1143C127.423 40.2563 127.707 40.3144 128.036 40.295C128.359 40.2692 128.714 40.1466 129.095 39.9207L129.224 40.1337C128.746 40.4112 128.301 40.5984 127.888 40.6952C127.468 40.792 127.094 40.7662 126.758 40.6371C126.423 40.5016 126.132 40.2369 125.894 39.8368H125.887ZM126.933 41.3665L128.178 40.4628L129.114 39.9142L128.333 38.4813L128.804 38.2038L130.031 40.2886L127.262 41.9215L126.939 41.3729L126.933 41.3665Z" fill="#C98D8B"/>
<path d="M128.637 44.7163L134.497 41.9344L134.846 42.6638L128.985 45.4457L128.637 44.7163Z" fill="#C98D8B"/>
<path d="M130.076 47.7692L136.931 47.582L137.273 48.4986L131.967 52.8166L131.67 52.0227L133.032 50.9254L132.129 48.505L130.373 48.5567L130.076 47.7628V47.7692ZM132.793 48.4792L133.555 50.5123L136.182 48.3695L132.793 48.4792V48.4792Z" fill="#C98D8B"/>
<path d="M133.62 58.8579L139.977 57.58L140.39 59.626C140.532 60.3231 140.461 60.8911 140.184 61.3364C139.906 61.7753 139.461 62.0593 138.86 62.1755C138.26 62.2981 137.75 62.2078 137.331 61.9044C136.905 61.6075 136.627 61.1041 136.485 60.407L136.234 59.1613L133.781 59.6518L133.62 58.8515V58.8579ZM136.918 59.0257L137.169 60.2715C137.26 60.7168 137.441 61.0266 137.712 61.2073C137.983 61.3881 138.312 61.4397 138.699 61.3623C139.093 61.2848 139.377 61.1041 139.564 60.833C139.751 60.5554 139.803 60.2005 139.712 59.7551L139.461 58.5094L136.918 59.0193V59.0257Z" fill="#C98D8B"/>
<path d="M141.352 65.8868L135.601 66.4741L135.891 69.3528L135.194 69.4238L134.82 65.7448L141.274 65.0864L141.358 65.8868H141.352Z" fill="#C98D8B"/>
<path d="M135.259 70.9792L141.778 73.1028L141.791 74.0838L135.343 76.3687L135.33 75.5232L136.982 74.9487L136.944 72.367L135.272 71.8248L135.259 70.9792V70.9792ZM137.576 72.5606L137.608 74.7293L140.803 73.5933L137.576 72.5606Z" fill="#C98D8B"/>
<path d="M134.82 80.9772C134.865 80.5448 134.981 80.1575 135.175 79.8154C135.369 79.4734 135.627 79.2087 135.956 79.0151C136.285 78.8279 136.673 78.7505 137.124 78.7892L137.047 79.5702C136.744 79.5379 136.492 79.5895 136.285 79.7122C136.079 79.8348 135.911 80.022 135.795 80.2543C135.679 80.4867 135.601 80.7513 135.569 81.0353C135.537 81.3451 135.556 81.6227 135.633 81.8615C135.711 82.1003 135.821 82.2939 135.969 82.4359C136.117 82.5779 136.292 82.6554 136.485 82.6812C136.756 82.707 136.989 82.6489 137.176 82.5005C137.363 82.352 137.525 82.1132 137.667 81.797L138.183 80.6997C138.428 80.1833 138.693 79.8025 138.964 79.5573C139.235 79.3055 139.596 79.2087 140.042 79.2539C140.539 79.3055 140.932 79.5379 141.204 79.9574C141.481 80.377 141.578 80.9385 141.507 81.6485C141.442 82.3069 141.236 82.8039 140.894 83.1459C140.552 83.488 140.126 83.6558 139.609 83.6558L139.693 82.8619C139.997 82.8426 140.242 82.7264 140.429 82.5134C140.616 82.3004 140.732 81.9906 140.778 81.571C140.823 81.1451 140.758 80.803 140.597 80.5513C140.435 80.2931 140.21 80.1511 139.919 80.1253C139.68 80.0994 139.487 80.1575 139.332 80.2931C139.177 80.4286 139.028 80.6481 138.886 80.9579L138.286 82.2488C138.086 82.6941 137.828 83.0362 137.525 83.2815C137.221 83.5267 136.847 83.6171 136.401 83.5719C136.059 83.5396 135.756 83.4106 135.498 83.204C135.24 82.991 135.046 82.7006 134.917 82.3262C134.788 81.9519 134.749 81.5065 134.807 80.9902L134.82 80.9772Z" fill="#C98D8B"/>
<path d="M140.074 86.5409L140.752 86.6829L139.725 91.627L139.048 91.485L139.519 89.2259L139.667 89.4389L133.813 88.219L133.974 87.4316L139.829 88.6515L139.609 88.7935L140.08 86.5409H140.074Z" fill="#C98D8B"/>
<path d="M132.716 92.5758L138.944 94.396L138.719 95.1705L132.49 93.3503L132.716 92.5758Z" fill="#C98D8B"/>
<path d="M130.56 98.572C130.767 98.0363 131.083 97.6297 131.496 97.3521C131.916 97.0746 132.4 96.9197 132.961 96.8939C133.516 96.868 134.11 96.9842 134.743 97.2295C135.414 97.4941 135.93 97.8233 136.305 98.2299C136.679 98.6366 136.905 99.0754 136.989 99.5595C137.073 100.044 137.021 100.528 136.827 101.012C136.576 101.657 136.214 102.115 135.737 102.38C135.259 102.645 134.736 102.754 134.162 102.703L134.31 101.831C134.736 101.851 135.111 101.767 135.44 101.58C135.769 101.393 136.008 101.115 136.15 100.747C136.272 100.431 136.298 100.102 136.221 99.7661C136.143 99.4304 135.956 99.1077 135.659 98.8044C135.362 98.501 134.949 98.2428 134.42 98.0427C133.936 97.8556 133.484 97.7523 133.058 97.7394C132.632 97.72 132.258 97.8039 131.941 97.9846C131.625 98.1654 131.386 98.4494 131.231 98.8495C131.044 99.3272 131.025 99.7596 131.173 100.14C131.322 100.521 131.606 100.792 132.019 100.954L131.703 101.773C131.27 101.606 130.935 101.36 130.702 101.044C130.47 100.721 130.341 100.353 130.315 99.9339C130.289 99.5079 130.367 99.0625 130.547 98.5914L130.56 98.572Z" fill="#C98D8B"/>
<path d="M128.927 102.806L133.645 107.783L133.194 108.654L126.436 107.582L126.83 106.834L128.559 107.118L129.753 104.826L128.54 103.555L128.934 102.806H128.927ZM130.212 105.304L129.211 107.227L132.561 107.75L130.218 105.304H130.212Z" fill="#C98D8B"/>
<path d="M113.798 123.331C113.979 123.144 114.192 123.008 114.43 122.925C114.669 122.841 114.966 122.789 115.321 122.763L119.826 122.447C120.156 122.421 120.459 122.447 120.743 122.531C121.027 122.615 121.266 122.75 121.466 122.944C121.672 123.15 121.801 123.389 121.853 123.667C121.905 123.944 121.866 124.235 121.75 124.538C121.634 124.842 121.427 125.145 121.137 125.435C120.866 125.713 120.582 125.906 120.285 126.016C119.988 126.126 119.704 126.165 119.433 126.119C119.162 126.074 118.923 125.952 118.723 125.758C118.529 125.571 118.4 125.351 118.329 125.1C118.258 124.848 118.245 124.558 118.303 124.222C118.355 123.886 118.477 123.499 118.665 123.054L119.278 123.034C119.129 123.428 119.032 123.751 119 124.009C118.968 124.267 118.981 124.48 119.039 124.648C119.097 124.816 119.187 124.964 119.316 125.087C119.491 125.261 119.704 125.338 119.955 125.319C120.207 125.3 120.44 125.184 120.659 124.958C120.917 124.693 121.046 124.428 121.046 124.157C121.046 123.886 120.949 123.667 120.769 123.486C120.633 123.357 120.478 123.26 120.291 123.209C120.104 123.15 119.878 123.131 119.6 123.157L115.128 123.473C114.947 123.493 114.798 123.518 114.682 123.557C114.566 123.596 114.456 123.673 114.34 123.783C114.217 123.906 114.153 124.067 114.153 124.248C114.153 124.428 114.256 124.641 114.456 124.867L113.921 125.409C113.591 125.048 113.404 124.687 113.372 124.332C113.34 123.97 113.475 123.635 113.785 123.325L113.798 123.331ZM116.683 120.401C116.941 120.143 117.212 119.936 117.496 119.788C117.78 119.639 118.071 119.542 118.355 119.504C118.639 119.465 118.91 119.478 119.168 119.555C119.42 119.626 119.646 119.755 119.839 119.949C120.214 120.317 120.349 120.743 120.246 121.227C120.143 121.711 119.833 122.26 119.323 122.873L118.845 122.679C119.226 122.208 119.446 121.801 119.51 121.459C119.575 121.117 119.484 120.833 119.245 120.594C119.084 120.44 118.897 120.343 118.671 120.304C118.445 120.265 118.213 120.298 117.955 120.394C117.703 120.491 117.445 120.672 117.193 120.93C116.896 121.227 116.69 121.563 116.567 121.937C116.444 122.305 116.393 122.705 116.412 123.118C116.431 123.538 116.502 123.964 116.631 124.403C116.761 124.842 116.935 125.28 117.148 125.713L116.528 125.9C116.276 125.416 116.07 124.919 115.928 124.428C115.779 123.931 115.702 123.447 115.696 122.97C115.683 122.492 115.76 122.04 115.915 121.608C116.07 121.175 116.328 120.775 116.69 120.414L116.683 120.401Z" fill="#C98D8B"/>
<path d="M104.568 138.318L103.542 138.848L99.5078 135.885L99.5788 135.846L99.6434 140.855L98.6429 141.371L95.6739 135.608L96.3968 135.233L98.9786 140.255L98.8495 140.319L98.7527 134.936L99.2303 134.691L103.529 137.879L103.445 137.925L100.876 132.929L101.593 132.561L104.562 138.325L104.568 138.318Z" fill="#C98D8B"/>
<path d="M92.6469 136.827L94.8672 142.92L91.1107 144.289L90.8719 143.637L93.8732 142.546L93.1245 140.5L90.2975 141.526L90.0587 140.874L92.8857 139.848L92.1241 137.763L89.1228 138.854L88.884 138.196L92.6404 136.827H92.6469Z" fill="#C98D8B"/>
<path d="M87.5156 145.386L85.6697 145.831C85.0307 145.986 84.4498 145.986 83.9205 145.844C83.3912 145.702 82.9394 145.418 82.5651 145.012C82.1907 144.605 81.9325 144.076 81.7776 143.437C81.6227 142.804 81.6227 142.223 81.7647 141.688C81.9067 141.152 82.1843 140.7 82.5909 140.326C82.9975 139.951 83.5139 139.687 84.1529 139.532L85.9988 139.086L87.5221 145.392L87.5156 145.386ZM86.5668 144.882L85.3792 139.951L84.3142 140.209C83.8366 140.326 83.4558 140.532 83.1653 140.829C82.8749 141.126 82.6813 141.481 82.5844 141.901C82.4876 142.32 82.5005 142.765 82.6103 143.237C82.7264 143.714 82.9201 144.114 83.1976 144.437C83.4751 144.76 83.8043 144.992 84.198 145.121C84.5918 145.25 85.0307 145.257 85.5018 145.141L86.5668 144.882V144.882Z" fill="#C98D8B"/>
<path d="M78.1243 140.739L79.0731 147.154L78.2792 147.271L77.3304 140.855L78.1243 140.739Z" fill="#C98D8B"/>
<path d="M71.7474 141.287C72.3154 141.255 72.8188 141.365 73.2448 141.629C73.6773 141.894 74.0129 142.268 74.2711 142.765C74.5228 143.262 74.6712 143.85 74.71 144.521C74.7551 145.237 74.6648 145.851 74.4582 146.354C74.2452 146.858 73.9354 147.251 73.5353 147.529C73.1351 147.806 72.6704 147.961 72.1476 147.994C71.4569 148.032 70.8889 147.897 70.45 147.574C70.0111 147.251 69.6949 146.819 69.5012 146.277L70.3597 146.051C70.521 146.444 70.7534 146.754 71.0568 146.974C71.3601 147.193 71.7151 147.296 72.1088 147.271C72.4509 147.251 72.7543 147.135 73.0318 146.922C73.3094 146.709 73.5224 146.406 73.6708 146.012C73.8257 145.618 73.8838 145.134 73.8451 144.566C73.8128 144.05 73.716 143.598 73.5546 143.204C73.3933 142.811 73.1609 142.507 72.8705 142.294C72.5736 142.081 72.2186 141.984 71.7926 142.01C71.2827 142.043 70.8825 142.204 70.5985 142.494C70.3145 142.785 70.1854 143.159 70.2112 143.605L69.3334 143.656C69.3076 143.191 69.3851 142.791 69.5787 142.443C69.7723 142.101 70.0563 141.823 70.4242 141.623C70.7986 141.423 71.2375 141.307 71.7409 141.274L71.7474 141.287Z" fill="#C98D8B"/>
<path d="M66.4354 141.513L66.2676 147.993L65.4608 147.974L65.6286 141.494L66.4354 141.513Z" fill="#C98D8B"/>
<path d="M61.5495 147.793L60.5942 147.684L57.9479 141.997H58.0189L57.3928 147.309L56.5925 147.213L57.3476 140.771L58.2383 140.874L60.9815 146.748L60.8588 146.735L61.5043 141.255L62.3046 141.352L61.5495 147.793V147.793Z" fill="#C98D8B"/>
<path d="M54.882 140.345L51.2224 146.148L50.2671 145.922L49.6346 139.112L50.4607 139.306L50.6157 141.049L53.1264 141.642L54.0623 140.151L54.8885 140.345H54.882ZM52.7779 142.204L50.6673 141.707L50.99 145.083L52.7843 142.204H52.7779Z" fill="#C98D8B"/>
<path d="M43.6835 137.124L41.1986 143.114L37.5067 141.584L37.7713 140.945L40.721 142.165L41.5536 140.151L38.7782 139.003L39.0428 138.364L41.8182 139.512L42.6702 137.46L39.7205 136.24L39.9916 135.588L43.6835 137.118V137.124Z" fill="#C98D8B"/>
<path d="M35.4864 133.168C35.8673 133.374 36.1771 133.639 36.4223 133.949C36.6676 134.258 36.8096 134.601 36.8548 134.975C36.9 135.349 36.8161 135.737 36.6095 136.137L35.9189 135.762C36.0609 135.498 36.119 135.246 36.0803 135.001C36.0415 134.762 35.9383 134.536 35.7704 134.336C35.6026 134.136 35.3896 133.968 35.1379 133.826C34.8604 133.678 34.6022 133.587 34.3505 133.568C34.0987 133.542 33.8793 133.574 33.6921 133.658C33.5049 133.742 33.3629 133.871 33.2661 134.039C33.1306 134.278 33.0983 134.517 33.1693 134.749C33.2403 134.981 33.3888 135.22 33.6276 135.472L34.4408 136.376C34.8216 136.802 35.0669 137.189 35.196 137.537C35.3186 137.886 35.2735 138.26 35.0605 138.647C34.8216 139.086 34.4537 139.357 33.9632 139.448C33.4727 139.538 32.9111 139.416 32.2851 139.073C31.7042 138.757 31.3233 138.376 31.1426 137.931C30.9619 137.486 30.9748 137.027 31.1684 136.55L31.8655 136.931C31.7687 137.221 31.7816 137.492 31.8978 137.744C32.0204 138.002 32.2657 138.228 32.6336 138.428C33.008 138.635 33.3436 138.712 33.6469 138.654C33.9438 138.602 34.1633 138.447 34.3053 138.196C34.4215 137.989 34.4408 137.789 34.3827 137.589C34.3247 137.389 34.1697 137.169 33.9438 136.924L32.9886 135.872C32.653 135.511 32.4335 135.149 32.3367 134.775C32.2334 134.4 32.2851 134.02 32.498 133.626C32.6659 133.323 32.8918 133.097 33.1887 132.935C33.4856 132.78 33.8277 132.716 34.2214 132.742C34.6151 132.767 35.0411 132.909 35.4929 133.155L35.4864 133.168Z" fill="#C98D8B"/>
<path d="M28.322 135.853L27.9283 136.421L23.7717 133.555L24.1654 132.987L26.0694 134.297L25.8177 134.349L29.2063 129.424L29.8711 129.882L26.4825 134.807L26.4373 134.549L28.3285 135.853H28.322Z" fill="#C98D8B"/>
<path d="M25.624 126.778L21.4351 131.728L18.3821 129.147L18.8275 128.617L21.2608 130.676L22.6679 129.011L20.3766 127.068L20.8219 126.539L23.1132 128.482L24.5461 126.784L22.1128 124.725L22.5646 124.19L25.6176 126.771L25.624 126.778Z" fill="#C98D8B"/>
<path d="M16.8913 126.836L16.3943 127.32L12.8766 123.693L13.3736 123.209L14.9808 124.867H14.7226L19.0148 120.704L19.5763 121.285L15.2841 125.448V125.19L16.8913 126.842V126.836Z" fill="#C98D8B"/>
<path d="M16.0263 117.361L11.0306 121.498L10.5142 120.879L15.5099 116.741L16.0263 117.361V117.361Z" fill="#C98D8B"/>
<path d="M12.2506 112.197C12.5733 112.668 12.7346 113.153 12.7346 113.656C12.7346 114.159 12.5862 114.65 12.2957 115.121C12.0053 115.599 11.5793 116.025 11.0242 116.412C10.4304 116.819 9.86242 117.064 9.32025 117.148C8.77808 117.225 8.28109 117.167 7.83573 116.967C7.39038 116.767 7.01602 116.451 6.71912 116.025C6.3254 115.457 6.15113 114.902 6.19631 114.36C6.24149 113.817 6.44803 113.32 6.80948 112.875L7.44847 113.488C7.19674 113.83 7.04829 114.185 7.02247 114.566C6.99666 114.947 7.08702 115.295 7.31292 115.618C7.50656 115.896 7.76473 116.102 8.08745 116.225C8.41018 116.354 8.77808 116.373 9.19762 116.302C9.61715 116.225 10.0561 116.031 10.5208 115.702C10.9468 115.405 11.2824 115.089 11.5341 114.747C11.7858 114.405 11.9278 114.05 11.9601 113.688C11.9924 113.327 11.8827 112.972 11.6374 112.617C11.3469 112.197 10.9984 111.939 10.6047 111.849C10.2045 111.758 9.82369 111.842 9.45579 112.094L8.9588 111.371C9.33961 111.106 9.72688 110.971 10.1271 110.952C10.5208 110.939 10.9016 111.035 11.2695 111.255C11.6374 111.474 11.9601 111.784 12.2506 112.197V112.197Z" fill="#C98D8B"/>
<path d="M9.66872 108.492L2.90448 109.622L2.43976 108.757L7.10631 103.755L7.50648 104.497L6.30596 105.769L7.53876 108.041L9.26854 107.75L9.66872 108.492V108.492ZM6.8804 108.157L5.8477 106.253L3.54347 108.738L6.8804 108.163V108.157Z" fill="#C98D8B"/>
</g>
<defs>
<clipPath id="clip0_56_1278">
<rect width="141.797" height="148" fill="white"/>
</clipPath>
</defs>
</svg>
