<svg width="531" height="203" viewBox="0 0 531 203" fill="none" xmlns="http://www.w3.org/2000/svg">
<g opacity="0.45">
<path d="M11.7301 7.85013V7.76013C12.2001 9.10013 12.8101 10.6501 13.5701 12.4101L24.4901 38.8601L26.1301 34.6601C26.1301 34.6601 26.1001 34.5901 26.0801 34.5501L12.9801 3.38013H9.95007L11.7301 7.84015V7.85013Z" stroke="#C98D8B" stroke-width="0.5" stroke-miterlimit="10"/>
<path d="M9.03012 8.89014L2.87012 46.5701H5.95012L10.9301 13.7401L9.03012 8.89014Z" stroke="#C98D8B" stroke-width="0.5" stroke-miterlimit="10"/>
<path d="M42.3001 7.82013L29.7301 34.6201C28.5501 37.0501 26.0801 42.7201 26.0801 42.7201L29.1401 42.6701L42.9701 13.0901L42.3001 7.83014V7.82013Z" stroke="#C98D8B" stroke-width="0.5" stroke-miterlimit="10"/>
<path d="M47.4201 3.39014H44.5801L50.8001 46.5701H53.9501L47.4201 3.39014Z" stroke="#C98D8B" stroke-width="0.5" stroke-miterlimit="10"/>
</g>
<g opacity="0.45">
<path d="M113.33 61.0501V60.9601C113.8 62.3001 114.41 63.8501 115.17 65.6101L126.09 92.0601L127.73 87.8601C127.73 87.8601 127.7 87.7901 127.69 87.7501L114.59 56.5801H111.56L113.34 61.0401L113.33 61.0501Z" stroke="#C98D8B" stroke-width="0.5" stroke-miterlimit="10"/>
<path d="M110.64 62.0901L104.47 99.7701H107.56L112.53 66.9401L110.64 62.0901Z" stroke="#C98D8B" stroke-width="0.5" stroke-miterlimit="10"/>
<path d="M143.9 61.0201L131.33 87.8201C130.15 90.2501 127.68 95.9201 127.68 95.9201L130.74 95.8701L144.57 66.2901L143.9 61.0301V61.0201Z" stroke="#C98D8B" stroke-width="0.5" stroke-miterlimit="10"/>
<path d="M149.02 56.5901H146.19L152.41 99.7701H155.55L149.02 56.5901Z" stroke="#C98D8B" stroke-width="0.5" stroke-miterlimit="10"/>
</g>
<g opacity="0.45">
<path d="M85.87 99.28L69.79 1H72.78L88.63 99.28H85.87Z" stroke="#C98D8B" stroke-width="0.5" stroke-miterlimit="10"/>
</g>
<g opacity="0.45">
<path d="M172.15 99.28L188.24 1H185.25L169.39 99.28H172.15Z" stroke="#C98D8B" stroke-width="0.5" stroke-miterlimit="10"/>
</g>
<g opacity="0.45">
<path d="M208.42 7.85013V7.76013C208.89 9.10013 209.5 10.6501 210.26 12.4101L221.18 38.8601L222.82 34.6601C222.82 34.6601 222.79 34.5901 222.78 34.5501L209.68 3.38013H206.65L208.43 7.84015L208.42 7.85013Z" stroke="#C98D8B" stroke-width="0.5" stroke-miterlimit="10"/>
<path d="M205.73 8.89014L199.56 46.5701H202.64L207.62 13.7401L205.73 8.89014Z" stroke="#C98D8B" stroke-width="0.5" stroke-miterlimit="10"/>
<path d="M238.99 7.82013L226.42 34.6201C225.24 37.0501 222.77 42.7201 222.77 42.7201L225.84 42.6701L239.67 13.0901L239 7.83014L238.99 7.82013Z" stroke="#C98D8B" stroke-width="0.5" stroke-miterlimit="10"/>
<path d="M244.11 3.39014H241.27L247.49 46.5701H250.64L244.11 3.39014Z" stroke="#C98D8B" stroke-width="0.5" stroke-miterlimit="10"/>
</g>
<g opacity="0.45">
<path d="M279.03 99.28L262.94 1H265.93L281.79 99.28H279.03Z" stroke="#C98D8B" stroke-width="0.5" stroke-miterlimit="10"/>
</g>
<g opacity="0.45">
<path d="M309.32 61.0501V60.9601C309.79 62.3001 310.4 63.8501 311.16 65.6101L322.08 92.0601L323.72 87.8601C323.72 87.8601 323.69 87.7901 323.67 87.7501L310.57 56.5801H307.54L309.32 61.0401V61.0501Z" stroke="#C98D8B" stroke-width="0.5" stroke-miterlimit="10"/>
<path d="M306.63 62.0901L300.46 99.7701H303.55L308.52 66.9401L306.63 62.0901Z" stroke="#C98D8B" stroke-width="0.5" stroke-miterlimit="10"/>
<path d="M339.89 61.0201L327.32 87.8201C326.14 90.2501 323.67 95.9201 323.67 95.9201L326.74 95.8701L340.56 66.2901L339.89 61.0301V61.0201Z" stroke="#C98D8B" stroke-width="0.5" stroke-miterlimit="10"/>
<path d="M345.01 56.5901H342.18L348.4 99.7701H351.54L345.01 56.5901Z" stroke="#C98D8B" stroke-width="0.5" stroke-miterlimit="10"/>
</g>
<g opacity="0.45">
<path d="M368.14 99.28L384.23 1H381.24L365.38 99.28H368.14Z" stroke="#C98D8B" stroke-width="0.5" stroke-miterlimit="10"/>
</g>
<g opacity="0.45">
<path d="M404.41 7.85013V7.76013C404.88 9.10013 405.49 10.6501 406.25 12.4101L417.17 38.8601L418.81 34.6601C418.81 34.6601 418.78 34.5901 418.76 34.5501L405.66 3.38013H402.63L404.41 7.84015V7.85013Z" stroke="#C98D8B" stroke-width="0.5" stroke-miterlimit="10"/>
<path d="M401.72 8.89014L395.55 46.5701H398.63L403.61 13.7401L401.72 8.89014Z" stroke="#C98D8B" stroke-width="0.5" stroke-miterlimit="10"/>
<path d="M434.98 7.82013L422.41 34.6201C421.23 37.0501 418.76 42.7201 418.76 42.7201L421.83 42.6701L435.65 13.0901L434.98 7.83014V7.82013Z" stroke="#C98D8B" stroke-width="0.5" stroke-miterlimit="10"/>
<path d="M440.1 3.39014H437.26L443.48 46.5701H446.63L440.1 3.39014Z" stroke="#C98D8B" stroke-width="0.5" stroke-miterlimit="10"/>
</g>
<g opacity="0.45">
<path d="M475.02 99.28L458.93 1H461.92L477.78 99.28H475.02Z" stroke="#C98D8B" stroke-width="0.5" stroke-miterlimit="10"/>
</g>
<g opacity="0.45">
<path d="M11.7301 110.2V110.11C12.2001 111.45 12.8101 113 13.5701 114.76L24.4901 141.21L26.1301 137.01C26.1301 137.01 26.1001 136.94 26.0801 136.9L12.9801 105.73H9.95007L11.7301 110.19V110.2Z" stroke="#C98D8B" stroke-width="0.5" stroke-miterlimit="10"/>
<path d="M9.03012 111.25L2.87012 148.92H5.95012L10.9301 116.09L9.03012 111.25Z" stroke="#C98D8B" stroke-width="0.5" stroke-miterlimit="10"/>
<path d="M42.3001 110.17L29.7301 136.97C28.5501 139.4 26.0801 145.07 26.0801 145.07L29.1401 145.02L42.9701 115.43L42.3001 110.17Z" stroke="#C98D8B" stroke-width="0.5" stroke-miterlimit="10"/>
<path d="M47.4201 105.74H44.5801L50.8001 148.92H53.9501L47.4201 105.74Z" stroke="#C98D8B" stroke-width="0.5" stroke-miterlimit="10"/>
</g>
<g opacity="0.45">
<path d="M113.33 163.4V163.31C113.8 164.65 114.41 166.2 115.17 167.96L126.09 194.41L127.73 190.21C127.73 190.21 127.7 190.14 127.69 190.1L114.59 158.93H111.56L113.34 163.39L113.33 163.4Z" stroke="#C98D8B" stroke-width="0.5" stroke-miterlimit="10"/>
<path d="M110.64 164.44L104.47 202.12H107.56L112.53 169.29L110.64 164.44Z" stroke="#C98D8B" stroke-width="0.5" stroke-miterlimit="10"/>
<path d="M143.9 163.37L131.33 190.17C130.15 192.6 127.68 198.27 127.68 198.27L130.74 198.22L144.57 168.63L143.9 163.37V163.37Z" stroke="#C98D8B" stroke-width="0.5" stroke-miterlimit="10"/>
<path d="M149.02 158.94H146.19L152.41 202.12H155.55L149.02 158.94Z" stroke="#C98D8B" stroke-width="0.5" stroke-miterlimit="10"/>
</g>
<g opacity="0.45">
<path d="M85.87 201.63L69.79 103.35H72.78L88.63 201.63H85.87Z" stroke="#C98D8B" stroke-width="0.5" stroke-miterlimit="10"/>
</g>
<g opacity="0.45">
<path d="M172.15 201.63L188.24 103.35H185.25L169.39 201.63H172.15Z" stroke="#C98D8B" stroke-width="0.5" stroke-miterlimit="10"/>
</g>
<g opacity="0.45">
<path d="M208.42 110.2V110.11C208.89 111.45 209.5 113 210.26 114.76L221.18 141.21L222.82 137.01C222.82 137.01 222.79 136.94 222.78 136.9L209.68 105.73H206.65L208.43 110.19L208.42 110.2Z" stroke="#C98D8B" stroke-width="0.5" stroke-miterlimit="10"/>
<path d="M205.73 111.25L199.56 148.92H202.64L207.62 116.09L205.73 111.25Z" stroke="#C98D8B" stroke-width="0.5" stroke-miterlimit="10"/>
<path d="M238.99 110.17L226.42 136.97C225.24 139.4 222.77 145.07 222.77 145.07L225.84 145.02L239.67 115.43L239 110.17H238.99Z" stroke="#C98D8B" stroke-width="0.5" stroke-miterlimit="10"/>
<path d="M244.11 105.74H241.27L247.49 148.92H250.64L244.11 105.74Z" stroke="#C98D8B" stroke-width="0.5" stroke-miterlimit="10"/>
</g>
<g opacity="0.45">
<path d="M279.03 201.63L262.94 103.35H265.93L281.79 201.63H279.03Z" stroke="#C98D8B" stroke-width="0.5" stroke-miterlimit="10"/>
</g>
<g opacity="0.45">
<path d="M309.32 163.4V163.31C309.79 164.65 310.4 166.2 311.16 167.96L322.08 194.41L323.72 190.21C323.72 190.21 323.69 190.14 323.67 190.1L310.57 158.93H307.54L309.32 163.39V163.4Z" stroke="#C98D8B" stroke-width="0.5" stroke-miterlimit="10"/>
<path d="M306.63 164.44L300.46 202.12H303.55L308.52 169.29L306.63 164.44Z" stroke="#C98D8B" stroke-width="0.5" stroke-miterlimit="10"/>
<path d="M339.89 163.37L327.32 190.17C326.14 192.6 323.67 198.27 323.67 198.27L326.74 198.22L340.56 168.63L339.89 163.37Z" stroke="#C98D8B" stroke-width="0.5" stroke-miterlimit="10"/>
<path d="M345.01 158.94H342.18L348.4 202.12H351.54L345.01 158.94Z" stroke="#C98D8B" stroke-width="0.5" stroke-miterlimit="10"/>
</g>
<g opacity="0.45">
<path d="M368.14 201.63L384.23 103.35H381.24L365.38 201.63H368.14Z" stroke="#C98D8B" stroke-width="0.5" stroke-miterlimit="10"/>
</g>
<g opacity="0.45">
<path d="M404.41 110.2V110.11C404.88 111.45 405.49 113 406.25 114.76L417.17 141.21L418.81 137.01C418.81 137.01 418.78 136.94 418.76 136.9L405.66 105.73H402.63L404.41 110.19V110.2Z" stroke="#C98D8B" stroke-width="0.5" stroke-miterlimit="10"/>
<path d="M401.72 111.25L395.55 148.92H398.63L403.61 116.09L401.72 111.25Z" stroke="#C98D8B" stroke-width="0.5" stroke-miterlimit="10"/>
<path d="M434.98 110.17L422.41 136.97C421.23 139.4 418.76 145.07 418.76 145.07L421.83 145.02L435.65 115.43L434.98 110.17Z" stroke="#C98D8B" stroke-width="0.5" stroke-miterlimit="10"/>
<path d="M440.1 105.74H437.26L443.48 148.92H446.63L440.1 105.74Z" stroke="#C98D8B" stroke-width="0.5" stroke-miterlimit="10"/>
</g>
<g opacity="0.45">
<path d="M475.02 201.63L458.93 103.35H461.92L477.78 201.63H475.02Z" stroke="#C98D8B" stroke-width="0.5" stroke-miterlimit="10"/>
</g>
<g opacity="0.45">
<path d="M501.95 61.0501V60.9601C502.42 62.3001 503.03 63.8501 503.79 65.6101L514.71 92.0601L516.35 87.8601C516.35 87.8601 516.32 87.7901 516.31 87.7501L503.21 56.5801H500.18L501.96 61.0401L501.95 61.0501Z" stroke="#C98D8B" stroke-width="0.5" stroke-miterlimit="10"/>
<path d="M499.26 62.0901L493.09 99.7701H496.17L501.15 66.9401L499.26 62.0901Z" stroke="#C98D8B" stroke-width="0.5" stroke-miterlimit="10"/>
<path d="M532.52 61.0201L519.95 87.8201C518.78 90.2501 516.3 95.9201 516.3 95.9201L519.37 95.8701L533.2 66.2901L532.53 61.0301L532.52 61.0201Z" stroke="#C98D8B" stroke-width="0.5" stroke-miterlimit="10"/>
</g>
<g opacity="0.45">
<path d="M501.95 163.4V163.31C502.42 164.65 503.03 166.2 503.79 167.96L514.71 194.41L516.35 190.21C516.35 190.21 516.32 190.14 516.31 190.1L503.21 158.93H500.18L501.96 163.39L501.95 163.4Z" stroke="#C98D8B" stroke-width="0.5" stroke-miterlimit="10"/>
<path d="M499.26 164.44L493.09 202.12H496.17L501.15 169.29L499.26 164.44Z" stroke="#C98D8B" stroke-width="0.5" stroke-miterlimit="10"/>
<path d="M532.52 163.37L519.95 190.17C518.78 192.6 516.3 198.27 516.3 198.27L519.37 198.22L533.2 168.63L532.53 163.37H532.52Z" stroke="#C98D8B" stroke-width="0.5" stroke-miterlimit="10"/>
</g>
</svg>
