<svg width="820" height="96" viewBox="0 0 842 96" fill="none" xmlns="http://www.w3.org/2000/svg">
<g opacity="0.45">
<path d="M11.7302 7.85013V7.76013C12.2002 9.10013 12.8102 10.6501 13.5702 12.4101L24.4902 38.8601L26.1302 34.6601C26.1302 34.6601 26.1002 34.5901 26.0802 34.5501L12.9802 3.38013H9.9502L11.7302 7.84015V7.85013Z" stroke="#C98D8B" stroke-width="0.5" stroke-miterlimit="10"/>
<path d="M9.03012 8.89014L2.87012 46.5701H5.95012L10.9301 13.7401L9.03012 8.89014Z" stroke="#C98D8B" stroke-width="0.5" stroke-miterlimit="10"/>
<path d="M42.3001 7.82013L29.7301 34.6201C28.5501 37.0501 26.0801 42.7201 26.0801 42.7201L29.1401 42.6701L42.9701 13.0901L42.3001 7.83014V7.82013Z" stroke="#C98D8B" stroke-width="0.5" stroke-miterlimit="10"/>
<path d="M47.4201 3.39014H44.5801L50.8001 46.5701H53.9501L47.4201 3.39014Z" stroke="#C98D8B" stroke-width="0.5" stroke-miterlimit="10"/>
</g>
<g opacity="0.45">
<path d="M113.33 61.0501V60.9601C113.8 62.3001 114.41 63.8501 115.17 65.6101L126.09 92.0601L127.73 87.8601C127.73 87.8601 127.7 87.7901 127.69 87.7501L114.59 56.5801H111.56L113.34 61.0401L113.33 61.0501Z" stroke="#C98D8B" stroke-width="0.5" stroke-miterlimit="10"/>
<path d="M110.64 62.0901L104.47 99.7701H107.56L112.53 66.9401L110.64 62.0901Z" stroke="#C98D8B" stroke-width="0.5" stroke-miterlimit="10"/>
<path d="M143.9 61.0201L131.33 87.8201C130.15 90.2501 127.68 95.9201 127.68 95.9201L130.74 95.8701L144.57 66.2901L143.9 61.0301V61.0201Z" stroke="#C98D8B" stroke-width="0.5" stroke-miterlimit="10"/>
<path d="M149.019 56.5901H146.189L152.409 99.7701H155.549L149.019 56.5901Z" stroke="#C98D8B" stroke-width="0.5" stroke-miterlimit="10"/>
</g>
<g opacity="0.45">
<path d="M85.87 99.28L69.79 1H72.78L88.63 99.28H85.87Z" stroke="#C98D8B" stroke-width="0.5" stroke-miterlimit="10"/>
</g>
<g opacity="0.45">
<path d="M172.15 99.28L188.24 1H185.25L169.39 99.28H172.15Z" stroke="#C98D8B" stroke-width="0.5" stroke-miterlimit="10"/>
</g>
<g opacity="0.45">
<path d="M208.419 7.85013V7.76013C208.889 9.10013 209.499 10.6501 210.259 12.4101L221.179 38.8601L222.819 34.6601C222.819 34.6601 222.789 34.5901 222.779 34.5501L209.679 3.38013H206.649L208.429 7.84015L208.419 7.85013Z" stroke="#C98D8B" stroke-width="0.5" stroke-miterlimit="10"/>
<path d="M205.73 8.89014L199.56 46.5701H202.64L207.62 13.7401L205.73 8.89014Z" stroke="#C98D8B" stroke-width="0.5" stroke-miterlimit="10"/>
<path d="M238.99 7.82013L226.42 34.6201C225.24 37.0501 222.77 42.7201 222.77 42.7201L225.84 42.6701L239.67 13.0901L239 7.83014L238.99 7.82013Z" stroke="#C98D8B" stroke-width="0.5" stroke-miterlimit="10"/>
<path d="M244.11 3.39014H241.27L247.49 46.5701H250.64L244.11 3.39014Z" stroke="#C98D8B" stroke-width="0.5" stroke-miterlimit="10"/>
</g>
<g opacity="0.45">
<path d="M279.029 99.28L262.939 1H265.929L281.789 99.28H279.029Z" stroke="#C98D8B" stroke-width="0.5" stroke-miterlimit="10"/>
</g>
<g opacity="0.45">
<path d="M309.32 61.0501V60.9601C309.79 62.3001 310.4 63.8501 311.16 65.6101L322.08 92.0601L323.72 87.8601C323.72 87.8601 323.69 87.7901 323.67 87.7501L310.57 56.5801H307.54L309.32 61.0401V61.0501Z" stroke="#C98D8B" stroke-width="0.5" stroke-miterlimit="10"/>
<path d="M306.63 62.0901L300.46 99.7701H303.55L308.52 66.9401L306.63 62.0901Z" stroke="#C98D8B" stroke-width="0.5" stroke-miterlimit="10"/>
<path d="M339.89 61.0201L327.32 87.8201C326.14 90.2501 323.67 95.9201 323.67 95.9201L326.74 95.8701L340.56 66.2901L339.89 61.0301V61.0201Z" stroke="#C98D8B" stroke-width="0.5" stroke-miterlimit="10"/>
<path d="M345.01 56.5901H342.18L348.4 99.7701H351.54L345.01 56.5901Z" stroke="#C98D8B" stroke-width="0.5" stroke-miterlimit="10"/>
</g>
<g opacity="0.45">
<path d="M368.14 99.28L384.23 1H381.24L365.38 99.28H368.14Z" stroke="#C98D8B" stroke-width="0.5" stroke-miterlimit="10"/>
</g>
<g opacity="0.45">
<path d="M404.41 7.85013V7.76013C404.88 9.10013 405.49 10.6501 406.25 12.4101L417.17 38.8601L418.81 34.6601C418.81 34.6601 418.78 34.5901 418.76 34.5501L405.66 3.38013H402.63L404.41 7.84015V7.85013Z" stroke="#C98D8B" stroke-width="0.5" stroke-miterlimit="10"/>
<path d="M401.72 8.89014L395.55 46.5701H398.63L403.61 13.7401L401.72 8.89014Z" stroke="#C98D8B" stroke-width="0.5" stroke-miterlimit="10"/>
<path d="M434.98 7.82013L422.41 34.6201C421.23 37.0501 418.76 42.7201 418.76 42.7201L421.83 42.6701L435.65 13.0901L434.98 7.83014V7.82013Z" stroke="#C98D8B" stroke-width="0.5" stroke-miterlimit="10"/>
<path d="M440.1 3.39014H437.26L443.48 46.5701H446.63L440.1 3.39014Z" stroke="#C98D8B" stroke-width="0.5" stroke-miterlimit="10"/>
</g>
<g opacity="0.45">
<path d="M475.02 99.28L458.93 1H461.92L477.78 99.28H475.02Z" stroke="#C98D8B" stroke-width="0.5" stroke-miterlimit="10"/>
</g>
<g opacity="0.45">
<path d="M501.95 61.0501V60.9601C502.42 62.3001 503.03 63.8501 503.79 65.6101L514.71 92.0601L516.35 87.8601C516.35 87.8601 516.32 87.7901 516.31 87.7501L503.21 56.5801H500.18L501.96 61.0401L501.95 61.0501Z" stroke="#C98D8B" stroke-width="0.5" stroke-miterlimit="10"/>
<path d="M499.26 62.0901L493.09 99.7701H496.17L501.15 66.9401L499.26 62.0901Z" stroke="#C98D8B" stroke-width="0.5" stroke-miterlimit="10"/>
<path d="M532.52 61.0201L519.95 87.8201C518.78 90.2501 516.3 95.9201 516.3 95.9201L519.37 95.8701L533.2 66.2901L532.53 61.0301L532.52 61.0201Z" stroke="#C98D8B" stroke-width="0.5" stroke-miterlimit="10"/>
<path d="M537.64 56.5901H534.8L541.03 99.7701H544.17L537.64 56.5901Z" stroke="#C98D8B" stroke-width="0.5" stroke-miterlimit="10"/>
</g>
<g opacity="0.45">
<path d="M560.77 99.28L576.85 1H573.87L558.01 99.28H560.77Z" stroke="#C98D8B" stroke-width="0.5" stroke-miterlimit="10"/>
</g>
<g opacity="0.45">
<path d="M597.03 7.85013V7.76013C597.5 9.10013 598.11 10.6501 598.87 12.4101L609.79 38.8601L611.43 34.6601C611.43 34.6601 611.4 34.5901 611.38 34.5501L598.28 3.38013H595.25L597.03 7.84015V7.85013Z" stroke="#C98D8B" stroke-width="0.5" stroke-miterlimit="10"/>
<path d="M594.34 8.89014L588.18 46.5701H591.26L596.24 13.7401L594.34 8.89014Z" stroke="#C98D8B" stroke-width="0.5" stroke-miterlimit="10"/>
<path d="M627.61 7.82013L615.04 34.6201C613.87 37.0501 611.39 42.7201 611.39 42.7201L614.46 42.6701L628.29 13.0901L627.62 7.83014L627.61 7.82013Z" stroke="#C98D8B" stroke-width="0.5" stroke-miterlimit="10"/>
<path d="M632.73 3.39014H629.89L636.11 46.5701H639.26L632.73 3.39014Z" stroke="#C98D8B" stroke-width="0.5" stroke-miterlimit="10"/>
</g>
<g opacity="0.45">
<path d="M667.65 99.28L651.56 1H654.55L670.4 99.28H667.65Z" stroke="#C98D8B" stroke-width="0.5" stroke-miterlimit="10"/>
</g>
<g opacity="0.45">
<path d="M697.94 61.0501V60.9601C698.41 62.3001 699.02 63.8501 699.78 65.6101L710.7 92.0601L712.34 87.8601C712.34 87.8601 712.31 87.7901 712.29 87.7501L699.19 56.5801H696.16L697.94 61.0401V61.0501Z" stroke="#C98D8B" stroke-width="0.5" stroke-miterlimit="10"/>
<path d="M695.25 62.0901L689.08 99.7701H692.16L697.14 66.9401L695.25 62.0901Z" stroke="#C98D8B" stroke-width="0.5" stroke-miterlimit="10"/>
<path d="M728.51 61.0201L715.94 87.8201C714.77 90.2501 712.29 95.9201 712.29 95.9201L715.36 95.8701L729.19 66.2901L728.52 61.0301L728.51 61.0201Z" stroke="#C98D8B" stroke-width="0.5" stroke-miterlimit="10"/>
<path d="M733.63 56.5901H730.79L737.02 99.7701H740.16L733.63 56.5901Z" stroke="#C98D8B" stroke-width="0.5" stroke-miterlimit="10"/>
</g>
<g opacity="0.45">
<path d="M756.76 99.28L772.84 1H769.86L754 99.28H756.76Z" stroke="#C98D8B" stroke-width="0.5" stroke-miterlimit="10"/>
</g>
<g opacity="0.45">
<path d="M793.02 7.85013V7.76013C793.49 9.10013 794.1 10.6501 794.86 12.4101L805.78 38.8601L807.42 34.6601C807.42 34.6601 807.39 34.5901 807.37 34.5501L794.27 3.38013H791.24L793.02 7.84015V7.85013Z" stroke="#C98D8B" stroke-width="0.5" stroke-miterlimit="10"/>
<path d="M790.33 8.89014L784.17 46.5701H787.25L792.23 13.7401L790.33 8.89014Z" stroke="#C98D8B" stroke-width="0.5" stroke-miterlimit="10"/>
<path d="M823.59 7.82013L811.02 34.6201C809.85 37.0501 807.37 42.7201 807.37 42.7201L810.44 42.6701L824.27 13.0901L823.6 7.83014L823.59 7.82013Z" stroke="#C98D8B" stroke-width="0.5" stroke-miterlimit="10"/>
<path d="M828.72 3.39014H825.88L832.1 46.5701H835.25L828.72 3.39014Z" stroke="#C98D8B" stroke-width="0.5" stroke-miterlimit="10"/>
</g>
</svg>
