<svg width="208" height="187" viewBox="0 0 208 187" fill="none" xmlns="http://www.w3.org/2000/svg">
<g style="mix-blend-mode:multiply">
<rect width="208" height="187" fill="#F6DFD9"/>
</g>
<g clip-path="url(#clip0_226_5552)">
<path d="M89.483 80.9319V80.8672C89.8137 81.8138 90.2432 82.9048 90.7792 84.1478L98.4808 102.797L99.6365 99.8361C99.6365 99.8361 99.6136 99.7867 99.6022 99.7601L90.3649 77.7805H88.2285L89.483 80.9243V80.9319Z" fill="#1E262D"/>
<path d="M87.5852 81.6654L83.2402 108.233H85.4108L88.9233 85.0829L87.5852 81.6616V81.6654Z" fill="#1E262D"/>
<path d="M111.044 80.9129L102.179 99.8095C101.354 101.524 99.6055 105.519 99.6055 105.519L101.768 105.485L111.519 84.6268L111.048 80.9167L111.04 80.9091L111.044 80.9129Z" fill="#1E262D"/>
<path d="M114.656 77.7882H112.652L117.039 108.233H119.259L114.656 77.7882Z" fill="#1E262D"/>
<path d="M62.4405 81.1902C62.2771 81.137 62.1516 81.0306 62.0718 80.8747C61.992 80.7189 61.9806 80.5554 62.0376 80.3805C62.0946 80.2057 62.2049 80.0764 62.3645 79.9928C62.5242 79.9092 62.6876 79.894 62.8511 79.951C63.0145 80.0042 63.1362 80.1145 63.2046 80.2741C63.2768 80.4338 63.2844 80.601 63.2236 80.7759C63.1666 80.9508 63.0602 81.0762 62.9081 81.156C62.7561 81.2359 62.6002 81.2473 62.4367 81.194L62.4405 81.1902Z" fill="#1E262D"/>
<path d="M68.6144 71.9909C68.4319 72.2722 68.2039 72.4699 67.9302 72.5839C67.6565 72.698 67.3562 72.7246 67.033 72.6714C66.7099 72.6181 66.3792 72.4851 66.0447 72.2684C65.6873 72.0365 65.4289 71.7856 65.2616 71.5081C65.0943 71.2306 65.0183 70.9493 65.0259 70.6604C65.0335 70.3715 65.1209 70.0978 65.292 69.8393C65.5125 69.4972 65.7786 69.2767 66.0827 69.1779C66.3906 69.0791 66.7023 69.0791 67.0292 69.1779L66.8392 69.6645C66.5959 69.6036 66.3716 69.6036 66.1587 69.6759C65.9458 69.7443 65.7786 69.8773 65.6531 70.0712C65.5429 70.2385 65.4935 70.4247 65.4973 70.63C65.5011 70.8353 65.5695 71.0406 65.7064 71.2534C65.8394 71.4625 66.0485 71.6602 66.3298 71.8427C66.5845 72.0061 66.8354 72.1202 67.0787 72.181C67.3219 72.2418 67.5462 72.238 67.7515 72.1734C67.9568 72.1087 68.124 71.9719 68.2609 71.759C68.4243 71.5043 68.489 71.261 68.4471 71.0216C68.4091 70.7859 68.2761 70.5958 68.0556 70.4513L68.3369 70.018C68.565 70.1662 68.7284 70.3487 68.8273 70.5578C68.9223 70.7707 68.9527 70.9987 68.9185 71.2458C68.8843 71.4929 68.7855 71.74 68.6258 71.9909H68.6144Z" fill="#1E262D"/>
<path d="M67.6637 66.6423L70.3247 68.7711L71.389 67.4406L71.7122 67.6991L70.3513 69.3983L67.3672 67.0111L67.6637 66.6423Z" fill="#1E262D"/>
<path d="M72.669 66.6499L69.875 64.046L70.1981 63.7001L72.9921 66.304L72.669 66.6499Z" fill="#1E262D"/>
<path d="M71.7988 62.0541L72.2208 61.6778L75.7637 62.7308L75.7333 62.7574L73.6387 60.4119L73.9922 60.0964L76.5353 62.9437L76.14 63.2972L72.4793 62.2138L72.5325 62.1644L74.6955 64.5859L74.342 64.9014L71.7988 62.0541Z" fill="#1E262D"/>
<path d="M78.0935 61.7461L75.8203 58.6746L76.2005 58.3933L78.4737 61.4648L78.0935 61.7461Z" fill="#1E262D"/>
<path d="M81.2415 59.7047C80.9564 59.8796 80.6637 59.9594 80.3672 59.9442C80.0707 59.929 79.7894 59.8264 79.5195 59.6363C79.2496 59.45 79.0101 59.1839 78.801 58.8456C78.5805 58.4845 78.4513 58.1424 78.4247 57.823C78.3943 57.4999 78.4437 57.211 78.5767 56.9563C78.7098 56.7016 78.9075 56.4926 79.1697 56.3291C79.5157 56.1162 79.8502 56.0326 80.1695 56.0744C80.4888 56.1162 80.7701 56.2531 81.021 56.4849L80.6409 56.8423C80.4508 56.6826 80.2417 56.5876 80.0213 56.5572C79.8008 56.5268 79.5917 56.5724 79.394 56.694C79.223 56.8005 79.0937 56.9449 79.0101 57.1312C78.9265 57.3175 78.8999 57.5341 78.9303 57.7812C78.9607 58.0283 79.0633 58.2944 79.2382 58.5795C79.3978 58.838 79.5727 59.0471 79.7666 59.2067C79.9604 59.3664 80.1619 59.4614 80.3748 59.488C80.5877 59.5184 80.8005 59.4652 81.0134 59.336C81.2719 59.1763 81.4316 58.9825 81.5 58.7506C81.5646 58.5187 81.5304 58.2906 81.3936 58.0663L81.8345 57.7964C81.979 58.0283 82.0474 58.264 82.0436 58.4959C82.0398 58.7278 81.9676 58.9482 81.8307 59.1573C81.6939 59.3664 81.4962 59.5489 81.2453 59.7047H81.2415Z" fill="#1E262D"/>
<path d="M83.5034 58.2983L83.0586 54.2841L83.5794 54.037L86.3734 56.9412L85.921 57.1541L85.2102 56.4052L83.8341 57.0553L83.9519 58.0855L83.4996 58.2983H83.5034ZM83.7885 56.6675L84.9441 56.1201L83.5566 54.6832L83.7885 56.6675Z" fill="#1E262D"/>
<path d="M88.8516 51.95L89.5092 51.7751L91.4555 53.9913L91.4099 54.0027L92.0067 51.1137L92.6491 50.9426L93.6261 54.6338L93.1623 54.7554L92.3108 51.5394L92.3944 51.5166L91.771 54.6262L91.4669 54.706L89.399 52.3263L89.4522 52.3111L90.2999 55.5081L89.8399 55.6297L88.863 51.9386L88.8516 51.95Z" fill="#1E262D"/>
<path d="M95.5385 54.3334L94.9531 50.5587L95.4207 50.4865L96.0061 54.2612L95.5385 54.3334Z" fill="#1E262D"/>
<path d="M98.1472 50.1633L98.4132 53.558L100.112 53.4249L100.143 53.8355L97.9723 54.0065L97.6758 50.1976L98.1472 50.1595V50.1633Z" fill="#1E262D"/>
<path d="M101.557 53.8279L101.496 50.0075L101.971 49.9999L102.032 53.8203L101.557 53.8279Z" fill="#1E262D"/>
<path d="M103.682 50.4219L103.712 50.0151L106.677 50.2356L106.647 50.6424L105.29 50.5397L105.404 50.4371L105.141 53.9496L104.67 53.9154L104.932 50.4029L105.031 50.5207L103.682 50.4219Z" fill="#1E262D"/>
<path d="M109.065 54.535C108.753 54.478 108.487 54.3563 108.27 54.1662C108.05 53.9762 107.898 53.7253 107.806 53.4136C107.715 53.0981 107.711 52.7255 107.791 52.2922C107.871 51.855 108.008 51.5015 108.202 51.2392C108.396 50.9769 108.627 50.7944 108.901 50.6994C109.171 50.6006 109.464 50.5815 109.775 50.6386C110.087 50.6956 110.353 50.8172 110.57 51.0073C110.79 51.1974 110.942 51.4483 111.034 51.7638C111.125 52.0793 111.129 52.4518 111.049 52.889C110.969 53.3261 110.832 53.6759 110.638 53.9382C110.444 54.2005 110.213 54.3791 109.939 54.478C109.669 54.5768 109.376 54.5958 109.065 54.5388V54.535ZM109.144 54.1054C109.498 54.17 109.798 54.0902 110.049 53.8697C110.3 53.6493 110.471 53.2919 110.562 52.7901C110.65 52.2998 110.616 51.9082 110.46 51.6041C110.304 51.3038 110.049 51.1213 109.696 51.0567C109.346 50.9921 109.046 51.0757 108.791 51.3038C108.536 51.5319 108.365 51.8892 108.274 52.3834C108.183 52.8814 108.217 53.2767 108.38 53.5694C108.544 53.8621 108.795 54.0408 109.144 54.1054Z" fill="#1E262D"/>
<path d="M118.827 55.8122C118.9 55.6563 119.018 55.5461 119.185 55.4815C119.348 55.4206 119.516 55.4282 119.683 55.5043C119.85 55.5803 119.968 55.7057 120.029 55.873C120.093 56.0403 120.09 56.2037 120.014 56.3634C119.941 56.5192 119.82 56.6257 119.652 56.6789C119.485 56.7321 119.318 56.7169 119.151 56.6409C118.983 56.5649 118.869 56.4432 118.808 56.2836C118.748 56.1239 118.755 55.9642 118.827 55.8122Z" fill="#1E262D"/>
<path d="M125.499 61.6511C125.229 61.4496 125.043 61.2101 124.948 60.9288C124.853 60.6475 124.842 60.3472 124.914 60.0279C124.986 59.7086 125.142 59.3854 125.378 59.0661C125.629 58.724 125.899 58.4807 126.184 58.3325C126.469 58.1842 126.758 58.1234 127.043 58.15C127.328 58.1766 127.598 58.2792 127.845 58.4617C128.172 58.705 128.377 58.9787 128.457 59.2904C128.537 59.6021 128.518 59.9176 128.396 60.2331L127.925 60.0127C128.001 59.7732 128.012 59.5489 127.955 59.3322C127.898 59.1155 127.776 58.9407 127.59 58.8038C127.427 58.686 127.244 58.6214 127.043 58.6138C126.837 58.6062 126.628 58.6632 126.408 58.7848C126.191 58.9065 125.982 59.1003 125.784 59.3702C125.606 59.6135 125.477 59.8568 125.401 60.0963C125.325 60.3358 125.313 60.5601 125.366 60.7653C125.42 60.9744 125.545 61.1493 125.75 61.3013C125.994 61.48 126.233 61.556 126.473 61.5332C126.712 61.5104 126.91 61.3888 127.066 61.1759L127.484 61.4838C127.32 61.7043 127.13 61.8563 126.913 61.94C126.697 62.0236 126.465 62.0388 126.222 61.9894C125.978 61.94 125.735 61.8259 125.496 61.6511H125.499Z" fill="#1E262D"/>
<path d="M127.99 63.5595L130.51 60.6895L130.868 61.0012L128.344 63.8712L127.986 63.5595H127.99Z" fill="#1E262D"/>
<path d="M129.793 65.1977L132.553 62.5558L133.473 63.5175C133.773 63.8331 133.929 64.141 133.933 64.4489C133.936 64.753 133.819 65.0229 133.572 65.2586C133.328 65.4905 133.058 65.5969 132.75 65.5779C132.446 65.5589 132.142 65.3916 131.842 65.0799L131.249 64.4603L130.12 65.5399L129.793 65.1977ZM131.272 66.7449L131.766 64.7568L132.123 65.1293L131.694 67.1897L131.268 66.7449H131.272ZM131.492 64.2284L132.059 64.8214C132.256 65.0267 132.458 65.1369 132.663 65.1483C132.868 65.1597 133.051 65.0875 133.214 64.9316C133.381 64.772 133.465 64.5933 133.465 64.3957C133.465 64.198 133.37 64.0003 133.18 63.8026L132.587 63.183L131.492 64.2284Z" fill="#1E262D"/>
<path d="M135.775 66.0988L136.06 66.4751L134.118 67.95C133.833 68.1667 133.681 68.3948 133.662 68.6343C133.643 68.8738 133.722 69.1095 133.901 69.3413C134.076 69.5732 134.281 69.7101 134.517 69.7595C134.753 69.8051 135.011 69.7215 135.3 69.5048L137.243 68.0299L137.528 68.4062L135.585 69.8811C135.33 70.075 135.08 70.1891 134.836 70.2271C134.593 70.2613 134.361 70.2271 134.144 70.1206C133.928 70.0142 133.73 69.8431 133.551 69.6074C133.373 69.3718 133.263 69.1361 133.217 68.8966C133.171 68.6571 133.198 68.4252 133.297 68.2009C133.396 67.9767 133.574 67.7638 133.829 67.5699L135.771 66.095L135.775 66.0988Z" fill="#1E262D"/>
<path d="M136.142 73.4621C135.986 73.1998 135.914 72.9223 135.925 72.6258C135.936 72.3293 136.028 72.0442 136.202 71.7705C136.377 71.4968 136.636 71.2573 136.978 71.0558C137.263 70.8886 137.537 70.7821 137.803 70.7365C138.069 70.6909 138.316 70.6985 138.548 70.7517C138.78 70.8087 138.985 70.9076 139.171 71.052C139.354 71.1927 139.51 71.3675 139.631 71.5766C139.783 71.8351 139.863 72.0898 139.871 72.3445C139.878 72.5992 139.81 72.8653 139.662 73.139L139.297 72.8311C139.373 72.6296 139.407 72.4395 139.396 72.2646C139.384 72.0898 139.335 71.9263 139.247 71.7781C139.13 71.5804 138.97 71.4321 138.761 71.3295C138.552 71.2269 138.316 71.1889 138.054 71.2079C137.791 71.2269 137.518 71.3219 137.233 71.4892C136.982 71.6374 136.784 71.8085 136.636 72.0062C136.491 72.2038 136.404 72.4091 136.385 72.6258C136.362 72.8425 136.412 73.0553 136.537 73.2606C136.632 73.4203 136.75 73.5419 136.898 73.6255C137.046 73.7092 137.214 73.7434 137.408 73.732C137.598 73.7168 137.807 73.6445 138.031 73.5115L138.107 73.6369C137.826 73.8004 137.563 73.9106 137.32 73.9677C137.073 74.0247 136.853 74.0095 136.655 73.9335C136.457 73.8536 136.286 73.6978 136.145 73.4621H136.142ZM136.757 74.363L137.491 73.8308L138.042 73.5077L137.582 72.6638L137.86 72.5003L138.582 73.7282L136.951 74.6899L136.761 74.3668L136.757 74.363Z" fill="#1E262D"/>
<path d="M137.762 76.3359L141.213 74.6975L141.419 75.1271L137.967 76.7655L137.762 76.3359Z" fill="#1E262D"/>
<path d="M138.609 78.1339L142.646 78.0237L142.848 78.5635L139.723 81.1066L139.548 80.639L140.35 79.9928L139.818 78.5673L138.784 78.5977L138.609 78.1301V78.1339ZM140.21 78.5521L140.658 79.7495L142.205 78.4875L140.21 78.5521Z" fill="#1E262D"/>
<path d="M140.695 84.6648L144.44 83.9121L144.683 85.1171C144.767 85.5277 144.725 85.8622 144.561 86.1245C144.398 86.383 144.136 86.5503 143.782 86.6187C143.429 86.6909 143.128 86.6377 142.881 86.459C142.63 86.2842 142.467 85.9877 142.383 85.5771L142.235 84.8434L140.79 85.1324L140.695 84.661V84.6648ZM142.638 84.7636L142.786 85.4973C142.839 85.7596 142.946 85.942 143.105 86.0485C143.265 86.1549 143.459 86.1853 143.687 86.1397C143.919 86.0941 144.086 85.9877 144.196 85.828C144.307 85.6645 144.337 85.4555 144.284 85.1932L144.136 84.4595L142.638 84.7598V84.7636Z" fill="#1E262D"/>
<path d="M145.249 88.8044L141.862 89.1503L142.033 90.8457L141.623 90.8875L141.402 88.7207L145.204 88.333L145.253 88.8044H145.249Z" fill="#1E262D"/>
<path d="M141.66 91.8036L145.5 93.0542L145.507 93.6321L141.71 94.9777L141.702 94.4798L142.675 94.1414L142.652 92.6209L141.668 92.3016L141.66 91.8036ZM143.025 92.7349L143.044 94.0122L144.926 93.3431L143.025 92.7349Z" fill="#1E262D"/>
<path d="M141.402 97.692C141.429 97.4373 141.497 97.2092 141.611 97.0077C141.725 96.8063 141.877 96.6504 142.071 96.5364C142.265 96.4261 142.493 96.3805 142.759 96.4033L142.713 96.8633C142.535 96.8443 142.387 96.8747 142.265 96.9469C142.143 97.0191 142.044 97.1294 141.976 97.2662C141.908 97.4031 141.862 97.5589 141.843 97.7262C141.824 97.9086 141.835 98.0721 141.881 98.2128C141.927 98.3534 141.991 98.4675 142.079 98.5511C142.166 98.6347 142.269 98.6803 142.383 98.6955C142.542 98.7107 142.679 98.6765 142.79 98.5891C142.9 98.5017 142.995 98.361 143.078 98.1747L143.383 97.5285C143.527 97.2244 143.683 97.0001 143.842 96.8557C144.002 96.7074 144.215 96.6504 144.477 96.677C144.77 96.7074 145.002 96.8443 145.162 97.0914C145.325 97.3384 145.382 97.6692 145.34 98.0873C145.302 98.4751 145.181 98.7678 144.979 98.9692C144.778 99.1707 144.527 99.2695 144.223 99.2695L144.272 98.802C144.451 98.7906 144.595 98.7221 144.705 98.5967C144.816 98.4713 144.884 98.2888 144.911 98.0417C144.937 97.7908 144.899 97.5893 144.804 97.4411C144.709 97.289 144.576 97.2054 144.405 97.1902C144.264 97.175 144.15 97.2092 144.059 97.289C143.968 97.3689 143.881 97.4981 143.797 97.6806L143.443 98.4408C143.326 98.7031 143.173 98.9046 142.995 99.0491C142.816 99.1935 142.596 99.2467 142.333 99.2201C142.132 99.2011 141.953 99.1251 141.801 99.0034C141.649 98.878 141.535 98.7069 141.459 98.4865C141.383 98.266 141.36 98.0037 141.394 97.6996L141.402 97.692Z" fill="#1E262D"/>
<path d="M144.496 100.969L144.895 101.053L144.291 103.964L143.892 103.881L144.169 102.55L144.256 102.676L140.809 101.957L140.904 101.493L144.351 102.212L144.222 102.296L144.5 100.969H144.496Z" fill="#1E262D"/>
<path d="M140.164 104.523L143.833 105.595L143.7 106.051L140.031 104.979L140.164 104.523Z" fill="#1E262D"/>
<path d="M138.893 108.055C139.015 107.739 139.201 107.5 139.445 107.336C139.692 107.173 139.977 107.081 140.308 107.066C140.634 107.051 140.984 107.119 141.357 107.264C141.752 107.42 142.056 107.614 142.277 107.853C142.497 108.093 142.63 108.351 142.68 108.636C142.729 108.921 142.699 109.206 142.585 109.491C142.436 109.872 142.223 110.141 141.942 110.297C141.661 110.453 141.353 110.518 141.015 110.487L141.102 109.974C141.353 109.986 141.573 109.936 141.767 109.826C141.961 109.716 142.102 109.552 142.185 109.336C142.258 109.149 142.273 108.955 142.227 108.758C142.182 108.56 142.071 108.37 141.896 108.191C141.722 108.013 141.478 107.861 141.167 107.743C140.882 107.633 140.615 107.572 140.365 107.564C140.114 107.553 139.893 107.602 139.707 107.709C139.521 107.815 139.38 107.982 139.289 108.218C139.179 108.499 139.167 108.754 139.255 108.978C139.342 109.203 139.509 109.362 139.753 109.457L139.566 109.94C139.312 109.841 139.114 109.697 138.977 109.51C138.84 109.32 138.764 109.104 138.749 108.857C138.734 108.606 138.779 108.343 138.886 108.066L138.893 108.055Z" fill="#1E262D"/>
<path d="M137.932 110.548L140.711 113.479L140.445 113.992L136.465 113.361L136.697 112.92L137.715 113.088L138.419 111.738L137.704 110.989L137.936 110.548H137.932ZM138.689 112.019L138.099 113.152L140.072 113.46L138.692 112.019H138.689Z" fill="#1E262D"/>
<path d="M129.023 122.637C129.13 122.526 129.255 122.446 129.396 122.397C129.536 122.348 129.711 122.317 129.92 122.302L132.574 122.116C132.768 122.101 132.946 122.116 133.113 122.165C133.281 122.215 133.421 122.294 133.539 122.408C133.661 122.53 133.737 122.671 133.767 122.834C133.798 122.998 133.775 123.169 133.706 123.347C133.638 123.526 133.516 123.705 133.345 123.876C133.186 124.039 133.018 124.153 132.844 124.218C132.669 124.283 132.501 124.305 132.342 124.279C132.182 124.252 132.041 124.18 131.924 124.066C131.81 123.956 131.734 123.826 131.692 123.678C131.65 123.53 131.642 123.359 131.677 123.161C131.707 122.963 131.779 122.735 131.889 122.473L132.251 122.462C132.163 122.694 132.106 122.884 132.087 123.036C132.068 123.188 132.076 123.313 132.11 123.412C132.144 123.511 132.197 123.598 132.273 123.671C132.376 123.773 132.501 123.819 132.65 123.807C132.798 123.796 132.935 123.728 133.064 123.594C133.216 123.439 133.292 123.283 133.292 123.123C133.292 122.963 133.235 122.834 133.129 122.728C133.049 122.652 132.958 122.595 132.847 122.564C132.737 122.53 132.604 122.519 132.441 122.534L129.806 122.72C129.7 122.732 129.612 122.747 129.544 122.77C129.476 122.792 129.411 122.838 129.342 122.903C129.27 122.975 129.232 123.07 129.232 123.176C129.232 123.283 129.293 123.408 129.411 123.541L129.095 123.861C128.902 123.648 128.791 123.435 128.772 123.226C128.753 123.013 128.833 122.815 129.016 122.633L129.023 122.637ZM130.722 120.911C130.874 120.759 131.034 120.637 131.201 120.55C131.369 120.462 131.54 120.405 131.707 120.382C131.874 120.36 132.034 120.367 132.186 120.413C132.334 120.455 132.467 120.531 132.581 120.645C132.802 120.861 132.882 121.112 132.821 121.397C132.76 121.682 132.577 122.006 132.277 122.367L131.996 122.253C132.22 121.975 132.349 121.736 132.387 121.534C132.425 121.333 132.372 121.165 132.232 121.025C132.136 120.934 132.026 120.877 131.893 120.854C131.76 120.831 131.623 120.85 131.471 120.907C131.323 120.964 131.171 121.07 131.023 121.222C130.848 121.397 130.726 121.595 130.654 121.815C130.582 122.032 130.551 122.268 130.563 122.511C130.574 122.758 130.616 123.009 130.692 123.268C130.768 123.526 130.871 123.785 130.996 124.039L130.631 124.149C130.483 123.864 130.361 123.572 130.278 123.283C130.19 122.99 130.145 122.705 130.141 122.424C130.133 122.142 130.179 121.876 130.27 121.622C130.361 121.367 130.513 121.131 130.726 120.918L130.722 120.911Z" fill="#1E262D"/>
<path d="M123.586 131.464L122.982 131.775L120.606 130.03L120.647 130.008L120.686 132.958L120.096 133.262L118.348 129.867L118.773 129.647L120.294 132.604L120.218 132.642L120.161 129.472L120.442 129.327L122.974 131.205L122.925 131.232L121.412 128.289L121.834 128.073L123.582 131.467L123.586 131.464Z" fill="#1E262D"/>
<path d="M116.564 130.585L117.872 134.174L115.659 134.98L115.518 134.596L117.286 133.953L116.845 132.748L115.18 133.353L115.04 132.969L116.705 132.364L116.256 131.137L114.488 131.779L114.348 131.391L116.56 130.585H116.564Z" fill="#1E262D"/>
<path d="M113.543 135.626L112.455 135.888C112.079 135.98 111.737 135.98 111.425 135.896C111.114 135.812 110.847 135.645 110.627 135.406C110.406 135.166 110.254 134.854 110.163 134.478C110.072 134.105 110.072 133.763 110.156 133.448C110.239 133.132 110.403 132.866 110.642 132.646C110.882 132.425 111.186 132.269 111.562 132.178L112.649 131.916L113.546 135.63L113.543 135.626ZM112.984 135.33L112.284 132.425L111.657 132.577C111.376 132.646 111.152 132.767 110.98 132.942C110.809 133.117 110.695 133.326 110.638 133.573C110.581 133.82 110.589 134.083 110.654 134.36C110.722 134.641 110.836 134.877 110.999 135.067C111.163 135.257 111.357 135.394 111.589 135.47C111.821 135.546 112.079 135.55 112.357 135.482L112.984 135.33Z" fill="#1E262D"/>
<path d="M108.011 132.889L108.569 136.668L108.102 136.736L107.543 132.957L108.011 132.889Z" fill="#1E262D"/>
<path d="M104.257 133.212C104.591 133.193 104.888 133.258 105.139 133.414C105.393 133.569 105.591 133.79 105.743 134.083C105.891 134.375 105.979 134.721 106.001 135.117C106.028 135.539 105.975 135.9 105.853 136.196C105.728 136.493 105.545 136.725 105.31 136.888C105.074 137.051 104.8 137.143 104.492 137.162C104.086 137.185 103.751 137.105 103.493 136.915C103.234 136.725 103.048 136.47 102.934 136.151L103.439 136.017C103.534 136.249 103.671 136.432 103.85 136.561C104.028 136.69 104.238 136.751 104.469 136.736C104.671 136.725 104.85 136.656 105.013 136.531C105.177 136.405 105.302 136.227 105.389 135.995C105.481 135.763 105.515 135.478 105.492 135.143C105.473 134.839 105.416 134.573 105.321 134.341C105.226 134.109 105.089 133.931 104.918 133.805C104.743 133.68 104.534 133.623 104.283 133.638C103.983 133.657 103.747 133.752 103.58 133.923C103.413 134.094 103.337 134.314 103.352 134.577L102.835 134.607C102.82 134.333 102.865 134.098 102.979 133.893C103.093 133.691 103.261 133.528 103.477 133.41C103.698 133.292 103.956 133.223 104.253 133.204L104.257 133.212Z" fill="#1E262D"/>
<path d="M101.127 133.345L101.028 137.162L100.553 137.15L100.652 133.334L101.127 133.345Z" fill="#1E262D"/>
<path d="M98.2495 137.044L97.6869 136.979L96.1284 133.63H96.1702L95.8014 136.759L95.3301 136.702L95.7748 132.908L96.2994 132.969L97.915 136.428L97.8428 136.42L98.2229 133.193L98.6943 133.25L98.2495 137.044Z" fill="#1E262D"/>
<path d="M94.3229 132.657L92.1676 136.075L91.605 135.941L91.2324 131.931L91.719 132.045L91.8102 133.071L93.289 133.421L93.8402 132.543L94.3267 132.657H94.3229ZM93.0837 133.752L91.8406 133.459L92.0307 135.447L93.0875 133.752H93.0837Z" fill="#1E262D"/>
<path d="M87.7278 130.76L86.2642 134.288L84.0898 133.387L84.2457 133.011L85.9829 133.729L86.4733 132.543L84.8387 131.866L84.9946 131.49L86.6292 132.167L87.1309 130.958L85.3937 130.239L85.5534 129.855L87.7278 130.756V130.76Z" fill="#1E262D"/>
<path d="M82.8993 128.43C83.1235 128.551 83.306 128.707 83.4505 128.89C83.5949 129.072 83.6785 129.274 83.7051 129.494C83.7318 129.715 83.6823 129.943 83.5607 130.178L83.1539 129.958C83.2376 129.802 83.2718 129.654 83.249 129.509C83.2262 129.369 83.1653 129.236 83.0665 129.118C82.9677 129 82.8422 128.901 82.694 128.818C82.5305 128.73 82.3785 128.677 82.2302 128.665C82.082 128.65 81.9527 128.669 81.8425 128.719C81.7322 128.768 81.6486 128.844 81.5916 128.943C81.5117 129.084 81.4927 129.224 81.5346 129.361C81.5764 129.498 81.6638 129.639 81.8045 129.787L82.2834 130.319C82.5077 130.57 82.6522 130.798 82.7282 131.003C82.8004 131.209 82.7738 131.429 82.6484 131.657C82.5077 131.916 82.291 132.075 82.0021 132.129C81.7132 132.182 81.3825 132.11 81.0138 131.908C80.6716 131.722 80.4474 131.498 80.3409 131.235C80.2345 130.973 80.2421 130.703 80.3561 130.422L80.7667 130.646C80.7097 130.817 80.7173 130.977 80.7857 131.125C80.8579 131.277 81.0024 131.41 81.219 131.528C81.4395 131.65 81.6372 131.695 81.8159 131.661C81.9907 131.631 82.12 131.539 82.2036 131.391C82.272 131.269 82.2834 131.152 82.2492 131.034C82.215 130.916 82.1238 130.787 81.9907 130.642L81.4281 130.023C81.2304 129.81 81.1012 129.597 81.0442 129.376C80.9834 129.156 81.0138 128.932 81.1392 128.7C81.238 128.521 81.3711 128.388 81.546 128.293C81.7208 128.202 81.9223 128.164 82.1542 128.179C82.3861 128.194 82.637 128.278 82.9031 128.422L82.8993 128.43Z" fill="#1E262D"/>
<path d="M78.68 130.011L78.4481 130.346L76 128.658L76.2319 128.323L77.3533 129.095L77.205 129.126L79.2008 126.225L79.5923 126.495L77.5966 129.395L77.57 129.243L78.6838 130.011H78.68Z" fill="#1E262D"/>
<path d="M77.0913 124.667L74.6242 127.582L72.8262 126.062L73.0885 125.75L74.5216 126.963L75.3503 125.982L74.0008 124.838L74.2631 124.526L75.6126 125.67L76.4565 124.67L75.0234 123.458L75.2895 123.142L77.0875 124.663L77.0913 124.667Z" fill="#1E262D"/>
<path d="M71.9465 124.701L71.6538 124.986L69.582 122.85L69.8747 122.565L70.8213 123.541H70.6692L73.1971 121.09L73.5279 121.432L70.9999 123.884V123.732L71.9465 124.705V124.701Z" fill="#1E262D"/>
<path d="M71.4378 119.12L68.4955 121.557L68.1914 121.192L71.1337 118.755L71.4378 119.12Z" fill="#1E262D"/>
<path d="M69.2143 116.079C69.4044 116.357 69.4994 116.642 69.4994 116.938C69.4994 117.235 69.412 117.524 69.2409 117.801C69.0699 118.083 68.819 118.334 68.4921 118.562C68.1423 118.801 67.8078 118.946 67.4885 118.995C67.1692 119.041 66.8765 119.006 66.6142 118.889C66.3519 118.771 66.1314 118.584 65.9566 118.334C65.7247 117.999 65.622 117.672 65.6486 117.353C65.6752 117.033 65.7969 116.741 66.0098 116.478L66.3861 116.84C66.2379 117.041 66.1504 117.25 66.1352 117.474C66.12 117.699 66.1732 117.904 66.3063 118.094C66.4203 118.257 66.5724 118.379 66.7624 118.451C66.9525 118.527 67.1692 118.539 67.4163 118.497C67.6634 118.451 67.9219 118.337 68.1956 118.143C68.4465 117.969 68.6441 117.782 68.7924 117.581C68.9406 117.379 69.0243 117.17 69.0433 116.957C69.0623 116.745 68.9977 116.535 68.8532 116.326C68.6821 116.079 68.4769 115.927 68.245 115.874C68.0093 115.821 67.785 115.87 67.5683 116.018L67.2756 115.593C67.4999 115.437 67.728 115.357 67.9637 115.346C68.1956 115.338 68.4198 115.395 68.6365 115.524C68.8532 115.654 69.0433 115.836 69.2143 116.079Z" fill="#1E262D"/>
<path d="M67.6931 113.897L63.7092 114.563L63.4355 114.053L66.1839 111.107L66.4196 111.544L65.7126 112.293L66.4386 113.631L67.4574 113.46L67.6931 113.897ZM66.0509 113.7L65.4427 112.578L64.0856 114.042L66.0509 113.703V113.7Z" fill="#1E262D"/>
</g>
<defs>
<clipPath id="clip0_226_5552">
<rect width="83.5125" height="87.1656" fill="white" transform="translate(62 50)"/>
</clipPath>
</defs>
</svg>
